<svg xmlns="http://www.w3.org/2000/svg" xmlns:xlink="http://www.w3.org/1999/xlink" width="24" height="24" viewBox="0 0 24 24">
  <defs>
    <path id="and-a" d="M7.82479753,18.9949289 C5.47047361,18.8077295 3.45024683,17.671674 2.18108759,15.8212414 C1.38577602,14.6616768 1,13.4130053 1,11.998319 C1,10.5836328 1.38577602,9.33496125 2.18108759,8.17539668 C3.10970457,6.821474 4.44967311,5.84054939 6.06643375,5.33112728 C6.79857581,5.10043814 7.47705463,5.00149948 8.32687524,5.00149948 C9.56241251,5.00149948 10.602363,5.23914799 11.6907961,5.77022097 L11.9992153,5.92070684 L12.3076346,5.77022097 C13.0747798,5.39591213 13.8198933,5.17229731 14.7104352,5.04911927 C15.1839278,4.98362691 16.1591832,4.98362691 16.6326758,5.04911927 C18.3167614,5.2820583 19.7575625,5.97229909 20.9101372,7.09831075 C22.0368154,8.19902291 22.7113995,9.51686169 22.9485637,11.0804945 C23.0171454,11.5326576 23.0171454,12.4639805 22.9485637,12.9161436 C22.6330952,14.9960408 21.4820046,16.7369116 19.6748132,17.8672564 C18.4605497,18.6267415 17.1529756,18.9951386 15.6715555,18.9951386 C14.4360182,18.9951386 13.3960677,18.7574901 12.3076346,18.2264163 L11.9992153,18.0759313 L11.6907961,18.2264163 C10.6628338,18.7279844 9.64142171,18.9731934 8.4846713,18.9961055 C8.20063872,19.0017283 7.90369556,19.0012002 7.82479753,18.994925 L7.82479753,18.9949289 Z M8.52748584,17.860724 C9.14412955,17.8183705 9.61677561,17.7286362 10.172708,17.5483717 C10.4245837,17.4666987 10.9758872,17.2350845 10.9758872,17.210938 C10.9758872,17.2051378 10.8622192,17.1180764 10.7232915,17.0174671 C10.3945712,16.7794139 9.88408426,16.3052888 9.6205964,15.9933181 C8.83862864,15.0674634 8.36985911,14.0318974 8.18700916,12.8263574 C8.1250748,12.4180258 8.1250748,11.576983 8.18700916,11.1686514 C8.36982973,9.96330529 8.83792189,8.92908875 9.62040648,8.00165902 C9.89028379,7.68179031 10.4323318,7.18274088 10.7490657,6.96253219 C10.886076,6.86727556 10.99899,6.78262046 11,6.77440912 C11.0032399,6.74757497 10.4511461,6.51238886 10.172708,6.42199816 C8.84018085,5.98941368 7.47771714,5.98904898 6.13090293,6.42091808 C5.7652449,6.53816959 5.09167328,6.85624341 4.75772567,7.0693594 C3.4628789,7.89569461 2.55974327,9.10640306 2.17969705,10.5253645 C2.03398715,11.0693969 2,11.3454917 2,11.9851353 C2,12.624779 2.03398715,12.9008739 2.17969705,13.4449062 C2.4532996,14.4664442 3.01680901,15.4097578 3.7982792,16.1544085 C4.28537573,16.6185556 4.80139259,16.9677565 5.4443143,17.2683206 C6.28392553,17.6608365 7.04606997,17.8379113 8.08703287,17.8823226 C8.12978249,17.8841461 8.3279864,17.8744282 8.52748584,17.8607254 L8.52748584,17.860724 Z M20.2052598,16.1081738 C21.1347824,15.2250786 21.7423367,14.0783692 21.9509089,12.8134018 C22.0163637,12.4164252 22.0163637,11.5139529 21.9509089,11.1169763 C21.6746288,9.44136819 20.7213806,8.0172345 19.2490202,7.08040811 C18.9161886,6.86863565 18.244869,6.55256805 17.8804331,6.43605584 C16.538268,6.00695786 15.1833322,6.00723593 13.8521391,6.43687821 C13.6039678,6.51697621 13,6.77215997 13,6.79691814 C13,6.80268169 13.113288,6.88919278 13.2517513,6.98916771 C13.5793727,7.22572022 14.0881532,7.69685539 14.3507602,8.00685949 C14.9958334,8.76836001 15.4563189,9.66707655 15.6698518,10.5812945 C15.7894027,11.0931385 15.8244379,11.4095671 15.8244379,11.9774785 C15.8244379,13.2469734 15.4772229,14.3674919 14.7614074,15.4080486 C14.3658906,15.9829975 13.8204442,16.5491432 13.2840464,16.9414744 C13.1491243,17.0401593 13.0354823,17.1290685 13.0315082,17.1390519 C13.0203839,17.1669978 13.548754,17.3950476 13.8521391,17.4932439 C14.7521359,17.7845457 15.6141317,17.8748188 16.5634909,17.7771932 C17.9131563,17.6384052 19.2296452,17.0350585 20.2052598,16.1081738 Z"/>
  </defs>
  <use xlink:href="#and-a"/>
</svg>
