<svg xmlns="http://www.w3.org/2000/svg" xmlns:xlink="http://www.w3.org/1999/xlink" width="24" height="24" viewBox="0 0 24 24">
  <defs>
    <path id="exclude-a" d="M7.82479752,18.9949258 C5.47047361,18.8077264 3.45024682,17.6716713 2.18108759,15.8212386 C1.38577602,14.6616744 1,13.4130032 1,11.9983173 C1,10.5836313 1.38577602,9.33496008 2.18108759,8.17539583 C3.10970457,6.82147345 4.44967311,5.84054881 6.06643374,5.33112728 C6.79857581,5.10043797 7.47705462,5.00149901 8.32687523,5.00149901 C9.56241249,5.00149901 10.6023629,5.23914809 11.6907961,5.77022102 L11.9992152,5.92070608 L12.3076344,5.77022102 C13.0747802,5.39591227 13.819893,5.17229711 14.7104354,5.04911926 C15.1839279,4.98362691 16.1591832,4.98362691 16.6326758,5.04911926 C18.3167614,5.28205847 19.7575625,5.97229855 20.9101371,7.09831014 C22.0368154,8.19902204 22.7113993,9.51686048 22.9485636,11.080493 C23.0171455,11.532656 23.0171455,12.4639786 22.9485636,12.9161416 C22.6330949,14.9960385 21.4820045,16.736909 19.6748132,17.8672528 C18.4605496,18.6267385 17.1529756,18.9951355 15.6715555,18.9951355 C14.436018,18.9951355 13.3960676,18.7574863 12.3076344,18.2264134 L11.9992152,18.0759284 L11.6907961,18.2264134 C10.662834,18.7279814 9.64142194,18.9731903 8.48467129,18.9961024 C8.20063871,19.001733 7.90369555,19.0011971 7.82479752,18.9949219 L7.82479752,18.9949258 Z M20.1997507,16.1526935 C21.1321339,15.2642396 21.7415579,14.1105725 21.9507719,12.8379298 C22.0164283,12.4385444 22.0164283,11.5305964 21.9507719,11.131211 C21.6736416,9.44543596 20.7174598,8.01266115 19.2405684,7.07015044 C18.9067125,6.85709308 18.2333269,6.53910741 17.8677695,6.42188818 C16.5213263,5.99013982 15.1592384,5.99050442 13.8270785,6.42296936 C13.5487172,6.51333512 12.9967759,6.74845615 13,6.77528332 C13.001027,6.78349211 13.113907,6.86812418 13.2508798,6.96335411 C13.5675266,7.18350226 14.1094251,7.68241403 14.3792275,8.00219451 C15.0267967,8.76971678 15.4880584,9.6727728 15.7021889,10.5922822 C15.8221078,11.1072319 15.8572507,11.4255804 15.8572507,11.9969376 C15.8572507,12.5682949 15.8221078,12.8866434 15.7021889,13.4015931 C15.4879988,14.3213582 15.0260962,15.2255277 14.3790381,15.9916489 C14.1156227,16.3035336 13.6052761,16.7775279 13.2766467,17.0155162 C13.1377576,17.1160977 13.0241207,17.2031358 13.0241207,17.2089336 C13.0241207,17.2330736 13.5752719,17.4646238 13.8270785,17.5462743 C14.7309329,17.8393555 15.594648,17.9300459 16.5467744,17.8318434 C17.9005934,17.6922098 19.2211337,17.0852015 20.1997507,16.1526935 Z M12.2363508,16.2079252 C13.2797482,15.4923613 14.024665,14.4525801 14.341562,13.2693946 C14.4700338,12.789725 14.5,12.546294 14.5,11.9823246 C14.5,11.4183552 14.4700338,11.1749242 14.341562,10.6952546 C14.0167883,9.48266027 13.2303163,8.40633248 12.1541954,7.70172838 L12,7.60076691 L11.8458041,7.70172838 C10.7696832,8.40633248 9.9832118,9.48266027 9.6584377,10.6952546 C9.52996625,11.1749242 9.5,11.4183552 9.5,11.9823246 C9.5,12.546294 9.52996625,12.789725 9.6584377,13.2693946 C9.92948275,14.2813823 10.5351244,15.2235506 11.339589,15.8846811 C11.658407,16.1466947 11.9757396,16.3613683 12.0201661,16.3450879 C12.0392782,16.3380842 12.1365615,16.2763609 12.2363508,16.2079252 Z"/>
  </defs>
  <use xlink:href="#exclude-a"/>
</svg>
