<svg xmlns="http://www.w3.org/2000/svg" xmlns:xlink="http://www.w3.org/1999/xlink" width="24" height="24" viewBox="0 0 24 24">
  <defs>
    <path id="gender_mael_24px-a" d="M9,9 C10.29,9 11.5,9.41 12.47,10.11 L17.58,5 L13,5 L13,3 L21,3 L21,11 L19,11 L19,6.41 L13.89,11.5 C14.59,12.5 15,13.7 15,15 C15,18.3137085 12.3137085,21 9,21 C5.6862915,21 3,18.3137085 3,15 C3,11.6862915 5.6862915,9 9,9 M9,11 C6.790861,11 5,12.790861 5,15 C5,17.209139 6.790861,19 9,19 C11.209139,19 13,17.209139 13,15 C13,12.790861 11.209139,11 9,11 Z"/>
  </defs>
  <use xlink:href="#gender_mael_24px-a"/>
</svg>
