<svg xmlns="http://www.w3.org/2000/svg" xmlns:xlink="http://www.w3.org/1999/xlink" width="24" height="24" viewBox="0 0 24 24">
  <defs>
    <path id="gender_female_24px-a" d="M12,3 C15.3137085,3 18,5.6862915 18,9 C18,11.97 15.84,14.44 13,14.92 L13,17 L15,17 L15,19 L13,19 L13,21 L11,21 L11,19 L9,19 L9,17 L11,17 L11,14.92 C8.16,14.44 6,11.97 6,9 C6,5.6862915 8.6862915,3 12,3 M12,5 C9.790861,5 8,6.790861 8,9 C8,11.209139 9.790861,13 12,13 C14.209139,13 16,11.209139 16,9 C16,6.790861 14.209139,5 12,5 Z"/>
  </defs>
  <use xlink:href="#gender_female_24px-a"/>
</svg>
