<svg xmlns="http://www.w3.org/2000/svg" xmlns:xlink="http://www.w3.org/1999/xlink" width="24" height="24" viewBox="0 0 24 24">
  <defs>
    <path id="gene-a" d="M15.3623576,15.3626389 C16.6196371,14.1042341 17.1837108,12.2966662 17.0211,10.1475594 C16.4874103,10.0732874 15.93881,9.96356731 15.3755803,9.81024054 C15.3460402,9.80208187 15.3170629,9.79589253 15.2875229,9.78773386 C15.3556056,10.2991982 15.3744549,10.7839359 15.3485722,11.2399775 L13.6079617,9.49908567 C13.1929948,9.47038965 12.8013785,9.47770432 12.4393023,9.52384302 L15.1966521,12.2823182 C15.0106907,13.0323534 14.6671824,13.6704178 14.1686594,14.1692221 C13.6692924,14.6685891 13.0284147,15.0104093 12.2764102,15.1960895 L9.52271768,12.4421156 C9.47657898,12.8047545 9.46982698,13.1966521 9.49880433,13.6119004 L11.2354762,15.3488536 C10.3850049,15.3966803 9.43325362,15.2849909 8.40301027,15.0047827 C5.2954002,14.1585314 2.66605711,14.6097904 1,16.2764102 L2.1934168,17.469827 C3.41327894,16.2499648 5.46082431,15.953158 7.95962864,16.6339851 C11.06752,17.4788297 13.6965818,17.027008 15.3623576,15.3626389 Z M14.6162611,6.21564214 C15.1502321,6.28991419 15.6988325,6.3990716 16.2623435,6.55239837 C16.2927275,6.56055704 16.3222675,6.56730904 16.3520889,6.57490505 C16.2693768,5.94640596 16.2561542,5.3550429 16.3146715,4.81066254 L18.3827543,6.87958925 C18.7774652,6.88605992 19.1485441,6.85877057 19.4903643,6.79321986 L16.5152623,3.81755521 C16.7124771,3.18061612 17.0301027,2.63285976 17.4695456,2.19397946 L16.2758475,1 C15.0171613,2.25868617 14.4530876,4.06709804 14.6162611,6.21564214 Z M7.64734843,17.4253763 C7.73062315,18.0566887 7.7435645,18.6503024 7.68420312,19.1958081 L5.61049374,17.1215361 C5.21634548,17.1150654 4.8455479,17.1429174 4.50429034,17.2090308 L7.48276832,20.1883528 C7.28555352,20.8224785 6.96849065,21.3691096 6.53045435,21.8071459 L7.72387115,23.0011253 C8.98255732,21.7421578 9.54663103,19.9340273 9.38317626,17.7854832 C8.84920523,17.7112111 8.30060487,17.6020537 7.73681249,17.448727 C7.70699114,17.440287 7.67773245,17.4338163 7.64734843,17.4253763 Z M16.0403714,7.36657758 C12.9321986,6.52201435 10.3031369,6.97327332 8.63764243,8.63820509 C7.38008159,9.89604726 6.81572654,11.7047405 6.97861865,13.8532846 C7.51230834,13.9275566 8.06090871,14.0372767 8.62413842,14.1906035 C8.65367844,14.1987621 8.68265579,14.2055141 8.71219581,14.2131101 C8.48937966,12.5349557 8.77662118,11.1339148 9.55028837,10.1512168 L13.2453228,13.8476579 C13.3601069,13.7635392 13.4695456,13.6740751 13.569419,13.574483 C13.6690111,13.4746096 13.7587565,13.3651709 13.8425939,13.2503868 L10.1467154,9.55535237 C11.3882403,8.57349838 13.3015895,8.37121958 15.5969897,8.99606133 C18.7045998,9.84231256 21.3339429,9.39105359 23,7.72443382 L21.8065832,6.53101702 C20.5867211,7.75087917 18.5391757,8.0474047 16.0403714,7.36657758 Z"/>
  </defs>
  <use xlink:href="#gene-a"/>
</svg>
