<svg xmlns="http://www.w3.org/2000/svg" xmlns:xlink="http://www.w3.org/1999/xlink" width="24" height="24" viewBox="0 0 24 24">
  <defs>
    <path id="intersection-a" d="M9.04996157,8.24996219 C8.34998719,8.93243721 8,9.81578315 8,10.9 L8,20 L5,20 L5,10.9 C5,8.71566554 5.57858424,7.04491407 6.73575271,5.88774559 C7.89292119,4.73057712 9.64767029,4.10132859 12,4 L12.3664544,4.0203864 C14.5353848,4.16902765 16.1679824,4.79148072 17.2642473,5.88774559 C18.3605122,6.98401047 18.9374937,8.54121963 18.9951918,10.5593731 L19,10.9 L19,20 L16,20 L16,10.9 C16,9.81578315 15.6500128,8.93243721 14.9500384,8.24996219 C14.3039082,7.61998525 13.4163252,7.21650664 12.2872892,7.03952636 L12,7 C10.7332821,7.15083311 9.74993595,7.56748717 9.04996157,8.24996219 Z"/>
  </defs>
  <use xlink:href="#intersection-a"/>
</svg>
