<svg xmlns="http://www.w3.org/2000/svg" xmlns:xlink="http://www.w3.org/1999/xlink" width="24" height="24" viewBox="0 0 24 24">
  <defs>
    <path id="or-a" d="M8.58256714,18.9740809 C9.29888234,18.9237684 9.84792512,18.8171715 10.4937164,18.6030306 C10.7863048,18.5060101 11.4267191,18.2308699 11.4267191,18.2021862 C11.4267191,18.1952961 11.2946782,18.0918733 11.1332943,17.9723581 C10.7514412,17.6895686 10.1584413,17.1263457 9.85236401,16.7557479 C8.94400122,15.6559051 8.39946216,14.4257329 8.18705612,12.9936452 C8.11511176,12.5085786 8.11511176,11.5094853 8.18705612,11.0244195 C8.39942718,9.59256173 8.9431805,8.36399337 9.85214304,7.26227851 C10.1656427,6.88229952 10.7953054,6.28946752 11.163235,6.02787648 C11.3223911,5.91471984 11.4535562,5.81415533 11.4547294,5.80440172 C11.458493,5.77252401 10.8171611,5.4931412 10.4937164,5.38576407 C8.94580476,4.87188736 7.36311743,4.87145412 5.79860793,5.38448103 C5.37384619,5.5237667 4.59140161,5.90161367 4.203475,6.15477914 C2.69933363,7.13640061 1.65021825,8.57462856 1.20874351,10.2602441 C1.03948072,10.9065123 1,11.2344915 1,11.9943386 C1,12.7541849 1.03948072,13.082165 1.20874351,13.7284331 C1.52656939,14.9419408 2.18116339,16.0625238 3.08894689,16.9471108 C3.65477689,17.4984814 4.25420095,17.913305 5.00104147,18.2703519 C5.97636543,18.7366302 6.86169943,18.9469811 8.07092086,18.9997387 C8.12058038,19.0019049 8.35082129,18.9903602 8.58256714,18.9740829 L8.58256714,18.9740809 Z M16.6635709,18.9423582 C18.2366502,18.7764388 19.7710609,18.0551617 20.9081716,16.9471083 C21.991561,15.8914037 22.6996852,14.5205587 22.9427829,13.008341 C23.0190724,12.5337712 23.0190724,11.4549019 22.9427829,10.980332 C22.620769,8.97720988 21.5097277,7.27471483 19.7936435,6.15477664 C19.4057169,5.90161117 18.6232723,5.52376503 18.1985106,5.38447936 C16.6341726,4.87151078 15.0549507,4.87184237 13.5034017,5.38546247 C13.2141499,5.48121642 12.5102057,5.78627836 12.5102057,5.81587577 C12.5102057,5.82276586 12.6422466,5.92618639 12.8036301,6.04570157 C13.1854836,6.3284911 13.7784839,6.89171487 14.084561,7.26231184 C14.8364149,8.17265543 15.3731255,9.24703487 15.6220049,10.3399459 C15.7613456,10.9518344 15.8021802,11.3301121 15.8021802,12.0090278 C15.8021802,13.5266576 15.3974903,14.8661931 14.5631837,16.1101362 C14.1021959,16.797465 13.4664602,17.4742695 12.841271,17.9432856 C12.684015,18.0612595 12.5515615,18.1675471 12.5469295,18.1794815 C12.5339638,18.2128896 13.1497965,18.4855142 13.5034017,18.6029042 C14.5523774,18.9511437 15.5570614,19.0590617 16.6635709,18.9423537 L16.6635709,18.9423582 Z M14.8098747,13.4819947 C14.9640405,12.9334993 15,12.6551395 15,12.0102483 C15,11.3653578 14.9640405,11.0869979 14.8098747,10.5385026 C14.420146,9.15191834 13.47638,7.92115239 12.1850348,7.11544792 L12,7 L11.8149652,7.11544792 C10.5236199,7.92115239 9.5798542,9.15191834 9.19012525,10.5385026 C9.0359595,11.0869979 9,11.3653578 9,12.0102483 C9,12.6551395 9.0359595,12.9334993 9.19012525,13.4819947 C9.51537933,14.6391885 10.2421494,15.7165445 11.207507,16.4725379 C11.5900887,16.7721467 11.9708875,17.0176222 12.0241995,16.9990064 C12.0471342,16.9909978 12.1638742,16.9204181 12.2836213,16.8421629 C13.5356983,16.0239258 14.4295981,14.8349501 14.8098747,13.4819947 Z"/>
  </defs>
  <use xlink:href="#or-a"/>
</svg>
