<svg xmlns="http://www.w3.org/2000/svg" xmlns:xlink="http://www.w3.org/1999/xlink" width="24" height="24" viewBox="0 0 24 24">
  <defs>
    <path id="union-a" d="M9.04996157,15.7500378 C8.34998719,15.0675628 8,14.1842168 8,13.1 L8,4 L5,4 L5,13.1 C5,15.2843345 5.57858424,16.9550859 6.73575271,18.1122544 C7.89292119,19.2694229 9.64767029,19.8986714 12,20 L12.3664544,19.9796136 C14.5353848,19.8309723 16.1679824,19.2085193 17.2642473,18.1122544 C18.3605122,17.0159895 18.9374937,15.4587804 18.9951918,13.4406269 L19,13.1 L19,4 L16,4 L16,13.1 C16,14.1842168 15.6500128,15.0675628 14.9500384,15.7500378 C14.3039082,16.3800147 13.4163252,16.7834934 12.2872892,16.9604736 L12,17 C10.7332821,16.8491669 9.74993595,16.4325128 9.04996157,15.7500378 Z"/>
  </defs>
  <use xlink:href="#union-a"/>
</svg>
