<svg width="18" height="18" viewBox="0 0 18 18" fill="none" xmlns="http://www.w3.org/2000/svg">
<path d="M6.75 6.75C7.7175 6.75 8.625 7.0575 9.3525 7.5825L13.185 3.75H9.75V2.25H15.75V8.25H14.25V4.8075L10.4175 8.625C10.9425 9.375 11.25 10.275 11.25 11.25C11.25 13.7353 9.23528 15.75 6.75 15.75C4.26472 15.75 2.25 13.7353 2.25 11.25C2.25 8.76472 4.26472 6.75 6.75 6.75ZM6.75 8.25C5.09315 8.25 3.75 9.59315 3.75 11.25C3.75 12.9069 5.09315 14.25 6.75 14.25C8.40685 14.25 9.75 12.9069 9.75 11.25C9.75 9.59315 8.40685 8.25 6.75 8.25Z" fill="#A7B4C3"/>
</svg>
