<?xml version="1.0" encoding="utf-8"?>
<!-- Generator: Adobe Illustrator 16.0.0, SVG Export Plug-In . SVG Version: 6.00 Build 0)  -->
<!DOCTYPE svg PUBLIC "-//W3C//DTD SVG 1.1//EN" "http://www.w3.org/Graphics/SVG/1.1/DTD/svg11.dtd">
<svg version="1.1" id="Calque_1" xmlns="http://www.w3.org/2000/svg" xmlns:xlink="http://www.w3.org/1999/xlink" x="0px" y="0px"
	 width="176px" height="39px" viewBox="0 0 176 39" enable-background="new 0 0 176 39" xml:space="preserve">
<title>logo</title>
<desc>Created with Sketch.</desc>
<g id="Symbols">
	<g id="logo">
		<g id="logo__text" transform="translate(0.777790, 1.559411)">
			<g id="Group" transform="translate(54.445319, 0.000000)">
				<path id="Path" fill="#1D8BC6" d="M9.412,12.422C8.893,12.691,7.749,12.96,6.3,12.96c-3.828,0-6.153-2.403-6.153-6.078
					c0-3.98,2.755-6.383,6.439-6.383c1.449,0,2.486,0.305,2.934,0.538L9.036,2.793C8.464,2.542,7.677,2.327,6.675,2.327
					c-2.45,0-4.221,1.542-4.221,4.446c0,2.653,1.556,4.357,4.203,4.357c0.895,0,1.825-0.179,2.397-0.448L9.412,12.422z"/>
				<path id="Shape" fill="#1D8BC6" d="M11.577,9.032c0.054,1.578,1.288,2.26,2.683,2.26c1.02,0,1.753-0.144,2.415-0.395
					l0.322,1.524c-0.751,0.305-1.789,0.538-3.041,0.538c-2.826,0-4.489-1.739-4.489-4.411c0-2.42,1.466-4.697,4.256-4.697
					c2.826,0,3.756,2.331,3.756,4.249c0,0.412-0.036,0.735-0.072,0.932L11.577,9.032L11.577,9.032z M15.405,7.491
					c0.018-0.807-0.34-2.133-1.807-2.133c-1.359,0-1.932,1.237-2.021,2.133H15.405z"/>
				<path id="Path_1_" fill="#1D8BC6" d="M18.357,6.649c0-1.004-0.018-1.847-0.072-2.6h1.932l0.107,1.309h0.054
					c0.375-0.682,1.323-1.506,2.772-1.506c1.52,0,3.094,0.986,3.094,3.747v5.182h-2.2V7.85c0-1.255-0.465-2.206-1.663-2.206
					c-0.876,0-1.485,0.628-1.717,1.291c-0.072,0.197-0.089,0.466-0.089,0.717v5.127h-2.218V6.649z"/>
				<path id="Path_2_" fill="#1D8BC6" d="M30.126,1.556v2.493h2.093v1.649h-2.093v3.855c0,1.058,0.287,1.613,1.127,1.613
					c0.375,0,0.662-0.054,0.859-0.107l0.036,1.685c-0.322,0.125-0.895,0.216-1.592,0.216c-0.805,0-1.485-0.269-1.896-0.717
					c-0.465-0.502-0.68-1.291-0.68-2.438V5.698h-1.252V4.048h1.252V2.076L30.126,1.556z"/>
				<path id="Path_3_" fill="#1D8BC6" d="M32.989,6.863c0-1.183-0.018-2.026-0.071-2.815h1.914l0.07,1.667h0.072
					c0.43-1.237,1.448-1.865,2.379-1.865c0.215,0,0.34,0.018,0.52,0.054v2.08c-0.18-0.036-0.376-0.071-0.645-0.071
					c-1.055,0-1.771,0.681-1.967,1.667c-0.037,0.197-0.072,0.43-0.072,0.681v4.519h-2.2V6.863L32.989,6.863z"/>
				<path id="Shape_1_" fill="#1D8BC6" d="M39.857,9.032c0.055,1.578,1.289,2.26,2.684,2.26c1.02,0,1.753-0.144,2.414-0.395
					l0.322,1.524c-0.751,0.305-1.788,0.538-3.041,0.538c-2.825,0-4.488-1.739-4.488-4.411c0-2.42,1.467-4.697,4.256-4.697
					c2.826,0,3.756,2.331,3.756,4.249c0,0.412-0.035,0.735-0.07,0.932L39.857,9.032L39.857,9.032z M43.685,7.491
					c0.018-0.807-0.34-2.133-1.807-2.133c-1.359,0-1.932,1.237-2.021,2.133H43.685z"/>
				<path id="Shape_2_" fill="#1D8BC6" d="M55.276,11.579H55.24c-0.519,0.843-1.431,1.398-2.701,1.398
					c-1.949,0-3.648-1.703-3.648-4.429c0-3.191,2.039-4.697,3.9-4.697c1.215,0,2.074,0.52,2.539,1.344l0.035,0.019l0.055-1.166
					h2.129c-0.037,0.789-0.072,1.614-0.072,2.528v9.754h-2.2V11.579L55.276,11.579z M55.276,7.652c0-0.179-0.018-0.377-0.054-0.538
					C55.025,6.29,54.328,5.59,53.344,5.59c-1.413,0-2.218,1.201-2.218,2.851c0,1.596,0.769,2.796,2.164,2.796
					c0.895,0,1.627-0.573,1.879-1.452c0.07-0.215,0.106-0.466,0.106-0.682V7.652L55.276,7.652z"/>
				<path id="Path_4_" fill="#1D8BC6" d="M66.742,10.163c0,1.04,0.036,1.9,0.072,2.618h-1.932l-0.107-1.327h-0.037
					c-0.375,0.627-1.233,1.524-2.789,1.524c-1.592,0-3.041-0.95-3.041-3.801V4.049h2.199V8.8c0,1.452,0.465,2.385,1.628,2.385
					c0.876,0,1.448-0.628,1.681-1.184c0.072-0.197,0.126-0.43,0.126-0.682V4.048h2.199L66.742,10.163L66.742,10.163z"/>
				<path id="Shape_3_" fill="#1D8BC6" d="M69.783,9.032c0.055,1.578,1.289,2.26,2.684,2.26c1.02,0,1.753-0.144,2.414-0.395
					l0.322,1.524c-0.752,0.305-1.789,0.538-3.041,0.538c-2.826,0-4.489-1.739-4.489-4.411c0-2.42,1.467-4.697,4.257-4.697
					c2.826,0,3.756,2.331,3.756,4.249c0,0.412-0.035,0.735-0.071,0.932L69.783,9.032L69.783,9.032z M73.611,7.491
					c0.018-0.807-0.34-2.133-1.807-2.133c-1.359,0-1.932,1.237-2.021,2.133H73.611z M74.613,0.265l-2.201,2.654h-1.52l1.557-2.654
					H74.613z"/>
				<path id="Shape_4_" fill="#1D8BC6" d="M76.491,12.78c0.036-0.592,0.071-1.56,0.071-2.456V0.05h2.2v5.2h0.036
					c0.536-0.843,1.484-1.398,2.79-1.398c2.128,0,3.649,1.775,3.631,4.429c0,3.138-1.985,4.697-3.952,4.697
					c-1.127,0-2.129-0.43-2.755-1.506h-0.036l-0.107,1.309L76.491,12.78L76.491,12.78z M78.763,9.176
					c0,0.179,0.018,0.358,0.053,0.52c0.232,0.879,1.002,1.542,1.95,1.542c1.377,0,2.218-1.111,2.218-2.868
					c0-1.542-0.733-2.797-2.2-2.797c-0.894,0-1.699,0.646-1.949,1.614c-0.036,0.162-0.071,0.358-0.071,0.574V9.176L78.763,9.176z"/>
				<path id="Shape_5_" fill="#1D8BC6" d="M87.689,9.032c0.053,1.578,1.287,2.26,2.683,2.26c1.02,0,1.753-0.144,2.415-0.395
					l0.321,1.524c-0.751,0.305-1.788,0.538-3.041,0.538c-2.825,0-4.489-1.739-4.489-4.411c0-2.42,1.467-4.697,4.257-4.697
					c2.826,0,3.756,2.331,3.756,4.249c0,0.412-0.036,0.735-0.071,0.932L87.689,9.032L87.689,9.032z M91.515,7.491
					c0.018-0.807-0.34-2.133-1.806-2.133c-1.359,0-1.932,1.237-2.021,2.133H91.515z M92.517,0.265l-2.199,2.654h-1.521l1.557-2.654
					H92.517z"/>
				<path id="Path_5_" fill="#1D8BC6" d="M100.871,12.511c-0.465,0.215-1.377,0.448-2.468,0.448c-2.718,0-4.489-1.739-4.489-4.447
					c0-2.618,1.789-4.661,4.848-4.661c0.805,0,1.627,0.179,2.128,0.412l-0.394,1.649c-0.357-0.161-0.877-0.341-1.664-0.341
					c-1.681,0-2.683,1.237-2.664,2.833c0,1.793,1.162,2.815,2.664,2.815c0.77,0,1.307-0.161,1.735-0.341L100.871,12.511z"/>
				<path id="Shape_6_" fill="#1D8BC6" d="M109.726,8.334c0,3.209-2.254,4.644-4.472,4.644c-2.469,0-4.364-1.703-4.364-4.5
					c0-2.869,1.877-4.625,4.507-4.625C107.99,3.851,109.726,5.68,109.726,8.334z M103.162,8.423c0,1.686,0.822,2.958,2.164,2.958
					c1.252,0,2.129-1.237,2.129-2.994c0-1.363-0.609-2.923-2.111-2.923C103.787,5.465,103.162,6.971,103.162,8.423z"/>
				<path id="Shape_7_" fill="#1D8BC6" d="M112.982,1.61c0,0.663-0.483,1.183-1.252,1.183c-0.734,0-1.217-0.52-1.217-1.183
					c0-0.681,0.501-1.202,1.234-1.202C112.499,0.409,112.963,0.929,112.982,1.61z M110.638,12.78V4.048h2.218v8.731H110.638z"/>
				<path id="Path_6_" fill="#1D8BC6" d="M114.216,10.754c0.5,0.305,1.448,0.628,2.235,0.628c0.966,0,1.395-0.395,1.395-0.968
					c0-0.592-0.356-0.896-1.431-1.273c-1.699-0.592-2.414-1.524-2.396-2.546c0-1.542,1.27-2.743,3.291-2.743
					c0.966,0,1.807,0.251,2.307,0.52l-0.429,1.56c-0.376-0.215-1.073-0.502-1.842-0.502c-0.787,0-1.217,0.377-1.217,0.915
					c0,0.556,0.411,0.825,1.521,1.219c1.574,0.574,2.307,1.381,2.325,2.672c0,1.578-1.233,2.725-3.541,2.725
					c-1.056,0-2.004-0.251-2.647-0.61L114.216,10.754z"/>
			</g>
			<g id="Group_1_" transform="translate(0.000000, 20.012447)">
				<path id="Shape_8_" fill="#125A90" d="M8.806,0.219v10.273c0,0.897,0.036,1.865,0.071,2.457H6.91l-0.089-1.38H6.785
					c-0.519,0.968-1.574,1.577-2.844,1.577c-2.075,0-3.72-1.775-3.72-4.465C0.203,5.76,2.027,4.02,4.12,4.02
					c1.198,0,2.057,0.503,2.45,1.148h0.036V0.219H8.806L8.806,0.219z M6.606,7.858c0-0.18-0.018-0.395-0.053-0.574
					c-0.197-0.86-0.895-1.56-1.896-1.56c-1.413,0-2.2,1.255-2.2,2.888c0,1.595,0.787,2.76,2.183,2.76
					c0.894,0,1.681-0.609,1.896-1.56c0.054-0.196,0.072-0.413,0.072-0.646L6.606,7.858L6.606,7.858z"/>
				<path id="Shape_9_" fill="#125A90" d="M12.295,9.204c0.054,1.576,1.288,2.258,2.683,2.258c1.02,0,1.753-0.143,2.415-0.395
					l0.322,1.523c-0.751,0.306-1.789,0.539-3.041,0.539c-2.826,0-4.489-1.739-4.489-4.411c0-2.421,1.466-4.698,4.257-4.698
					c2.826,0,3.756,2.331,3.756,4.25c0,0.412-0.036,0.735-0.072,0.933L12.295,9.204L12.295,9.204z M16.123,7.661
					c0.018-0.807-0.34-2.133-1.806-2.133c-1.359,0-1.932,1.236-2.021,2.133H16.123z"/>
				<path id="Shape_10_" fill="#125A90" d="M34.045,4.218c-0.036,0.591-0.072,1.31-0.072,2.511v4.947
					c0,1.829-0.375,3.139-1.287,3.963c-0.913,0.807-2.165,1.059-3.363,1.059c-1.109,0-2.29-0.233-3.041-0.699l0.482-1.668
					c0.555,0.322,1.485,0.664,2.54,0.664c1.431,0,2.504-0.754,2.504-2.637v-0.753h-0.036c-0.501,0.771-1.396,1.291-2.54,1.291
					c-2.164,0-3.702-1.792-3.702-4.267c0-2.869,1.86-4.608,3.953-4.608c1.324,0,2.11,0.646,2.522,1.362h0.036l0.089-1.165H34.045
					L34.045,4.218z M31.773,7.715c0-0.198-0.018-0.412-0.071-0.592c-0.233-0.807-0.859-1.417-1.789-1.417
					c-1.234,0-2.146,1.076-2.146,2.852c0,1.487,0.751,2.689,2.128,2.689c0.822,0,1.538-0.538,1.788-1.327
					c0.054-0.232,0.09-0.537,0.09-0.789V7.715L31.773,7.715z"/>
				<path id="Shape_11_" fill="#125A90" d="M37.462,9.204c0.054,1.576,1.288,2.258,2.683,2.258c1.019,0,1.752-0.143,2.414-0.395
					l0.322,1.523c-0.751,0.306-1.789,0.539-3.041,0.539c-2.826,0-4.489-1.739-4.489-4.411c0-2.421,1.466-4.698,4.257-4.698
					c2.826,0,3.756,2.331,3.756,4.25c0,0.412-0.036,0.735-0.071,0.933L37.462,9.204L37.462,9.204z M41.29,7.661
					c0.018-0.807-0.34-2.133-1.806-2.133c-1.36,0-1.932,1.236-2.021,2.133H41.29z M42.292,0.435l-2.2,2.653h-1.52l1.556-2.653
					H42.292z"/>
				<path id="Path_7_" fill="#125A90" d="M44.707,6.818c0-1.004-0.018-1.847-0.072-2.6h1.932l0.107,1.31h0.054
					c0.375-0.682,1.324-1.507,2.772-1.507c1.52,0,3.094,0.986,3.094,3.747v5.182h-2.2V8.02c0-1.256-0.465-2.206-1.664-2.206
					c-0.876,0-1.484,0.628-1.717,1.291c-0.071,0.198-0.089,0.467-0.089,0.718v5.127h-2.218V6.818L44.707,6.818z"/>
				<path id="Shape_12_" fill="#125A90" d="M62.79,8.503c0,3.21-2.253,4.644-4.471,4.644c-2.468,0-4.364-1.703-4.364-4.5
					c0-2.868,1.878-4.626,4.507-4.626C61.055,4.021,62.79,5.85,62.79,8.503z M56.227,8.593c0,1.686,0.822,2.958,2.164,2.958
					c1.252,0,2.128-1.236,2.128-2.994c0-1.363-0.608-2.923-2.11-2.923C56.852,5.635,56.227,7.141,56.227,8.593z"/>
				<path id="Path_8_" fill="#125A90" d="M64.168,6.818c0-1.004-0.018-1.847-0.072-2.6h1.896l0.089,1.291h0.054
					c0.429-0.681,1.216-1.488,2.683-1.488c1.145,0,2.039,0.646,2.415,1.613h0.036c0.304-0.483,0.662-0.843,1.073-1.093
					c0.483-0.342,1.038-0.521,1.753-0.521c1.449,0,2.916,0.986,2.916,3.783v5.146h-2.146V8.127c0-1.453-0.501-2.313-1.556-2.313
					c-0.751,0-1.306,0.537-1.538,1.165c-0.054,0.215-0.108,0.483-0.108,0.735v5.234h-2.146V7.895c0-1.22-0.483-2.08-1.502-2.08
					c-0.823,0-1.377,0.645-1.574,1.254c-0.089,0.215-0.125,0.467-0.125,0.718v5.163h-2.146L64.168,6.818L64.168,6.818z"/>
				<path id="Shape_13_" fill="#125A90" d="M81.251,1.78c0,0.664-0.483,1.184-1.252,1.184c-0.733,0-1.216-0.52-1.216-1.184
					c0-0.682,0.501-1.201,1.234-1.201C80.768,0.579,81.232,1.098,81.251,1.78z M78.908,12.95V4.218h2.218v8.731H78.908z"/>
				<path id="Shape_14_" fill="#125A90" d="M88.888,11.748h-0.035c-0.52,0.843-1.431,1.398-2.701,1.398
					c-1.95,0-3.649-1.703-3.649-4.428c0-3.191,2.04-4.698,3.899-4.698c1.216,0,2.074,0.521,2.541,1.345l0.035,0.018l0.054-1.165
					h2.128c-0.035,0.789-0.071,1.614-0.071,2.528V16.5h-2.2V11.748L88.888,11.748z M88.888,7.823c0-0.18-0.018-0.377-0.053-0.539
					c-0.197-0.824-0.895-1.523-1.878-1.523c-1.413,0-2.218,1.201-2.218,2.852c0,1.596,0.769,2.797,2.164,2.797
					c0.895,0,1.627-0.574,1.877-1.452c0.072-0.216,0.107-0.467,0.107-0.682V7.823z"/>
				<path id="Path_9_" fill="#125A90" d="M100.82,10.332c0,1.039,0.035,1.9,0.07,2.617H98.96l-0.108-1.326h-0.035
					c-0.377,0.627-1.234,1.523-2.79,1.523c-1.593,0-3.041-0.95-3.041-3.801V4.218h2.2v4.751c0,1.453,0.465,2.385,1.627,2.385
					c0.877,0,1.449-0.627,1.682-1.184c0.07-0.197,0.125-0.43,0.125-0.682V4.218h2.199v6.114H100.82z"/>
				<path id="Shape_15_" fill="#125A90" d="M107.009,11.461c1.02,0,1.752-0.143,2.414-0.395l0.322,1.523
					c-0.752,0.306-1.789,0.539-3.041,0.539c-2.826,0-4.49-1.739-4.49-4.411c0-2.421,1.467-4.698,4.258-4.698
					c2.826,0,3.756,2.331,3.756,4.25c0,0.412-0.035,0.735-0.071,0.933h-5.831C104.38,10.78,105.615,11.461,107.009,11.461z
					 M108.154,7.661c0.018-0.807-0.34-2.133-1.807-2.133c-1.359,0-1.932,1.236-2.021,2.133H108.154z"/>
				<path id="Path_10_" fill="#125A90" d="M124.519,12.681c-0.465,0.215-1.377,0.448-2.467,0.448c-2.719,0-4.49-1.738-4.49-4.446
					c0-2.618,1.789-4.662,4.848-4.662c0.805,0,1.627,0.18,2.128,0.413l-0.394,1.649c-0.357-0.161-0.877-0.341-1.664-0.341
					c-1.68,0-2.682,1.237-2.664,2.832c0,1.793,1.162,2.815,2.664,2.815c0.77,0,1.307-0.161,1.735-0.341L124.519,12.681z"/>
				<polygon id="Path_11_" fill="#125A90" points="125.718,0.219 127.937,0.219 127.937,12.95 125.718,12.95 				"/>
				<path id="Shape_16_" fill="#125A90" d="M132.23,1.78c0,0.664-0.483,1.184-1.252,1.184c-0.734,0-1.217-0.52-1.217-1.184
					c0-0.682,0.502-1.201,1.234-1.201C131.746,0.579,132.211,1.098,132.23,1.78z M129.886,12.95V4.218h2.219v8.731H129.886z"/>
				<path id="Path_12_" fill="#125A90" d="M134.037,6.818c0-1.004-0.018-1.847-0.072-2.6h1.933l0.106,1.31h0.055
					c0.375-0.682,1.322-1.507,2.771-1.507c1.521,0,3.094,0.986,3.094,3.747v5.182h-2.199V8.02c0-1.256-0.465-2.206-1.663-2.206
					c-0.876,0-1.484,0.628-1.718,1.291c-0.07,0.198-0.09,0.467-0.09,0.718v5.127h-2.217V6.818z"/>
				<path id="Shape_17_" fill="#125A90" d="M146.182,1.78c0,0.664-0.483,1.184-1.253,1.184c-0.732,0-1.215-0.52-1.215-1.184
					c0-0.682,0.5-1.201,1.234-1.201C145.699,0.579,146.164,1.098,146.182,1.78z M143.839,12.95V4.218h2.217v8.731H143.839z"/>
				<path id="Shape_18_" fill="#125A90" d="M153.82,11.748h-0.037c-0.518,0.843-1.43,1.398-2.699,1.398
					c-1.95,0-3.649-1.703-3.649-4.428c0-3.191,2.039-4.698,3.899-4.698c1.215,0,2.074,0.521,2.539,1.345l0.036,0.018l0.054-1.165
					h2.129c-0.036,0.789-0.072,1.614-0.072,2.528V16.5h-2.199V11.748L153.82,11.748z M153.82,7.823c0-0.18-0.02-0.377-0.055-0.539
					c-0.196-0.824-0.894-1.523-1.877-1.523c-1.413,0-2.219,1.201-2.219,2.852c0,1.596,0.77,2.797,2.165,2.797
					c0.894,0,1.627-0.574,1.878-1.452c0.07-0.216,0.107-0.467,0.107-0.682V7.823z"/>
				<path id="Path_13_" fill="#125A90" d="M165.75,10.332c0,1.039,0.037,1.9,0.072,2.617h-1.932l-0.107-1.326h-0.036
					c-0.375,0.627-1.233,1.523-2.79,1.523c-1.592,0-3.041-0.95-3.041-3.801V4.218h2.2v4.751c0,1.453,0.466,2.385,1.628,2.385
					c0.875,0,1.448-0.627,1.682-1.184c0.07-0.197,0.125-0.43,0.125-0.682V4.218h2.199V10.332L165.75,10.332z"/>
				<path id="Shape_19_" fill="#125A90" d="M169.257,9.204c0.053,1.576,1.287,2.258,2.683,2.258c1.02,0,1.753-0.143,2.414-0.395
					l0.322,1.523c-0.751,0.306-1.788,0.539-3.04,0.539c-2.826,0-4.49-1.739-4.49-4.411c0-2.421,1.467-4.698,4.258-4.698
					c2.825,0,3.756,2.331,3.756,4.25c0,0.412-0.037,0.735-0.072,0.933L169.257,9.204L169.257,9.204z M173.085,7.661
					c0.019-0.807-0.341-2.133-1.807-2.133c-1.359,0-1.932,1.236-2.021,2.133H173.085z"/>
			</g>
		</g>
		<g id="logo__mark">
			<path id="Path_14_" fill="#1D8BC6" d="M4.981,2.695c0,2.774,0,5.389-0.001,8.004c-0.001,0.355,0.03,0.716-0.023,1.066
				c-0.059,0.383-0.293,0.663-0.878,0.621c-0.411-0.03-0.65-0.088-0.778-0.504c-0.161-0.517-0.287-1.017-0.285-1.547
				c0.009-2.27-0.017-4.538,0.016-6.808c0.01-0.696-0.014-1.215-1.189-1.188C0.895,2.362,0.193,1.996,0.259,1.131
				c0.063-0.858,0.787-1.083,1.749-1.079c4.192,0.016,7.614,1.29,10.254,3.877c0.591,0.579,0.886,1.212,0.134,1.78
				c-0.723,0.547-1.534,0.412-2.222-0.146C10.111,5.239,6.846,3.187,4.981,2.695z"/>
			<path id="Path_15_" fill="#125A90" d="M33.545,5.962c0.198,0.159,0.202,0.316-0.004,0.474C33.542,6.278,33.544,6.12,33.545,5.962
				z"/>
			<path id="Path_16_" fill="#125A90" d="M36.395,3.539c-0.143-0.527-1.042-0.819-1.401-1.035c-0.359-0.216-4.721-1.958-7.407-2.195
				C20.372-0.326,14.706,2.691,12.384,8.18c-0.481,1.139-1.355,2.237-2.783,3.383C9.562,9.59,9.529,7.92,9.496,6.249
				C9.437,6.151,9.377,6.053,9.318,5.957C8.09,5.506,7.645,5.994,7.621,6.891C7.599,7.735,7.645,8.58,7.666,9.424
				c0.111,4.537,0.115,4.549-5.638,5.104c-0.976,0.093-1.681,0.353-1.653,1.177c0.029,0.901,0.819,1.173,1.858,1.131
				c1.579-0.065,3.114-0.279,4.597-0.749c4.312-1.367,6.659-4.112,8.249-7.371c0.526-1.077,1.208-2.047,2.371-3.051
				c0.039,1.952,0.073,3.707,0.107,5.461c0.233,0.489,0.573,0.913,1.338,0.747c0.794-0.173,0.68-0.738,0.672-1.215
				c-0.025-1.904-0.014-3.811-0.125-5.711c-0.046-0.804,0.372-1.248,1.213-1.554c1.553-0.567,3.194-0.736,4.884-0.823
				c1.091-0.056,1.321,0.281,1.326,1.045c0.016,2.699,0.084,5.396,0.152,8.095c0.011,0.495-0.247,1.118,0.714,1.29
				c0.533,0.099,0.916,0.013,0.956-0.492c0.248-0.249-0.899-7.619-0.057-9.349c2.135-0.343,3.635,0.565,5.081,1.582
				c2.812,1.534,2.707-0.394,2.707-0.394S36.537,4.066,36.395,3.539z"/>
			<path id="Path_17_" fill="#125A90" d="M46.039,14.059c0-2.774,0-5.39,0-8.004c0-0.356-0.03-0.716,0.023-1.066
				c0.059-0.383,0.294-0.664,0.878-0.621c0.411,0.03,0.65,0.087,0.779,0.503c0.16,0.517,0.286,1.016,0.284,1.548
				c-0.009,2.269,0.017,4.537-0.016,6.807c-0.01,0.696,0.013,1.216,1.189,1.188c0.948-0.023,1.649,0.343,1.584,1.208
				c-0.064,0.858-0.787,1.083-1.75,1.079c-4.191-0.016-7.614-1.29-10.252-3.877c-0.591-0.579-0.886-1.211-0.135-1.779
				c0.724-0.547,1.534-0.413,2.222,0.146C40.909,11.515,44.175,13.567,46.039,14.059z"/>
			<path id="Path_18_" fill="#1D8BC6" d="M14.729,13.509c0.142,0.527,1.042,0.821,1.4,1.037s4.718,1.962,7.405,2.201
				c7.214,0.642,12.883-2.371,15.21-7.858c0.483-1.137,1.357-2.236,2.786-3.379c0.037,1.972,0.068,3.642,0.1,5.313
				c0.059,0.098,0.119,0.196,0.178,0.292c1.228,0.452,1.672-0.035,1.698-0.932c0.022-0.844-0.022-1.689-0.043-2.533
				c-0.107-4.537-0.111-4.55,5.643-5.099c0.976-0.092,1.681-0.351,1.655-1.175c-0.028-0.901-0.818-1.174-1.858-1.133
				c-1.579,0.064-3.113,0.277-4.597,0.745c-4.313,1.363-6.664,4.106-8.256,7.364c-0.526,1.075-1.209,2.046-2.374,3.049
				c-0.037-1.952-0.07-3.707-0.102-5.461c-0.232-0.49-0.573-0.914-1.337-0.748c-0.794,0.172-0.681,0.737-0.673,1.214
				c0.023,1.904,0.01,3.81,0.12,5.71c0.046,0.804-0.373,1.248-1.213,1.554c-1.554,0.565-3.196,0.733-4.886,0.818
				c-1.091,0.056-1.321-0.282-1.325-1.045c-0.013-2.699-0.079-5.397-0.145-8.096c-0.012-0.495,0.247-1.118-0.714-1.29
				c-0.533-0.099-0.914-0.014-0.956,0.491c-0.248,0.249,0.892,7.62,0.049,9.349c-2.135,0.341-3.635-0.569-5.08-1.586
				c-2.81-1.536-2.708,0.391-2.708,0.391S14.587,12.982,14.729,13.509z"/>
		</g>
	</g>
</g>
</svg>
