<svg xmlns="http://www.w3.org/2000/svg" width="400" height="190" viewBox="0 0 400 190">
  <g fill="#273777" fill-rule="evenodd">
    <path d="M154.312,85.848 C145.824,85.848 140.88,80.008 140.88,71.83 C140.88,63.616 146.019,57.814 153.845,57.814 C159.451,57.814 164.63,60.501 165.642,67.197 L159.101,67.197 C158.479,65.095 156.765,63.654 153.923,63.654 C149.912,63.654 147.537,67.159 147.537,71.948 C147.537,76.932 150.146,80.046 154.274,80.046 C157.038,80.046 158.945,78.605 159.685,76.464 L166.187,76.464 C165.136,82.616 160.269,85.848 154.312,85.848"/>
    <polyline points="191.58 58.204 191.58 85.458 185.389 85.458 185.389 74.4 175.616 74.4 175.616 85.458 169.386 85.458 169.386 58.204 175.616 58.204 175.616 68.871 185.389 68.871 185.389 58.204 191.58 58.204"/>
    <path d="M219.425 73.855C219.425 82.344 214.324 85.848 208.016 85.848 201.709 85.848 196.531 82.344 196.531 73.855L196.531 58.204 202.994 58.204 202.994 74.206C202.994 77.593 204.746 79.968 208.055 79.968 211.326 79.968 212.961 77.593 212.961 74.206L212.961 58.204 219.425 58.204 219.425 73.855M151.08 122.568C144.617 122.568 140.88 118.557 140.88 112.989L146.914 112.989C146.914 115.597 148.355 117.311 151.275 117.311 153.028 117.311 154.507 116.454 154.507 114.741 154.507 112.873 152.949 112.016 149.523 110.769 145.318 109.212 141.697 107.11 141.697 102.555 141.697 97.415 145.668 94.533 150.73 94.533 156.687 94.533 160.114 98.388 160.114 102.983L154.468 102.983C154.312 101.152 153.105 99.751 150.769 99.751 149.056 99.751 147.888 100.646 147.888 102.087 147.888 103.566 149.095 104.462 152.326 105.786 157.31 107.811 160.815 109.835 160.815 114.78 160.815 119.958 156.726 122.568 151.08 122.568M174.992 114.001L172.968 114.158C170.009 114.39 168.724 115.287 168.724 116.415 168.724 117.35 169.502 117.935 170.748 117.935 172.812 117.935 174.875 116.376 174.992 114.001zM182.235 117.35L182.235 122.178 181.144 122.178C179.275 122.178 177.367 121.633 176.667 119.686 175.187 121.437 172.89 122.568 169.814 122.568 165.531 122.568 162.766 120.504 162.766 116.804 162.766 112.639 166.193 110.691 171.41 110.263L174.992 109.991 174.992 109.68C174.992 107.733 173.785 106.76 172.228 106.76 170.165 106.76 169.347 108.395 169.269 109.446L163.662 109.446C163.974 105.279 167.127 102.321 172.189 102.321 176.862 102.321 180.677 104.891 180.677 110.497L180.677 115.793C180.677 116.96 181.105 117.35 182.235 117.35L182.235 117.35zM184.731 122.178L190.611 122.178 190.611 102.709 184.731 102.709 184.731 122.178zM183.991 97.143C183.991 95.039 185.705 93.482 187.729 93.482 189.715 93.482 191.311 95.039 191.311 97.143 191.311 99.05 189.715 100.764 187.729 100.764 185.705 100.764 183.991 99.05 183.991 97.143L183.991 97.143zM214.557 111.51L214.557 122.178 208.367 122.178 208.367 112.444C208.367 109.29 206.731 107.771 204.551 107.771 202.604 107.771 200.775 109.096 200.775 112.405L200.775 122.178 194.583 122.178 194.583 102.709 199.49 102.709 200.23 105.047 200.736 105.047C201.632 103.916 203.033 102.321 206.692 102.321 211.209 102.321 214.557 105.475 214.557 111.51M226.128 122.568C222.351 122.568 219.625 121.009 219.625 115.793L219.625 107.46 215.77 107.46 215.77 103.061 217.055 103.061C219.081 103.061 220.132 101.931 220.132 100.373L220.132 97.804 225.583 97.804 225.583 102.709 230.527 102.709 230.527 107.46 225.583 107.46 225.583 115.208C225.583 116.688 226.244 117.388 227.296 117.388 228.113 117.388 228.814 116.999 229.203 116.804L230.332 121.437C229.437 121.983 227.996 122.568 226.128 122.568M237.54 109.953L245.599 109.953C245.521 108.473 243.964 106.954 241.667 106.954 239.68 106.954 238.202 107.967 237.54 109.953zM251.245 115.753C250.388 120.114 246.378 122.568 241.783 122.568 235.593 122.568 231.582 118.401 231.582 112.444 231.582 106.37 236.021 102.321 241.355 102.321 246.572 102.321 251.79 105.397 251.051 114.158L237.345 114.158C237.773 116.415 239.136 117.778 241.822 117.778 243.613 117.778 245.053 117.038 245.638 115.753L251.245 115.753 251.245 115.753z"/>
    <polygon points="253.742 112.522 267.759 112.522 267.759 107.617 253.742 107.617"/>
    <path d="M277.886 116.804C279.56 116.804 280.573 115.637 280.573 113.261L280.573 94.923 286.685 94.923 286.685 113.573C286.685 119.296 283.142 122.568 278.12 122.568 272.279 122.568 269.164 118.985 269.087 113.689L275.083 113.689C275.277 115.481 276.017 116.804 277.886 116.804M289.766 113.379L289.766 102.709 295.957 102.709 295.957 112.444C295.957 115.597 297.513 117.116 299.694 117.116 301.641 117.116 303.354 115.793 303.354 112.482L303.354 102.709 309.545 102.709 309.545 122.178 304.639 122.178 303.899 119.842 303.432 119.842C302.537 120.971 301.174 122.568 297.553 122.568 292.998 122.568 289.766 119.414 289.766 113.379M321.037 122.568C315.819 122.568 312.51 119.92 312.198 115.442L317.922 115.442C318.077 117.311 319.596 118.051 321.115 118.051 322.244 118.051 323.295 117.661 323.295 116.649 323.295 115.52 322.088 114.975 319.791 114.39 316.909 113.689 312.782 112.522 312.782 108.434 312.782 104.735 316.092 102.321 320.686 102.321 325.397 102.321 328.357 104.969 328.668 108.706L323.178 108.706C322.984 107.539 322.011 106.798 320.453 106.798 319.44 106.798 318.701 107.227 318.701 108.122 318.701 109.056 319.596 109.484 322.321 110.225 326.294 111.276 329.136 113.029 329.136 116.61 329.136 120.581 325.67 122.568 321.037 122.568M340.158 122.568C336.382 122.568 333.656 121.009 333.656 115.793L333.656 107.46 329.801 107.46 329.801 103.061 331.086 103.061C333.111 103.061 334.162 101.931 334.162 100.373L334.162 97.804 339.613 97.804 339.613 102.709 344.557 102.709 344.557 107.46 339.613 107.46 339.613 115.208C339.613 116.688 340.275 117.388 341.326 117.388 342.144 117.388 342.845 116.999 343.234 116.804L344.363 121.437C343.468 121.983 342.027 122.568 340.158 122.568M347.287 122.178L353.167 122.178 353.167 102.709 347.287 102.709 347.287 122.178zM346.548 97.143C346.548 95.039 348.261 93.482 350.285 93.482 352.27 93.482 353.867 95.039 353.867 97.143 353.867 99.05 352.27 100.764 350.285 100.764 348.261 100.764 346.548 99.05 346.548 97.143L346.548 97.143z"/>
    <path d="M20.113 9.51L20.113 20.178 13.923 20.178 13.923 10.444C13.923 7.29 12.288 5.771 10.107 5.771 8.16 5.771 6.331 7.096 6.331 10.405L6.331 20.178.14 20.178.14.709 5.046.709 5.786 3.047 6.292 3.047C7.187 1.916 8.589.321 12.249.321 16.764.321 20.113 3.475 20.113 9.51M28.763 7.953L36.823 7.953C36.745 6.473 35.188 4.954 32.89 4.954 30.905 4.954 29.426 5.967 28.763 7.953zM42.469 13.753C41.612 18.114 37.602 20.568 33.008 20.568 26.817 20.568 22.806 16.401 22.806 10.444 22.806 4.37 27.245.321 32.579.321 37.797.321 43.014 3.397 42.274 12.158L28.569 12.158C28.998 14.415 30.36 15.778 33.047 15.778 34.837 15.778 36.278 15.038 36.862 13.753L42.469 13.753 42.469 13.753z" transform="translate(357 102)"/>
    <polyline points="151.374 147.404 151.374 149.694 141.114 149.694 141.114 134.281 143.602 134.281 143.602 147.404 151.374 147.404"/>
    <path d="M160.921 143.045C160.877 141.591 159.798 140.292 157.992 140.292 156.363 140.292 155.218 141.371 154.887 143.045L160.921 143.045zM163.034 144.739L154.8 144.739C154.976 146.7 156.033 147.998 158.124 147.998 159.313 147.998 160.393 147.471 160.855 146.392L163.034 146.392C162.484 148.702 160.415 149.915 158.102 149.915 154.712 149.915 152.62 147.624 152.62 144.145 152.62 140.799 154.91 138.464 157.926 138.464 160.833 138.464 163.321 140.358 163.034 144.739L163.034 144.739zM176.064 149.915C172.498 149.915 170.494 147.404 170.494 144.212 170.494 140.952 172.872 138.464 176.021 138.464 178.729 138.464 180.865 140.204 181.107 142.714L178.839 142.714C178.641 141.569 177.694 140.49 175.976 140.49 174.039 140.49 172.761 142.053 172.761 144.212 172.761 146.369 173.863 147.934 176.043 147.934 177.54 147.934 178.531 147.052 178.861 145.884L181.151 145.884C180.821 148.263 178.773 149.915 176.064 149.915M190.94 143.045C190.895 141.591 189.817 140.292 188.011 140.292 186.382 140.292 185.237 141.371 184.906 143.045L190.94 143.045zM193.053 144.739L184.818 144.739C184.995 146.7 186.052 147.998 188.143 147.998 189.332 147.998 190.411 147.471 190.873 146.392L193.053 146.392C192.503 148.702 190.433 149.915 188.121 149.915 184.73 149.915 182.638 147.624 182.638 144.145 182.638 140.799 184.928 138.464 187.945 138.464 190.852 138.464 193.34 140.358 193.053 144.739L193.053 144.739zM205.094 143.243L205.094 149.694 202.739 149.694 202.739 143.64C202.739 141.547 201.637 140.557 200.14 140.557 198.863 140.557 197.586 141.415 197.586 143.551L197.586 149.694 195.23 149.694 195.23 138.685 197.013 138.685 197.344 140.051 197.564 140.051C198.027 139.39 198.907 138.464 200.933 138.464 203.289 138.464 205.094 140.094 205.094 143.243M211.608 149.915C210.001 149.915 208.679 149.187 208.679 146.766L208.679 140.534 206.522 140.534 206.522 138.86 207.182 138.86C208.349 138.86 208.9 138.332 208.9 137.319L208.9 135.91 210.948 135.91 210.948 138.685 213.611 138.685 213.611 140.534 210.948 140.534 210.948 146.545C210.948 147.514 211.388 147.911 212.026 147.911 212.445 147.911 212.798 147.735 212.996 147.603L213.546 149.386C213.105 149.65 212.489 149.915 211.608 149.915M221.669 138.464L221.669 140.755C221.514 140.71 221.03 140.644 220.678 140.644 219.136 140.644 217.639 141.701 217.639 144.299L217.639 149.694 215.305 149.694 215.305 138.685 217.089 138.685 217.441 140.227 217.639 140.227C218.234 139.346 219.159 138.464 220.942 138.464L221.669 138.464M231.047 143.045C231.003 141.591 229.924 140.292 228.118 140.292 226.489 140.292 225.344 141.371 225.013 143.045L231.047 143.045zM233.161 144.739L224.926 144.739C225.102 146.7 226.159 147.998 228.25 147.998 229.439 147.998 230.518 147.471 230.98 146.392L233.161 146.392C232.61 148.702 230.541 149.915 228.228 149.915 224.838 149.915 222.746 147.624 222.746 144.145 222.746 140.799 225.036 138.464 228.053 138.464 230.959 138.464 233.447 140.358 233.161 144.739L233.161 144.739zM251.255 143.088L251.255 149.694 248.942 149.694 248.942 143.859C248.942 141.789 247.952 140.601 246.19 140.601 244.847 140.601 243.549 141.613 243.549 143.617L243.549 149.694 241.17 149.694 241.17 134.061 243.549 134.061 243.549 139.962 243.768 139.962C244.297 139.323 245.442 138.464 247.027 138.464 249.647 138.464 251.255 140.138 251.255 143.088M262.266 144.189C262.266 142.164 260.901 140.49 258.876 140.49 256.872 140.49 255.529 142.164 255.529 144.189 255.529 146.215 256.849 147.889 258.897 147.889 260.924 147.889 262.266 146.237 262.266 144.189zM253.239 144.167C253.239 140.865 255.661 138.464 258.876 138.464 262.091 138.464 264.556 140.843 264.556 144.189 264.556 147.514 262.157 149.915 258.897 149.915 255.683 149.915 253.239 147.514 253.239 144.167L253.239 144.167zM270.468 149.915C267.759 149.915 266.042 148.351 265.998 146.104L268.199 146.104C268.221 147.58 269.454 148.13 270.512 148.13 271.524 148.13 272.361 147.69 272.361 146.787 272.361 145.753 271.303 145.291 269.939 144.894 268.332 144.432 266.349 143.684 266.349 141.656 266.349 139.72 268.045 138.464 270.313 138.464 272.802 138.464 274.255 140.006 274.343 141.811L272.207 141.811C272.163 140.888 271.348 140.227 270.225 140.227 269.366 140.227 268.618 140.688 268.618 141.503 268.618 142.384 269.432 142.803 270.908 143.264 272.977 143.882 274.606 144.739 274.606 146.787 274.606 148.813 272.802 149.915 270.468 149.915M285.133 144.189C285.133 142.032 283.834 140.512 282.007 140.512 280.178 140.512 278.946 142.032 278.946 144.189 278.946 146.369 280.178 147.867 282.007 147.867 283.855 147.867 285.133 146.369 285.133 144.189zM287.379 144.189C287.379 147.646 285.111 149.915 282.248 149.915 280.708 149.915 279.54 149.276 278.946 148.219L278.946 154.098 276.721 154.098 276.721 138.685 278.417 138.685 278.748 140.138 278.99 140.138C279.606 139.279 280.619 138.464 282.358 138.464 285.177 138.464 287.379 140.755 287.379 144.189L287.379 144.189zM289.501 149.694L291.768 149.694 291.768 138.685 289.501 138.685 289.501 149.694zM289.126 135.625C289.126 134.788 289.83 134.127 290.645 134.127 291.46 134.127 292.12 134.788 292.12 135.625 292.12 136.438 291.46 137.121 290.645 137.121 289.83 137.121 289.126 136.438 289.126 135.625L289.126 135.625zM298.549 149.915C296.941 149.915 295.62 149.187 295.62 146.766L295.62 140.534 293.462 140.534 293.462 138.86 294.123 138.86C295.29 138.86 295.841 138.332 295.841 137.319L295.841 135.91 297.888 135.91 297.888 138.685 300.552 138.685 300.552 140.534 297.888 140.534 297.888 146.545C297.888 147.514 298.328 147.911 298.967 147.911 299.386 147.911 299.737 147.735 299.935 147.603L300.486 149.386C300.046 149.65 299.428 149.915 298.549 149.915M308.73 145.18L308.73 144.607 307.056 144.739C305.053 144.894 303.952 145.576 303.952 146.655 303.952 147.646 304.766 148.087 305.714 148.087 307.188 148.087 308.73 147.117 308.73 145.18zM311.879 147.822L311.879 149.694 311.461 149.694C310.382 149.694 309.545 149.32 309.236 148.241 308.378 149.276 306.991 149.915 305.45 149.915 303.313 149.915 301.684 148.857 301.684 146.787 301.684 144.475 303.643 143.375 306.637 143.132L308.73 142.978 308.73 142.714C308.73 141.217 307.959 140.227 306.595 140.227 305.075 140.227 304.459 141.327 304.327 142.23L302.169 142.23C302.367 140.116 303.952 138.464 306.572 138.464 309.082 138.464 310.91 140.006 310.91 142.869L310.91 146.766C310.91 147.58 311.219 147.822 311.879 147.822L311.879 147.822z"/>
    <polygon points="313.748 149.694 316.037 149.694 316.037 134.061 313.748 134.061"/>
    <path d="M318.73 149.694L320.998 149.694 320.998 138.685 318.73 138.685 318.73 149.694zM318.355 135.625C318.355 134.788 319.06 134.127 319.875 134.127 320.689 134.127 321.35 134.788 321.35 135.625 321.35 136.438 320.689 137.121 319.875 137.121 319.06 137.121 318.355 136.438 318.355 135.625L318.355 135.625zM331.387 143.045C331.344 141.591 330.264 140.292 328.459 140.292 326.829 140.292 325.684 141.371 325.354 143.045L331.387 143.045zM333.501 144.739L325.266 144.739C325.442 146.7 326.5 147.998 328.591 147.998 329.78 147.998 330.858 147.471 331.321 146.392L333.501 146.392C332.951 148.702 330.881 149.915 328.569 149.915 325.178 149.915 323.087 147.624 323.087 144.145 323.087 140.799 325.377 138.464 328.393 138.464 331.3 138.464 333.787 140.358 333.501 144.739L333.501 144.739zM342.041 138.464L342.041 140.755C341.887 140.71 341.402 140.644 341.051 140.644 339.509 140.644 338.012 141.701 338.012 144.299L338.012 149.694 335.678 149.694 335.678 138.685 337.461 138.685 337.813 140.227 338.012 140.227C338.606 139.346 339.531 138.464 341.314 138.464L342.041 138.464M140.938 167.149L140.938 160.698 143.293 160.698 143.293 166.752C143.293 168.845 144.373 169.835 145.87 169.835 147.147 169.835 148.38 168.978 148.38 166.841L148.38 160.698 150.758 160.698 150.758 171.707 148.953 171.707 148.622 170.342 148.424 170.342C147.939 171.002 147.081 171.928 145.077 171.928 142.721 171.928 140.938 170.298 140.938 167.149M163.283 165.256L163.283 171.707 160.928 171.707 160.928 165.652C160.928 163.56 159.826 162.569 158.329 162.569 157.052 162.569 155.775 163.428 155.775 165.563L155.775 171.707 153.419 171.707 153.419 160.698 155.202 160.698 155.532 162.063 155.753 162.063C156.216 161.402 157.096 160.478 159.122 160.478 161.477 160.478 163.283 162.107 163.283 165.256M165.852 171.707L168.119 171.707 168.119 160.698 165.852 160.698 165.852 171.707zM165.477 157.638C165.477 156.801 166.181 156.14 166.996 156.14 167.811 156.14 168.472 156.801 168.472 157.638 168.472 158.452 167.811 159.134 166.996 159.134 166.181 159.134 165.477 158.452 165.477 157.638L165.477 157.638z"/>
    <polyline points="180.889 160.698 176.97 171.707 173.711 171.707 169.792 160.698 172.17 160.698 175.253 169.659 175.473 169.659 178.533 160.698 180.889 160.698"/>
    <path d="M189.901 165.058C189.856 163.603 188.778 162.306 186.972 162.306 185.343 162.306 184.198 163.384 183.867 165.058L189.901 165.058zM192.014 166.752L183.779 166.752C183.956 168.713 185.012 170.011 187.104 170.011 188.293 170.011 189.372 169.483 189.834 168.405L192.014 168.405C191.464 170.716 189.394 171.928 187.082 171.928 183.691 171.928 181.599 169.637 181.599 166.159 181.599 162.811 183.889 160.478 186.906 160.478 189.813 160.478 192.301 162.371 192.014 166.752L192.014 166.752zM200.554 160.478L200.554 162.768C200.4 162.723 199.916 162.657 199.563 162.657 198.022 162.657 196.525 163.715 196.525 166.312L196.525 171.707 194.191 171.707 194.191 160.698 195.974 160.698 196.326 162.239 196.525 162.239C197.119 161.358 198.044 160.478 199.827 160.478L200.554 160.478M206.255 171.928C203.547 171.928 201.829 170.364 201.785 168.118L203.986 168.118C204.009 169.593 205.242 170.144 206.299 170.144 207.312 170.144 208.148 169.703 208.148 168.8 208.148 167.767 207.092 167.304 205.726 166.907 204.119 166.444 202.137 165.696 202.137 163.67 202.137 161.733 203.833 160.478 206.1 160.478 208.589 160.478 210.042 162.019 210.131 163.824L207.994 163.824C207.95 162.9 207.136 162.239 206.012 162.239 205.154 162.239 204.405 162.702 204.405 163.517 204.405 164.396 205.219 164.815 206.695 165.277 208.764 165.894 210.394 166.752 210.394 168.8 210.394 170.826 208.589 171.928 206.255 171.928M212.516 171.707L214.784 171.707 214.784 160.698 212.516 160.698 212.516 171.707zM212.141 157.638C212.141 156.801 212.846 156.14 213.661 156.14 214.475 156.14 215.136 156.801 215.136 157.638 215.136 158.452 214.475 159.134 213.661 159.134 212.846 159.134 212.141 158.452 212.141 157.638L212.141 157.638zM221.564 171.928C219.957 171.928 218.636 171.201 218.636 168.779L218.636 162.547 216.478 162.547 216.478 160.874 217.138 160.874C218.305 160.874 218.855 160.345 218.855 159.332L218.855 157.923 220.904 157.923 220.904 160.698 223.568 160.698 223.568 162.547 220.904 162.547 220.904 168.559C220.904 169.527 221.344 169.924 221.983 169.924 222.401 169.924 222.754 169.748 222.952 169.615L223.502 171.399C223.061 171.663 222.445 171.928 221.564 171.928M231.745 167.192L231.745 166.62 230.072 166.752C228.068 166.907 226.968 167.589 226.968 168.668 226.968 169.659 227.782 170.1 228.728 170.1 230.204 170.1 231.745 169.131 231.745 167.192zM234.894 169.835L234.894 171.707 234.475 171.707C233.397 171.707 232.56 171.333 232.252 170.254 231.393 171.289 230.007 171.928 228.465 171.928 226.329 171.928 224.699 170.87 224.699 168.8 224.699 166.488 226.659 165.388 229.653 165.144L231.745 164.991 231.745 164.728C231.745 163.229 230.974 162.239 229.61 162.239 228.091 162.239 227.474 163.341 227.342 164.243L225.183 164.243C225.383 162.13 226.968 160.478 229.588 160.478 232.097 160.478 233.926 162.019 233.926 164.882L233.926 168.779C233.926 169.593 234.234 169.835 234.894 169.835L234.894 169.835zM236.721 171.707L238.989 171.707 238.989 160.698 236.721 160.698 236.721 171.707zM236.346 157.638C236.346 156.801 237.051 156.14 237.866 156.14 238.68 156.14 239.342 156.801 239.342 157.638 239.342 158.452 238.68 159.134 237.866 159.134 237.051 159.134 236.346 158.452 236.346 157.638L236.346 157.638zM248.046 160.478L248.046 162.768C247.891 162.723 247.407 162.657 247.054 162.657 245.513 162.657 244.016 163.715 244.016 166.312L244.016 171.707 241.682 171.707 241.682 160.698 243.466 160.698 243.818 162.239 244.016 162.239C244.611 161.358 245.536 160.478 247.319 160.478L248.046 160.478M257.424 165.058C257.379 163.603 256.301 162.306 254.495 162.306 252.865 162.306 251.72 163.384 251.39 165.058L257.424 165.058zM259.537 166.752L251.303 166.752C251.478 168.713 252.536 170.011 254.627 170.011 255.816 170.011 256.894 169.483 257.357 168.405L259.537 168.405C258.986 170.716 256.917 171.928 254.605 171.928 251.215 171.928 249.122 169.637 249.122 166.159 249.122 162.811 251.413 160.478 254.429 160.478 257.336 160.478 259.823 162.371 259.537 166.752L259.537 166.752zM283.4 165.102L283.4 171.707 281.066 171.707 281.066 165.211C281.066 163.428 280.097 162.591 278.887 162.591 277.742 162.591 276.64 163.517 276.64 165.277L276.64 171.707 274.306 171.707 274.306 165.343C274.306 163.494 273.316 162.569 272.171 162.569 271.07 162.569 269.881 163.428 269.881 165.233L269.881 171.707 267.547 171.707 267.547 160.698 269.33 160.698 269.661 162.063 269.859 162.063C270.365 161.248 271.422 160.478 272.897 160.478 274.593 160.478 275.672 161.578 276.047 162.504L276.244 162.504C276.728 161.512 277.763 160.5 279.569 160.5 281.814 160.5 283.4 161.932 283.4 165.102M293.747 165.058C293.702 163.603 292.624 162.306 290.817 162.306 289.188 162.306 288.044 163.384 287.713 165.058L293.747 165.058zM289.981 159.487L287.713 156.514 290.223 156.514 291.589 159.487 289.981 159.487zM295.86 166.752L287.625 166.752C287.802 168.713 288.858 170.011 290.95 170.011 292.138 170.011 293.218 169.483 293.68 168.405L295.86 168.405C295.309 170.716 293.24 171.928 290.928 171.928 287.537 171.928 285.445 169.637 285.445 166.159 285.445 162.811 287.735 160.478 290.752 160.478 293.658 160.478 296.146 162.371 295.86 166.752L295.86 166.752zM304.4 160.478L304.4 162.768C304.246 162.723 303.762 162.657 303.409 162.657 301.868 162.657 300.371 163.715 300.371 166.312L300.371 171.707 298.037 171.707 298.037 160.698 299.82 160.698 300.173 162.239 300.371 162.239C300.966 161.358 301.89 160.478 303.674 160.478L304.4 160.478M313.778 165.058C313.733 163.603 312.655 162.306 310.849 162.306 309.22 162.306 308.075 163.384 307.745 165.058L313.778 165.058zM315.891 166.752L307.656 166.752C307.833 168.713 308.889 170.011 310.981 170.011 312.171 170.011 313.249 169.483 313.712 168.405L315.891 168.405C315.341 170.716 313.271 171.928 310.96 171.928 307.568 171.928 305.476 169.637 305.476 166.159 305.476 162.811 307.767 160.478 310.784 160.478 313.69 160.478 316.178 162.371 315.891 166.752L315.891 166.752z"/>
    <polygon points="317.603 165.828 325.53 165.828 325.53 163.891 317.603 163.891"/>
    <path d="M335.592 165.058C335.548 163.603 334.469 162.306 332.663 162.306 331.034 162.306 329.888 163.384 329.558 165.058L335.592 165.058zM337.706 166.752L329.47 166.752C329.647 168.713 330.704 170.011 332.796 170.011 333.984 170.011 335.063 169.483 335.526 168.405L337.706 168.405C337.155 170.716 335.086 171.928 332.773 171.928 329.383 171.928 327.291 169.637 327.291 166.159 327.291 162.811 329.581 160.478 332.596 160.478 335.504 160.478 337.992 162.371 337.706 166.752L337.706 166.752zM349.747 165.256L349.747 171.707 347.39 171.707 347.39 165.652C347.39 163.56 346.29 162.569 344.793 162.569 343.515 162.569 342.238 163.428 342.238 165.563L342.238 171.707 339.883 171.707 339.883 160.698 341.666 160.698 341.996 162.063 342.216 162.063C342.678 161.402 343.559 160.478 345.585 160.478 347.941 160.478 349.747 162.107 349.747 165.256M355.445 160.698L358.263 160.698 358.263 162.547 355.445 162.547 355.445 171.707 353.199 171.707 353.199 162.547 351.175 162.547 351.175 160.698 353.199 160.698 353.199 159.354C353.199 157.264 354.543 156.073 356.304 156.073 357.559 156.073 358.396 156.58 358.682 156.867L357.956 158.606C357.714 158.386 357.251 158.078 356.678 158.078 355.908 158.078 355.445 158.584 355.445 159.574L355.445 160.698M366.539 167.192L366.539 166.62 364.866 166.752C362.862 166.907 361.761 167.589 361.761 168.668 361.761 169.659 362.576 170.1 363.522 170.1 364.998 170.1 366.539 169.131 366.539 167.192zM369.688 169.835L369.688 171.707 369.269 171.707C368.191 171.707 367.354 171.333 367.046 170.254 366.187 171.289 364.8 171.928 363.259 171.928 361.123 171.928 359.493 170.87 359.493 168.8 359.493 166.488 361.453 165.388 364.448 165.144L366.539 164.991 366.539 164.728C366.539 163.229 365.768 162.239 364.403 162.239 362.884 162.239 362.268 163.341 362.136 164.243L359.977 164.243C360.176 162.13 361.761 160.478 364.382 160.478 366.891 160.478 368.719 162.019 368.719 164.882L368.719 168.779C368.719 169.593 369.027 169.835 369.688 169.835L369.688 169.835zM381.396 165.256L381.396 171.707 379.041 171.707 379.041 165.652C379.041 163.56 377.939 162.569 376.442 162.569 375.166 162.569 373.887 163.428 373.887 165.563L373.887 171.707 371.532 171.707 371.532 160.698 373.315 160.698 373.646 162.063 373.866 162.063C374.329 161.402 375.209 160.478 377.235 160.478 379.591 160.478 381.396 162.107 381.396 165.256M387.911 171.928C386.303 171.928 384.982 171.201 384.982 168.779L384.982 162.547 382.825 162.547 382.825 160.874 383.485 160.874C384.652 160.874 385.202 160.345 385.202 159.332L385.202 157.923 387.251 157.923 387.251 160.698 389.915 160.698 389.915 162.547 387.251 162.547 387.251 168.559C387.251 169.527 387.691 169.924 388.329 169.924 388.748 169.924 389.1 169.748 389.299 169.615L389.848 171.399C389.408 171.663 388.792 171.928 387.911 171.928M71.023 31.556C72.124 31.556 73.28 31.451 74.473 31.242 79.1 30.425 83.6 28.111 86.82 24.891 97.553 14.156 93.299 6.535 89.808 2.948L89.807 2.948C87.961 1.051 85.272.037 82.029.015 76.775-.046 70.835 2.576 66.619 6.79 59.411 13.999 57.711 23.592 62.749 28.629 64.664 30.544 67.58 31.556 71.023 31.556M67.682 65.789C72.015 65.789 76.949 64.206 79.815 61.34 85.163 55.993 85.942 48.302 81.59 43.829L81.591 43.829C77.588 39.716 66.35 43.093 61.678 47.314 58.184 50.47 57.386 53.663 57.332 55.787 57.26 58.595 58.422 61.407 60.517 63.504 62.072 65.059 64.738 65.789 67.682 65.789"/>
    <path d="M43.028,87.721 C53.844,86.099 57.355,83.95 59.03,82.987 C61.421,81.612 66.025,78.827 64.697,74.974 C63.755,72.244 60.45,72.231 54.638,73.063 C48.784,73.899 40.73,75.409 32.316,75.073 C28.108,74.905 20.82,72.966 20.35,66.905 C20.194,64.889 20.463,62.01 22.958,58.738 C30.418,48.952 40.969,46.551 47.574,43.098 C49.821,41.923 51.306,41.146 52.217,40.365 C55.167,37.837 56.202,33.212 54.735,30.381 C53.772,28.525 51.053,25.987 43.655,27.854 L43.654,27.854 C30.753,31.114 13.835,37.907 4.716,51.926 C-1.107,60.878 -0.581,68.903 1.241,73.11 C5.38,82.668 16.265,86.926 22.799,87.695 C27.74,88.277 35.356,88.871 43.028,87.721"/>
    <path d="M123.914 51.375C123.002 43.995 119.472 36.693 112.794 31.158 107.123 26.454 98.043 25.864 94.858 28.848 92.674 30.895 92.53 33.966 94.491 36.676 101.331 46.124 103.857 54.161 102.831 60.553 101.42 69.35 97.138 75.712 82.381 81.521 77.798 83.326 71.915 84.971 66.737 86.453 61.994 87.809 57.9 88.981 55.326 90.045 52.426 91.241 50.745 93.876 51.328 96.308 51.767 98.139 53.396 100.201 58.509 100.201 59.049 100.201 59.629 100.178 60.25 100.13 68.245 99.498 91.6 96.135 103.498 88.232 124.089 74.561 125.221 61.949 123.914 51.375M48.315 154.886C48.109 140.049 49.942 123.059 46.588 115.684 44.009 110.015 35.613 106 29.94 107.266 27.812 107.738 22.872 109.712 22.959 117.795 23.09 129.838 29.15 164.176 31.94 174.959 33.669 181.642 37.117 187.111 40.886 187.317 40.982 187.323 41.084 187.326 41.19 187.326 42.588 187.326 43.896 186.804 45.685 183.802 49.105 178.063 48.417 162.231 48.315 154.886M95.455 163.453C93.469 150.9 89.891 133.636 86.459 124.443 83.181 115.662 80.071 108.941 71.414 110.008 67.329 110.517 62.347 111.571 60.055 115.248 58.656 117.491 58.517 120.287 59.645 123.556 67.226 145.554 81.457 180.762 87.92 186.472 88.735 187.19 90.84 189.053 93.173 189.053 93.848 189.053 94.542 188.895 95.229 188.513 98.211 186.846 98.671 182.505 96.927 172.499 96.472 169.886 95.984 166.796 95.455 163.453"/>
  </g>
</svg>
