<?xml version="1.0" encoding="UTF-8"?>
<svg width="176px" height="39px" viewBox="0 0 176 39" version="1.1" xmlns="http://www.w3.org/2000/svg" xmlns:xlink="http://www.w3.org/1999/xlink">
    <!-- Generator: Sketch 59.1 (86144) - https://sketch.com -->
    <title>logo</title>
    <desc>Created with Sketch.</desc>
    <g id="Symbols" stroke="none" stroke-width="1" fill="none" fill-rule="evenodd">
        <g id="logo" fill="#FFFFFF">
            <g id="logo__text" transform="translate(0.777790, 1.559411)" fill-rule="nonzero">
                <g id="Group" transform="translate(54.445319, 0.000000)">
                    <path d="M9.41178087,12.421752 C8.89325402,12.6907505 7.74834673,12.959749 6.29984198,12.959749 C2.47207676,12.959749 0.147002362,10.5569558 0.147002362,6.88142295 C0.147002362,2.90102515 2.90167626,0.498491869 6.5860688,0.498491869 C8.03457356,0.498491869 9.07214578,0.803096911 9.51937519,1.03622893 L9.03636743,2.79316586 C8.46417305,2.54236051 7.67704929,2.32716173 6.67551468,2.32716173 C4.22495678,2.32716173 2.45444685,3.86915978 2.45444685,6.77382355 C2.45444685,9.42716218 4.01054593,11.1305593 6.65736624,11.1305593 C7.55156579,11.1305593 8.48180296,10.9514869 9.05399734,10.6824884 L9.41178087,12.421752 Z" id="Path"></path>
                    <path d="M11.577149,9.03263108 C11.6310758,10.6107555 12.8651697,11.2919584 14.2600069,11.2919584 C15.27969,11.2919584 16.0131462,11.1487525 16.6747865,10.8976872 L16.9967916,12.421752 C16.2457055,12.7263571 15.2081333,12.959749 13.9558909,12.959749 C11.1299196,12.959749 9.46674472,11.2204854 9.46674472,8.54895362 C9.46674472,6.1284871 10.9331387,3.85148645 13.7233316,3.85148645 C16.549303,3.85148645 17.4795401,6.1822868 17.4795401,8.10088272 C17.4795401,8.51308715 17.4435025,8.83614523 17.4079834,9.03289098 L11.577149,9.03289098 L11.577149,9.03263108 Z M15.4049142,7.49089293 C15.4225441,6.68415739 15.0650199,5.35735813 13.5983667,5.35735813 C12.2390485,5.35735813 11.6665949,6.59449123 11.577149,7.49089293 L15.4049142,7.49089293 Z" id="Shape"></path>
                    <path d="M18.3568876,6.64855083 C18.3568876,5.64428984 18.3389984,4.80168784 18.2853309,4.048752 L20.2173619,4.048752 L20.3244377,5.35761803 L20.3781052,5.35761803 C20.7535187,4.67615522 21.7013858,3.85174635 23.1504091,3.85174635 C24.6704705,3.85174635 26.2444588,4.83781421 26.2444588,7.59901213 L26.2444588,12.7806766 L24.0446086,12.7806766 L24.0446086,7.85007738 C24.0446086,6.59501104 23.57949,5.64480964 22.3811745,5.64480964 C21.5048641,5.64480964 20.8966321,6.27247276 20.6640728,6.93574245 C20.5925161,7.133008 20.5746269,7.40174658 20.5746269,7.65281182 L20.5746269,12.7806766 L18.3568876,12.7806766 L18.3568876,6.64855083 Z" id="Path"></path>
                    <path d="M30.12641,1.55603275 L30.12641,4.0484921 L32.2191844,4.0484921 L32.2191844,5.69782964 L30.12641,5.69782964 L30.12641,9.55295471 C30.12641,10.6107555 30.4128961,11.1664258 31.2536874,11.1664258 C31.6291009,11.1664258 31.9150684,11.1126261 32.1121086,11.0588264 L32.147887,12.7440304 C31.8256225,12.869563 31.2536874,12.9594891 30.5560095,12.9594891 C29.7512559,12.9594891 29.0712079,12.6904906 28.6600161,12.2421598 C28.1948975,11.7400293 27.9804867,10.9514869 27.9804867,9.80376005 L27.9804867,5.69782964 L26.7285036,5.69782964 L26.7285036,4.0484921 L27.9804867,4.0484921 L27.9804867,2.07609648 L30.12641,1.55603275 Z" id="Path"></path>
                    <path d="M32.9886783,6.86348971 C32.9886783,5.6801563 32.9710483,4.8375543 32.9176401,4.0484921 L34.8312634,4.0484921 L34.9025609,5.71576287 L34.9746361,5.71576287 C35.4034578,4.47862976 36.4226223,3.85122654 37.3528595,3.85122654 C37.5675296,3.85122654 37.6927538,3.86889987 37.8719049,3.90502624 L37.8719049,5.98476135 C37.6927538,5.94889488 37.4964914,5.91328832 37.2281538,5.91328832 C36.1729516,5.91328832 35.4571253,6.59449123 35.2606037,7.58081899 C35.224566,7.77808455 35.1887877,8.01095666 35.1887877,8.26202191 L35.1887877,12.7804167 L32.9889375,12.7804167 L32.9889375,6.86348971 L32.9886783,6.86348971 Z" id="Path"></path>
                    <path d="M39.8573442,9.03263108 C39.911271,10.6107555 41.1456241,11.2919584 42.5407206,11.2919584 C43.5598852,11.2919584 44.2933414,11.1487525 44.9552409,10.8976872 L45.2772461,12.421752 C44.5259007,12.7263571 43.488847,12.959749 42.2363454,12.959749 C39.4108926,12.959749 37.7471992,11.2204854 37.7471992,8.54895362 C37.7471992,6.1284871 39.2138524,3.85148645 42.0040454,3.85148645 C44.8300167,3.85148645 45.7599946,6.1822868 45.7599946,8.10088272 C45.7599946,8.51308715 45.7242162,8.83614523 45.6884379,9.03289098 L39.8573442,9.03289098 L39.8573442,9.03263108 Z M43.6851094,7.49089293 C43.7027393,6.68415739 43.3452151,5.35735813 41.8788211,5.35735813 C40.519503,5.35735813 39.9467901,6.59449123 39.8573442,7.49089293 L43.6851094,7.49089293 Z" id="Shape"></path>
                    <path d="M55.2757401,11.5788901 L55.2399617,11.5788901 C54.7214349,12.421752 53.8090869,12.9774223 52.5389554,12.9774223 C50.5898129,12.9774223 48.8908597,11.2742851 48.8908597,8.54869372 C48.8908597,5.35709823 50.929448,3.85122654 52.7899224,3.85122654 C54.0061271,3.85122654 54.864289,4.37103037 55.3294076,5.19569914 L55.3654452,5.21389227 L55.4191128,4.0484921 L57.5476655,4.0484921 C57.5116279,4.8375543 57.4758495,5.66222307 57.4758495,6.576558 L57.4758495,16.330157 L55.2759994,16.330157 L55.2759994,11.5788901 L55.2757401,11.5788901 Z M55.2757401,7.65229202 C55.2757401,7.4732196 55.2583695,7.27569415 55.2223318,7.11429506 C55.0255509,6.28962629 54.3281323,5.59049015 53.3444868,5.59049015 C51.9312419,5.59049015 51.1264882,6.79175679 51.1264882,8.44135423 C51.1264882,10.037152 51.8952043,11.2381587 53.2908193,11.2381587 C54.1850189,11.2381587 54.9179566,10.6645552 55.1689236,9.78608672 C55.2399617,9.57088794 55.2757401,9.31982269 55.2757401,9.10462391 L55.2757401,7.65229202 L55.2757401,7.65229202 Z" id="Shape"></path>
                    <path d="M66.7416651,10.1626846 C66.7416651,11.2025521 66.7777027,12.0633473 66.8134811,12.7804167 L64.8817093,12.7804167 L64.7743742,11.4536174 L64.7383366,11.4536174 C64.3629232,12.0812805 63.504502,12.9776822 61.9484029,12.9776822 C60.3565255,12.9776822 58.9075022,12.0274808 58.9075022,9.17661674 L58.9075022,4.048752 L61.1076116,4.048752 L61.1076116,8.80001887 C61.1076116,10.2523508 61.5722117,11.1846189 62.7350081,11.1846189 C63.6113185,11.1846189 64.1835129,10.5569558 64.4158129,10.0012855 C64.4876289,9.80401996 64.5412964,9.57088794 64.5412964,9.31956279 L64.5412964,4.0484921 L66.7408873,4.0484921 L66.7408873,10.1626846 L66.7416651,10.1626846 Z" id="Path"></path>
                    <path d="M69.7833436,9.03263108 C69.8370111,10.6107555 71.071105,11.2919584 72.4659423,11.2919584 C73.4856253,11.2919584 74.2193408,11.1487525 74.8807218,10.8976872 L75.2022085,12.421752 C74.4513816,12.7263571 73.4138093,12.959749 72.1618263,12.959749 C69.3358549,12.959749 67.6724208,11.2204854 67.6724208,8.54895362 C67.6724208,6.1284871 69.1393333,3.85148645 71.9295262,3.85148645 C74.754979,3.85148645 75.6854755,6.1822868 75.6854755,8.10088272 C75.6854755,8.51308715 75.6494379,8.83614523 75.6136595,9.03289098 L69.7833436,9.03289098 L69.7833436,9.03263108 Z M73.6105903,7.49089293 C73.628998,6.68415739 73.2709552,5.35735813 71.8045613,5.35735813 C70.4449839,5.35735813 69.8727895,6.59449123 69.7833436,7.49089293 L73.6105903,7.49089293 Z M74.6121249,0.265099951 L72.4122747,2.91895838 L70.8922133,2.91895838 L72.4485716,0.265099951 L74.6121249,0.265099951 Z" id="Shape"></path>
                    <path d="M76.4910069,12.7801568 C76.5267853,12.1883601 76.5625636,11.2204854 76.5625636,10.3238238 L76.5625636,0.0501610692 L78.7624138,0.0501610692 L78.7624138,5.24975874 L78.7984514,5.24975874 C79.3346082,4.40689683 80.2824753,3.85122654 81.5886444,3.85122654 C83.7169379,3.85122654 85.2372586,5.62635661 85.2193694,8.27995514 C85.2193694,11.417491 83.2339301,12.9774223 81.2666392,12.9774223 C80.1396211,12.9774223 79.1378273,12.5470247 78.5122246,11.4715506 L78.476187,11.4715506 L78.3691112,12.7804167 L76.4910069,12.7804167 L76.4910069,12.7801568 Z M78.7626731,9.17635684 C78.7626731,9.35568916 78.780303,9.53476157 78.8163406,9.69616066 C79.0486406,10.574889 79.8178752,11.2381587 80.7660016,11.2381587 C82.1432089,11.2381587 82.9840002,10.1268181 82.9840002,8.3696213 C82.9840002,6.82762325 82.2505439,5.57255691 80.7838907,5.57255691 C79.8899505,5.57255691 79.084419,6.21789336 78.834489,7.18602799 C78.7987107,7.34768698 78.7629323,7.54469263 78.7629323,7.75989141 L78.7629323,9.17635684 L78.7626731,9.17635684 Z" id="Shape"></path>
                    <path d="M87.6885943,9.03263108 C87.7422618,10.6107555 88.976615,11.2919584 90.3714522,11.2919584 C91.3911353,11.2919584 92.124073,11.1487525 92.7859725,10.8976872 L93.1077184,12.421752 C92.3566323,12.7263571 91.3193193,12.959749 90.0668177,12.959749 C87.2411056,12.959749 85.5776715,11.2204854 85.5776715,8.54895362 C85.5776715,6.1284871 87.0443247,3.85148645 89.8345177,3.85148645 C92.6607483,3.85148645 93.5904669,6.1822868 93.5904669,8.10088272 C93.5904669,8.51308715 93.5549478,8.83614523 93.5191695,9.03289098 L87.6885943,9.03289098 L87.6885943,9.03263108 Z M91.515841,7.49089293 C91.5334709,6.68415739 91.1759466,5.35735813 89.7095527,5.35735813 C88.3499753,5.35735813 87.7777809,6.59449123 87.688335,7.49089293 L91.515841,7.49089293 Z M92.5173756,0.265099951 L90.3177847,2.91895838 L88.797464,2.91895838 L90.3538223,0.265099951 L92.5173756,0.265099951 Z" id="Shape"></path>
                    <path d="M100.871102,12.5114182 C100.405984,12.7263571 99.4938951,12.959749 98.4026553,12.959749 C95.6845376,12.959749 93.9137684,11.2204854 93.9137684,8.51308715 C93.9137684,5.89535509 95.7021675,3.85148645 98.7606981,3.85148645 C99.5654518,3.85148645 100.388095,4.03081877 100.889251,4.26369088 L100.495689,5.91328832 C100.137646,5.75188923 99.6191193,5.57255691 98.8319956,5.57255691 C97.1509315,5.57255691 96.1491377,6.80969002 96.1672861,8.40548776 C96.1672861,10.1985511 97.3298233,11.2204854 98.8319956,11.2204854 C99.6014894,11.2204854 100.137646,11.0590863 100.566986,10.879754 L100.871102,12.5114182 Z" id="Path"></path>
                    <path d="M109.725467,8.33349493 C109.725467,11.5430237 107.471949,12.9774223 105.25421,12.9774223 C102.785763,12.9774223 100.88951,11.2742851 100.88951,8.47722069 C100.88951,5.60842338 102.767614,3.85148645 105.397064,3.85148645 C107.990217,3.85122654 109.725467,5.6798964 109.725467,8.33349493 Z M103.161436,8.42316109 C103.161436,10.108625 103.984078,11.3816246 105.325507,11.3816246 C106.57749,11.3816246 107.45406,10.1444915 107.45406,8.38729463 C107.45406,7.024369 106.845828,5.46469762 105.343137,5.46469762 C103.787297,5.46495752 103.161436,6.97108911 103.161436,8.42316109 Z" id="Shape"></path>
                    <path d="M112.981556,1.61009235 C112.981556,2.27310213 112.498549,2.79316586 111.729314,2.79316586 C110.996117,2.79316586 110.513368,2.27310213 110.513368,1.61009235 C110.513368,0.928629535 111.014006,0.408565807 111.747462,0.408565807 C112.498549,0.408825709 112.963408,0.928629535 112.981556,1.61009235 Z M110.638333,12.7801568 L110.638333,4.0484921 L112.856073,4.0484921 L112.856073,12.7801568 L110.638333,12.7801568 Z" id="Shape"></path>
                    <path d="M114.215909,10.7542213 C114.716806,11.0590863 115.664414,11.3818845 116.451538,11.3818845 C117.417553,11.3818845 117.846375,10.9873534 117.846375,10.4137498 C117.846375,9.82195319 117.48911,9.51708824 116.41576,9.14075027 C114.716547,8.54895362 114.00098,7.61642556 114.018869,6.59475114 C114.018869,5.05275309 115.289001,3.85148645 117.309959,3.85148645 C118.275715,3.85148645 119.116507,4.10255169 119.617144,4.37129027 L119.187804,5.93122155 C118.812391,5.71576287 118.114454,5.42909106 117.345997,5.42909106 C116.558873,5.42909106 116.129533,5.80568893 116.129533,6.34368589 C116.129533,6.89961608 116.540984,7.16861456 117.649854,7.56288576 C119.223842,8.13674919 119.957298,8.94374462 119.974928,10.2344175 C119.974928,11.812282 118.741093,12.959749 116.433908,12.959749 C115.378706,12.959749 114.43032,12.7086837 113.786828,12.3500191 L114.215909,10.7542213 Z" id="Path"></path>
                </g>
                <g id="Group" transform="translate(0.000000, 20.012447)">
                    <path d="M8.80614151,0.219877018 L8.80614151,10.4932798 C8.80614151,11.3902013 8.84191986,12.358336 8.87769822,12.9498727 L6.91014808,12.9498727 L6.8207022,11.5695336 L6.78518311,11.5695336 C6.26665626,12.5376683 5.21119485,13.1471383 3.94132259,13.1471383 C1.8664374,13.1471383 0.221151702,11.3717483 0.221151702,8.6822833 C0.203003262,5.76020609 2.02743999,4.02042269 4.11995509,4.02042269 C5.31852991,4.02042269 6.17695111,4.52281309 6.57051299,5.16840944 L6.60629134,5.16840944 L6.60629134,0.219357214 L8.80614151,0.219357214 L8.80614151,0.219877018 Z M6.60603208,7.85761453 C6.60603208,7.67854211 6.58840217,7.46334333 6.55262382,7.28401101 C6.35584288,6.42347578 5.65842426,5.72407973 4.65663038,5.72407973 C3.24364472,5.72407973 2.45678022,6.97940597 2.45678022,8.61107018 C2.45678022,10.206608 3.24390398,11.3717483 4.63900047,11.3717483 C5.53345929,11.3717483 6.32006452,10.7622783 6.53473464,9.81207692 C6.58866143,9.61507127 6.60629134,9.39935268 6.60629134,9.16674047 L6.60629134,7.85761453 L6.60603208,7.85761453 Z" id="Shape"></path>
                    <path d="M12.2947902,9.20286683 C12.3484577,10.7802115 13.5828109,11.4616744 14.9776481,11.4616744 C15.9973311,11.4616744 16.7305281,11.3184684 17.3921684,11.0671433 L17.7141735,12.5909482 C16.9628281,12.8958131 15.9255152,13.1289451 14.6735321,13.1289451 C11.8475608,13.1289451 10.1843859,11.3899414 10.1843859,8.71814976 C10.1843859,6.29768325 11.6510391,4.02042269 14.4412321,4.02042269 C17.2669441,4.02042269 18.1971813,6.35122304 18.1971813,8.26981896 C18.1971813,8.6822833 18.161403,9.00534138 18.1256246,9.20260693 L12.2947902,9.20260693 L12.2947902,9.20286683 Z M16.1225554,7.66086878 C16.1404446,6.85387334 15.782661,5.52733398 14.3162671,5.52733398 C12.956949,5.52733398 12.3844953,6.76420718 12.2950494,7.66086878 L16.1225554,7.66086878 Z" id="Shape"></path>
                    <path d="M34.0449175,4.21820805 C34.0093984,4.8094849 33.9733607,5.52707408 33.9733607,6.72834072 L33.9733607,11.6766132 C33.9733607,13.5052831 33.597688,14.814409 32.6858586,15.6393377 C31.7735106,16.4460732 30.5215275,16.6971385 29.3232119,16.6971385 C28.2143423,16.6971385 27.0336566,16.4642664 26.2825705,15.9980023 L26.765319,14.3304717 C27.3198835,14.6532698 28.2498614,14.9940013 29.3050635,14.9940013 C30.7359384,14.9940013 31.8090297,14.2410654 31.8090297,12.3580761 L31.8090297,11.6051402 L31.7732513,11.6051402 C31.2723544,12.3760093 30.3781548,12.896073 29.2335068,12.896073 C27.069435,12.896073 25.5312251,11.1035295 25.5312251,8.62900341 C25.5312251,5.760466 27.3911809,4.02094249 29.4839553,4.02094249 C30.8074951,4.02094249 31.5943596,4.66653884 32.0058106,5.38334832 L32.041589,5.38334832 L32.1310348,4.21846795 L34.0449175,4.21846795 L34.0449175,4.21820805 Z M31.7735106,7.71466848 C31.7735106,7.51714302 31.7556214,7.30246404 31.7019539,7.12313172 C31.4693946,6.31613629 30.8432734,5.7064064 29.9135548,5.7064064 C28.6794609,5.7064064 27.7671129,6.78266022 27.7671129,8.55779028 C27.7671129,10.0457287 28.518199,11.2472553 29.8954063,11.2472553 C30.7180492,11.2472553 31.4336162,10.7092583 31.6838054,9.92045601 C31.737473,9.6875839 31.7732513,9.38271896 31.7732513,9.13165371 L31.7732513,7.71466848 L31.7735106,7.71466848 Z" id="Shape"></path>
                    <path d="M37.4625279,9.20286683 C37.5159362,10.7802115 38.7502894,11.4616744 40.1453859,11.4616744 C41.1648096,11.4616744 41.8980066,11.3184684 42.5596469,11.0671433 L42.881652,12.5909482 C42.1305659,12.8958131 41.0932529,13.1289451 39.8407513,13.1289451 C37.0150393,13.1289451 35.3516051,11.3899414 35.3516051,8.71814976 C35.3516051,6.29768325 36.8179991,4.02042269 39.6084513,4.02042269 C42.4344226,4.02042269 43.3644005,6.35122304 43.3644005,8.26981896 C43.3644005,8.6822833 43.3286222,9.00534138 43.2928438,9.20260693 L37.4625279,9.20260693 L37.4625279,9.20286683 Z M41.2897746,7.66086878 C41.3074045,6.85387334 40.9498803,5.52733398 39.4832271,5.52733398 C38.1236497,5.52733398 37.5514553,6.76420718 37.4622687,7.66086878 L41.2897746,7.66086878 Z M42.2913092,0.435075802 L40.0914591,3.08867433 L38.5711383,3.08867433 L40.1269782,0.435075802 L42.2913092,0.435075802 Z" id="Shape"></path>
                    <path d="M44.7068666,6.81800688 C44.7068666,5.81400579 44.6889774,4.97114389 44.6350506,4.21820805 L46.5668224,4.21820805 L46.6744167,5.52707408 L46.7280842,5.52707408 C47.1034977,4.84561126 48.051624,4.02068259 49.500388,4.02068259 C51.0204495,4.02068259 52.5944378,5.00701035 52.5944378,7.76794837 L52.5944378,12.9498727 L50.3945876,12.9498727 L50.3945876,8.01927352 C50.3945876,6.76394728 49.9297283,5.81400579 48.7311535,5.81400579 C47.8548431,5.81400579 47.2466111,6.44140901 47.0140518,7.10467869 C46.9427543,7.30246404 46.9246059,7.57146252 46.9246059,7.82226787 L46.9246059,12.9498727 L44.7071258,12.9498727 L44.7071258,6.81800688 L44.7068666,6.81800688 Z" id="Path"></path>
                    <path d="M62.7902312,8.50347078 C62.7902312,11.7127396 60.5369728,13.1473982 58.3189742,13.1473982 C55.8505271,13.1473982 53.9547929,11.4437411 53.9547929,8.64693664 C53.9547929,5.77865913 55.8328972,4.02094249 58.4620876,4.02094249 C61.0552404,4.02094249 62.7902312,5.85013216 62.7902312,8.50347078 Z M56.2264591,8.59313694 C56.2264591,10.2786008 57.0491019,11.5513405 58.3905309,11.5513405 C59.642514,11.5513405 60.5188244,10.3142074 60.5188244,8.55727048 C60.5188244,7.19434485 59.9105924,5.63441357 58.4084201,5.63441357 C56.852321,5.63467347 56.2264591,7.14080506 56.2264591,8.59313694 Z" id="Shape"></path>
                    <path d="M64.1684756,6.81800688 C64.1684756,5.81400579 64.1505864,4.97114389 64.0966596,4.21820805 L65.9926531,4.21820805 L66.0820989,5.50940075 L66.1360257,5.50940075 C66.5648474,4.82793793 67.3522305,4.02068259 68.8186244,4.02068259 C69.9635317,4.02068259 70.857472,4.66627894 71.2331447,5.63441357 L71.2691823,5.63441357 C71.573039,5.15047621 71.9308226,4.79181157 72.3420143,4.54100622 C72.8250221,4.20027481 73.3793273,4.02068259 74.0946351,4.02068259 C75.5433991,4.02068259 77.0100523,5.00701035 77.0100523,7.80433464 L77.0100523,12.9498727 L74.8638697,12.9498727 L74.8638697,8.12713281 C74.8638697,6.67480093 74.3629727,5.81426569 73.3080299,5.81426569 C72.5566845,5.81426569 72.00212,6.35174285 71.76982,6.97966587 C71.7158932,7.19460475 71.6619664,7.46360323 71.6619664,7.71466848 L71.6619664,12.9501326 L69.5157837,12.9501326 L69.5157837,7.8942607 C69.5157837,6.67506083 69.032776,5.81426569 68.0136115,5.81426569 C67.1909686,5.81426569 66.6361449,6.45960214 66.4396232,7.06933203 C66.3501773,7.28427091 66.3141397,7.53533616 66.3141397,7.78666131 L66.3141397,12.9501326 L64.1682163,12.9501326 L64.1682163,6.81800688 L64.1684756,6.81800688 Z" id="Path"></path>
                    <path d="M81.2508242,1.7798083 C81.2508242,2.44333788 80.7678164,2.96314171 79.9985818,2.96314171 C79.2651256,2.96314171 78.7826364,2.44333788 78.7826364,1.7798083 C78.7826364,1.09860539 79.2835333,0.578541658 80.0167303,0.578541658 C80.7678164,0.578541658 81.2326757,1.09860539 81.2508242,1.7798083 Z M78.9078606,12.9498727 L78.9078606,4.21820805 L81.1255999,4.21820805 L81.1255999,12.9498727 L78.9078606,12.9498727 Z" id="Shape"></path>
                    <path d="M88.8887247,11.748866 L88.8532056,11.748866 C88.333901,12.5912081 87.4218122,13.1473982 86.1521992,13.1473982 C84.2025383,13.1473982 82.5030665,11.4437411 82.5030665,8.71866957 C82.5030665,5.52733398 84.5424326,4.02094249 86.4023884,4.02094249 C87.6188524,4.02094249 88.4767551,4.54126612 88.9423922,5.36593489 L88.977652,5.38334832 L89.0318381,4.21846795 L91.1601316,4.21846795 C91.1240939,5.00727025 91.0883156,5.83193902 91.0883156,6.74653385 L91.0883156,16.5003927 L88.8887247,16.5003927 L88.8887247,11.748866 L88.8887247,11.748866 Z M88.8887247,7.82226787 C88.8887247,7.64319545 88.8710948,7.44567 88.8350572,7.28427091 C88.6385355,6.45960214 87.9411169,5.7607259 86.9569529,5.7607259 C85.5442265,5.7607259 84.7392136,6.96173264 84.7392136,8.61158998 C84.7392136,10.2071278 85.5081889,11.4086544 86.9032854,11.4086544 C87.7980035,11.4086544 88.5312004,10.8347909 88.7813896,9.95632248 C88.8532056,9.74086379 88.8887247,9.48953864 88.8887247,9.27459976 L88.8887247,7.82226787 Z" id="Shape"></path>
                    <path d="M100.81925,10.3321406 C100.81925,11.3720082 100.854769,12.2330632 100.890547,12.9498727 L98.9592939,12.9498727 L98.8514403,11.6233333 L98.8161805,11.6233333 C98.43973,12.2509965 97.5818273,13.1473982 96.0257283,13.1473982 C94.4338508,13.1473982 92.9848275,12.1969369 92.9848275,9.34633269 L92.9848275,4.21846795 L95.1844184,4.21846795 L95.1844184,8.96973482 C95.1844184,10.4220667 95.649537,11.3543349 96.8123335,11.3543349 C97.6889031,11.3543349 98.2608383,10.7269316 98.4936568,10.1710015 C98.564695,9.973476 98.6183625,9.74060389 98.6183625,9.48927874 L98.6183625,4.21846795 L100.818472,4.21846795 L100.818472,10.3321406 L100.81925,10.3321406 Z" id="Path"></path>
                    <path d="M107.008905,11.4616744 C108.028329,11.4616744 108.761526,11.3184684 109.423684,11.0671433 L109.745171,12.5909482 C108.994085,12.8958131 107.956772,13.1289451 106.70427,13.1289451 C103.878817,13.1289451 102.215124,11.3899414 102.215124,8.71814976 C102.215124,6.29768325 103.681518,4.02042269 106.47197,4.02042269 C109.298201,4.02042269 110.227919,6.35122304 110.227919,8.26981896 C110.227919,8.6822833 110.1924,9.00534138 110.156881,9.20260693 L104.326306,9.20260693 C104.379974,10.7802115 105.614068,11.4616744 107.008905,11.4616744 Z M108.153294,7.66086878 C108.171701,6.85387334 107.813658,5.52733398 106.347264,5.52733398 C104.987687,5.52733398 104.414974,6.76420718 104.326047,7.66086878 L108.153294,7.66086878 Z" id="Shape"></path>
                    <path d="M124.519816,12.6808742 C124.054956,12.896073 123.142608,13.1294649 122.051628,13.1294649 C119.332992,13.1294649 117.562222,11.3904612 117.562222,8.6828031 C117.562222,6.06507104 119.350622,4.02094249 122.409411,4.02094249 C123.213906,4.02094249 124.036289,4.20053472 124.537446,4.43366673 L124.144143,6.08326417 C123.78636,5.92186508 123.267833,5.74227286 122.48045,5.74227286 C120.799904,5.74227286 119.797851,6.97966587 119.815481,8.57494381 C119.815481,10.368267 120.978537,11.3902013 122.48045,11.3902013 C123.249684,11.3902013 123.78636,11.2288022 124.215181,11.0494699 L124.519816,12.6808742 Z" id="Path"></path>
                    <polygon id="Path" points="125.71865 0.219877018 127.936389 0.219877018 127.936389 12.9498727 125.71865 12.9498727"></polygon>
                    <path d="M132.229532,1.7798083 C132.229532,2.44333788 131.746524,2.96314171 130.977549,2.96314171 C130.244093,2.96314171 129.761604,2.44333788 129.761604,1.7798083 C129.761604,1.09860539 130.26276,0.578541658 130.995698,0.578541658 C131.746265,0.578541658 132.211643,1.09860539 132.229532,1.7798083 Z M129.886569,12.9498727 L129.886569,4.21820805 L132.104308,4.21820805 L132.104308,12.9498727 L129.886569,12.9498727 Z" id="Shape"></path>
                    <path d="M134.036339,6.81800688 C134.036339,5.81400579 134.018968,4.97114389 133.965042,4.21820805 L135.896813,4.21820805 L136.003889,5.52707408 L136.057557,5.52707408 C136.432711,4.84561126 137.381097,4.02068259 138.829861,4.02068259 C140.350181,4.02068259 141.92391,5.00701035 141.92391,7.76794837 L141.92391,12.9498727 L139.72406,12.9498727 L139.72406,8.01927352 C139.72406,6.76394728 139.259201,5.81400579 138.060885,5.81400579 C137.184575,5.81400579 136.576602,6.44140901 136.343784,7.10467869 C136.272486,7.30246404 136.254078,7.57146252 136.254078,7.82226787 L136.254078,12.9498727 L134.036339,12.9498727 L134.036339,6.81800688 Z" id="Path"></path>
                    <path d="M146.182312,1.7798083 C146.182312,2.44333788 145.699045,2.96314171 144.92981,2.96314171 C144.196354,2.96314171 143.713865,2.44333788 143.713865,1.7798083 C143.713865,1.09860539 144.215021,0.578541658 144.948218,0.578541658 C145.699045,0.578541658 146.163904,1.09860539 146.182312,1.7798083 Z M143.839089,12.9498727 L143.839089,4.21820805 L146.056829,4.21820805 L146.056829,12.9498727 L143.839089,12.9498727 Z" id="Shape"></path>
                    <path d="M153.819435,11.748866 L153.783397,11.748866 C153.26513,12.5912081 152.352522,13.1473982 151.082909,13.1473982 C149.133508,13.1473982 147.434036,11.4437411 147.434036,8.71866957 C147.434036,5.52733398 149.473143,4.02094249 151.333358,4.02094249 C152.549044,4.02094249 153.408243,4.54126612 153.873102,5.36593489 L153.908881,5.38334832 L153.962548,4.21846795 L156.090842,4.21846795 C156.055323,5.00727025 156.019285,5.83193902 156.019285,6.74653385 L156.019285,16.5003927 L153.819694,16.5003927 L153.819694,11.748866 L153.819435,11.748866 Z M153.819435,7.82226787 C153.819435,7.64319545 153.801027,7.44567 153.765767,7.28427091 C153.568727,6.45960214 152.871568,5.7607259 151.887922,5.7607259 C150.475196,5.7607259 149.669664,6.96173264 149.669664,8.61158998 C149.669664,10.2071278 150.439158,11.4086544 151.834514,11.4086544 C152.728454,11.4086544 153.461651,10.8347909 153.712359,9.95632248 C153.783397,9.74086379 153.819435,9.48953864 153.819435,9.27459976 L153.819435,7.82226787 Z" id="Shape"></path>
                    <path d="M165.750219,10.3321406 C165.750219,11.3720082 165.786516,12.2330632 165.821517,12.9498727 L163.890004,12.9498727 L163.782928,11.6233333 L163.746631,11.6233333 C163.371477,12.2509965 162.512537,13.1473982 160.956438,13.1473982 C159.364561,13.1473982 157.916056,12.1969369 157.916056,9.34633269 L157.916056,4.21846795 L160.115906,4.21846795 L160.115906,8.96973482 C160.115906,10.4220667 160.581025,11.3543349 161.743044,11.3543349 C162.619354,11.3543349 163.192067,10.7269316 163.424626,10.1710015 C163.496183,9.973476 163.54985,9.74060389 163.54985,9.48927874 L163.54985,4.21846795 L165.749441,4.21846795 L165.749441,10.3321406 L165.750219,10.3321406 Z" id="Path"></path>
                    <path d="M169.256757,9.20286683 C169.310424,10.7802115 170.544778,11.4616744 171.940133,11.4616744 C172.959557,11.4616744 173.692754,11.3184684 174.354135,11.0671433 L174.67614,12.5909482 C173.925313,12.8958131 172.887741,13.1289451 171.635758,13.1289451 C168.809527,13.1289451 167.146612,11.3899414 167.146612,8.71814976 C167.146612,6.29768325 168.613006,4.02042269 171.403199,4.02042269 C174.22917,4.02042269 175.159407,6.35122304 175.159407,8.26981896 C175.159407,8.6822833 175.12311,9.00534138 175.087332,9.20260693 L169.256757,9.20260693 L169.256757,9.20286683 Z M173.084522,7.66086878 C173.102411,6.85387334 172.744368,5.52733398 171.277715,5.52733398 C169.918397,5.52733398 169.346462,6.76420718 169.256757,7.66086878 L173.084522,7.66086878 Z" id="Shape"></path>
                </g>
            </g>
            <g id="logo__mark">
                <path d="M4.98148746,2.69466303 C4.98148746,5.46859615 4.98148746,8.084249 4.9804504,10.6988622 C4.97967261,11.0544081 5.0102657,11.4143722 4.9571167,11.7652398 C4.89800463,12.1485951 4.66337123,12.4282496 4.07873221,12.3861455 C3.66754042,12.3562567 3.4287588,12.2982986 3.30016414,11.8824556 C3.13968008,11.3657706 3.01367806,10.8657193 3.0154929,10.3352595 C3.02456712,8.06579596 2.99864078,5.79763197 3.03156723,3.52764866 C3.04167851,2.83189124 3.01808554,2.31234732 1.8423259,2.33989692 C0.894718081,2.36250839 0.192632725,1.99578679 0.258744899,1.13135303 C0.322264438,0.273676714 1.04612792,0.0480818539 2.0074767,0.0526892216 C6.1989885,0.068614105 9.62178425,1.34265328 12.2610859,3.93023673 C12.8522065,4.50929819 13.1472483,5.14189944 12.3956436,5.70978512 C11.6722987,6.25687865 10.8618412,6.12198956 10.1740153,5.56372025 C10.1112736,5.23884286 6.84585075,3.18639745 4.98148746,2.69466303 Z" id="Path"></path>
                <path d="M33.5450576,5.96214988 C33.7433941,6.12120985 33.7470238,6.27819061 33.5403908,6.43569117 C33.5424649,6.2776708 33.5440205,6.12017024 33.5450576,5.96214988 Z" id="Path"></path>
                <path d="M36.3948811,3.53856454 C36.2517677,3.01174337 35.3523829,2.71909381 34.9935623,2.50337522 C34.6342232,2.28765664 30.2731531,0.545014311 27.5866655,0.308503571 C20.3721422,-0.326176901 14.7056808,2.69102441 12.3837175,8.1798929 C11.9025246,9.31826328 11.0285476,10.4171286 9.60078391,11.5627762 C9.56189439,9.59012068 9.52948647,7.91999099 9.49604148,6.24908159 C9.43718869,6.15109857 9.37729884,6.05337545 9.31844604,5.95721174 C8.08979667,5.50628193 7.64567842,5.99437772 7.62052986,6.89051951 C7.599011,7.73468093 7.64464136,8.57988195 7.6656417,9.42404336 C7.77686571,13.9603713 7.78023614,13.9731065 2.02743999,14.5272174 C1.05157245,14.6207821 0.346894463,14.8801642 0.37385786,15.7045731 C0.402895363,16.6053931 1.19313028,16.8775104 2.23225809,16.8356662 C3.81143162,16.7704308 5.3462711,16.5567915 6.82899863,16.0868888 C11.1405494,14.7200646 13.4879204,11.9752405 15.0782423,8.71555074 C15.6040285,7.63929692 16.2856321,6.66830338 17.4489471,5.66456219 C17.487318,7.61642556 17.5212816,9.37128327 17.5562821,11.126141 C17.7896192,11.6147566 18.1295136,12.0386566 18.8938221,11.8725793 C19.6882053,11.6992247 19.5736108,11.1341979 19.5663515,10.6572779 C19.5412029,8.75297662 19.5528698,6.84659609 19.4411272,4.9461933 C19.3944598,4.14205678 19.8123924,3.69840422 20.6537023,3.39197986 C22.2064309,2.82539369 23.8480869,2.65567775 25.5379659,2.56887051 C26.629465,2.51273169 26.8594316,2.84982447 26.8643576,3.6136762 C26.8799134,6.31249766 26.948359,9.01027951 27.0165453,11.7088411 C27.0274343,12.2036943 26.770245,12.8266792 27.7305567,12.9987343 C28.2638616,13.0972371 28.6457566,13.0114695 28.686461,12.5067399 C28.9345761,12.2580138 27.7870762,4.88823518 28.6296823,3.15754834 C30.7644573,2.81447781 32.2648148,3.7225751 33.7107269,4.73957128 C36.522698,6.27351237 36.4179556,4.34633969 36.4179556,4.34633969 C36.4179556,4.34633969 36.5369575,4.06590552 36.3948811,3.53856454 Z" id="Path" fill-rule="nonzero"></path>
                <path d="M46.038962,14.0588742 C46.038962,11.285201 46.038962,8.6692882 46.0397398,6.05519477 C46.0402584,5.69938905 46.0096653,5.3394249 46.0628143,4.98855731 C46.1221856,4.6054619 46.3570783,4.32528763 46.9411988,4.36765165 C47.3526498,4.39780027 47.5911722,4.45523859 47.7200261,4.87134155 C47.8802509,5.38828646 48.0062529,5.88703823 48.0044381,6.41879754 C47.9951046,8.68800114 48.0212902,10.9561651 47.9883637,13.2256286 C47.9782525,13.9213861 48.0015862,14.4417097 49.1770865,14.4139002 C50.1254722,14.3910288 50.8267797,14.7572306 50.7614453,15.6219243 C50.697148,16.4798605 49.9740623,16.7054553 49.0116765,16.700848 C44.8209425,16.6849231 41.3981467,15.4111438 38.7591043,12.8233005 C38.1679837,12.2444989 37.8732012,11.6118977 38.6240281,11.0437521 C39.3478916,10.4969185 40.1580898,10.6312877 40.8459156,11.1900769 C40.9091759,11.5149542 44.1753765,13.5671398 46.038962,14.0588742 Z" id="Path"></path>
                <path d="M14.7290145,13.5094415 C14.8710908,14.0362627 15.7704756,14.3304717 16.1292962,14.5464502 C16.4883761,14.7621687 20.847372,16.5087096 23.5341189,16.7475595 C30.7481237,17.3892573 36.4171778,14.3767342 38.744067,8.88942512 C39.2268155,7.75235426 40.1010518,6.65400877 41.5303711,5.51018045 C41.5671865,7.48231617 41.5982981,9.15192606 41.629669,10.8230954 C41.688781,10.9208185 41.7489301,11.0190614 41.8080422,11.115485 C43.036173,11.5669346 43.480032,11.0798784 43.5062176,10.1834767 C43.5285143,9.33931534 43.4836617,8.49437422 43.4634392,7.6502128 C43.3558449,3.11362492 43.3527337,3.10036992 49.1063076,2.55119718 C50.0821752,2.458932 50.7873717,2.2005895 50.7611861,1.37592073 C50.7334449,0.475100697 49.9426914,0.202203688 48.9033044,0.242748387 C47.3246494,0.306684257 45.7898099,0.519284022 44.3068231,0.987627269 C39.9937168,2.3508128 37.6432345,5.09381759 36.0500608,8.35168807 C35.523756,9.42690228 34.8411154,10.3981557 33.6767634,11.4005974 C33.6402072,9.44847414 33.6070215,7.69387633 33.5746136,5.93927851 C33.3420543,5.44962331 33.00216,5.02598319 32.2378514,5.19180061 C31.4437275,5.36411558 31.5572849,5.92888244 31.5645443,6.40606235 C31.587878,8.31062356 31.5743963,10.2162244 31.6845832,12.1166272 C31.7309914,12.9210236 31.3120217,13.3641564 30.4709711,13.6703208 C28.9169462,14.2356075 27.2752902,14.403764 25.5856704,14.4887519 C24.4939121,14.5443709 24.2639455,14.2070183 24.2603158,13.4434264 C24.2473526,10.7440852 24.1809812,8.04604342 24.1156468,5.34748186 C24.1039799,4.85262861 24.3622063,4.23016353 23.4016353,4.05758866 C22.868849,3.95856603 22.4877317,4.04355396 22.4459903,4.54854338 C22.1978752,4.79700961 23.3381158,12.1678279 22.4944726,13.8974751 C20.3596975,14.2384664 18.8595994,13.3288097 17.4147243,12.3110338 C14.6043088,10.7747536 14.7069771,12.7019263 14.7069771,12.7019263 C14.7069771,12.7019263 14.5866788,12.9821005 14.7290145,13.5094415 Z" id="Path" fill-rule="nonzero"></path>
            </g>
        </g>
    </g>
</svg>