<svg xmlns="http://www.w3.org/2000/svg" viewBox="0 0 246.31 66.68">
  <title>Logo bilingue</title>
  <g id="Calque_2" data-name="Calque 2">
    <g id="Logo_bilingue" data-name="Logo bilingue">
      <g>
        <g>
          <g>
            <path d="M79,33.32c0-1.1,0-3.48,0-3.76,0-.9-.13-1.14-.79-1.14h-.84c-.08,0-.1,0-.1-.15v-.42c0-.09,0-.12.14-.12.36,0,.93.05,2.5.05,1.39,0,2-.05,2.37-.05.12,0,.17,0,.17.09v.45c0,.11,0,.15-.14.15h-.91c-.6,0-.69.3-.69,1,0,.25,0,2.57,0,3.56v.3c0,.09.06.14.22.14h6.59c.27,0,.36,0,.36-.26V33c0-1-.06-3.45-.06-3.66,0-.57-.07-.9-.58-.9h-.93c-.09,0-.13,0-.13-.13v-.46c0-.07,0-.1.11-.1.37,0,1.14.05,2.35.05s2-.05,2.28-.05c.13,0,.15,0,.15.14v.42c0,.11,0,.13-.15.13h-.8c-.51,0-.57.3-.57.93,0,.25,0,3.23,0,3.88v.6c0,.56,0,3.91.05,4.92,0,.63.18.88.71.88H91c.12,0,.16,0,.16.12v.42c0,.11,0,.14-.14.14-.34,0-1-.05-2.25-.05-1.55,0-2.12.05-2.66.05-.07,0-.1-.05-.1-.12v-.44c0-.09,0-.12.14-.12h1.12c.43,0,.48-.34.48-.81,0-.83.06-3.67.06-4.3v-.25c0-.2-.09-.21-.4-.21H80.93c-.19,0-.25,0-.25.17v.37c0,.48,0,3.19,0,4.43,0,.42.19.6.57.6h.87c.11,0,.14,0,.14.12v.44c0,.09,0,.12-.14.12-.34,0-1-.05-2.24-.05-1.54,0-2.07.05-2.48.05-.09,0-.13,0-.13-.12v-.46c0-.07.06-.1.13-.1h1c.45,0,.5-.43.5-.85,0-.83.05-4.25.05-4.71Z" style="fill: #211f20"/>
            <path d="M92.45,39.26A3.91,3.91,0,0,1,93,33.55a3.85,3.85,0,0,1,2.39-.85,3.76,3.76,0,0,1,2.49,1,3.91,3.91,0,0,1,1.21,2.88,4,4,0,0,1-3.93,3.87A3.59,3.59,0,0,1,92.45,39.26Zm5.15-2.84c0-2-1.45-3.19-2.36-3.19a1.72,1.72,0,0,0-1.37.56,3.47,3.47,0,0,0-.94,2.77A3.77,3.77,0,0,0,93.6,39a2,2,0,0,0,1.77.92C96.72,40,97.6,38.31,97.6,36.42ZM95.23,30.3l-1.8,1.34c-.06,0-.11.07-.16,0l-.16-.16s0-.1,0-.18L95,29c.07-.08.14-.16.21-.16s.16.08.24.17l2,2.31c0,.06.07.11,0,.14l-.14.16c0,.06-.09.07-.16,0Z" style="fill: #211f20"/>
            <path d="M100.81,35.27c0-.42-.13-.67-.65-1l-.41-.23c-.12-.05-.12-.1-.12-.16v-.14s0-.09.12-.12l1.71-.85a1.11,1.11,0,0,1,.41-.14c.09,0,.13.09.13.35l.07.85h.05a3.3,3.3,0,0,1,2.61-1.18,2.87,2.87,0,0,1,2,.86,3.43,3.43,0,0,1,1,2.75,3.94,3.94,0,0,1-3.85,4.16,5.08,5.08,0,0,1-1.78-.3v3.72c0,.5.12.59.39.59h.78c.15,0,.17.07.17.17V45c0,.11,0,.16-.17.16s-.69,0-1.83,0-1.66,0-1.8,0-.16,0-.16-.16v-.32c0-.08,0-.15.21-.15h.7c.3,0,.34-.18.37-.45s.06-1.33.06-3.06Zm1.28,3.23a1,1,0,0,0,.37.93,2.86,2.86,0,0,0,1.79.48c1,0,2.06-.76,2.06-2.94,0-2.47-1.12-3.46-2.31-3.46a2.26,2.26,0,0,0-1.91,1.13Z" style="fill: #211f20"/>
            <path d="M109.93,35.13c0-.6-.11-.91-1-1.06-.12,0-.16,0-.16-.12v-.16s0-.09.13-.12a14.57,14.57,0,0,0,1.92-.86.74.74,0,0,1,.34-.11c.09,0,.11.09.09.21,0,.3,0,1.41,0,2.87v1.93c0,.68,0,1.32,0,1.51,0,.34.09.46.29.46h.82c.14,0,.17,0,.17.16v.3c0,.12,0,.17-.16.17s-1-.05-1.71-.05c-1,0-1.73.05-1.92.05s-.14,0-.14-.14v-.35c0-.1,0-.14.17-.14h.88c.19,0,.26-.07.28-.35,0-.53,0-1.08,0-1.61Zm-.8-5.37a1,1,0,0,1,1.09-.92.88.88,0,0,1,.92.86,1,1,0,0,1-1,1A1,1,0,0,1,109.13,29.76Z" style="fill: #211f20"/>
            <path d="M115.39,38.06c0,1.32.6,1.55.92,1.55a2.59,2.59,0,0,0,1.18-.23.14.14,0,0,1,.21,0l.09.15a.15.15,0,0,1,0,.2,3,3,0,0,1-2,.7A1.8,1.8,0,0,1,114.05,39c0-.73,0-2.28,0-2.53v-.38c0-.32,0-1.5,0-2.24h-1.09c-.16,0-.27-.07-.27-.21s.11-.2.32-.32a8.11,8.11,0,0,0,2-2.22.24.24,0,0,1,.25-.18c.14,0,.17.12.17.27l-.09,1.74H118a.12.12,0,0,1,.13.16l-.18.62c0,.09-.06.14-.16.14h-2.3c0,.81,0,1.65,0,2.47Z" style="fill: #211f20"/>
            <path d="M124,38c0,1,.17,1.35.5,1.36a.86.86,0,0,0,.64-.24c.07-.09.11-.13.18-.07l.17.15c.06.05.09.15,0,.32a1.49,1.49,0,0,1-1.44.82,1.34,1.34,0,0,1-1.24-1.23h0a3.81,3.81,0,0,1-1.82,1,3.41,3.41,0,0,1-1.07.07c-.43,0-1.07-.39-1-1.52,0-.82.44-1.52,1.88-2.09a12,12,0,0,0,2.08-1l0-1.14a2.14,2.14,0,0,0-.22-1,1.43,1.43,0,0,0-1.07-.43,2.07,2.07,0,0,0-1.18.34c-.26.22-.11.49-.12.82,0,.62-.25,1-1,1-.29,0-.43-.18-.42-.59A2.23,2.23,0,0,1,120.12,33a4,4,0,0,1,2.22-.55,1.84,1.84,0,0,1,1.42.53,1.58,1.58,0,0,1,.36,1.28l-.1,2.73Zm-1.25-1.84c-.67.46-2.45.75-2.5,2.23a.89.89,0,0,0,.9,1c.53,0,1.5-.58,1.52-1.06Z" style="fill: #211f20"/>
            <path d="M128.75,35c0,.92,0,3.58,0,4.12,0,.3.09.55.47.55h.8c.16,0,.19,0,.19.16v.3c0,.1,0,.17-.1.17s-.91-.05-2-.05-1.85.05-2,.05-.13-.07-.13-.17v-.3c0-.12,0-.16.24-.16h.85c.2,0,.38-.12.39-.44,0-.55,0-3.58,0-4.6V33.53c0-1.25,0-2.86,0-3.32a1.06,1.06,0,0,0-.89-1.05l-.36-.13c-.09,0-.11-.05-.11-.09V28.8c0-.05.06-.08.16-.12a16,16,0,0,0,2.09-1,.63.63,0,0,1,.37-.14c.13,0,.16.09.15.31,0,1-.08,4.64-.08,5.61Z" style="fill: #211f20"/>
            <path d="M136,44.49a1.59,1.59,0,0,1-.91-1.42c0-1,1-1.75,1.87-2.12v-.07a1.37,1.37,0,0,1-1.19-1.23c0-.85,1-1.45,1.6-1.68v0a2.74,2.74,0,0,1,1.39-5.24,2.9,2.9,0,0,1,2.25,1,3.2,3.2,0,0,1,1.67-.69c.59,0,.88.39.84.75a.67.67,0,0,1-.7.65.86.86,0,0,1-.62-.27.73.73,0,0,0-.37-.16,1.25,1.25,0,0,0-.57.11,3.34,3.34,0,0,1,.26,1.34,2.83,2.83,0,0,1-.66,1.9,3.17,3.17,0,0,1-3,.8c-.36.14-1,.49-1,1,0,.73.89.67,2.09.6a4.34,4.34,0,0,1,3.06.64,2.07,2.07,0,0,1,.88,1.69,2.52,2.52,0,0,1-1.2,2.17,5.43,5.43,0,0,1-3.05.83A5.56,5.56,0,0,1,136,44.49Zm5.88-1.81c0-1-.8-1.84-2.58-1.71l-1.72.12a1.89,1.89,0,0,0-1.42,1.69,1.72,1.72,0,0,0,.69,1.22,4.11,4.11,0,0,0,2.5.49C140,44.49,142,44,141.89,42.68Zm-1.66-7.51a2.17,2.17,0,0,0-.48-1.59,1.35,1.35,0,0,0-.86-.39,1.63,1.63,0,0,0-1.26.5,2.9,2.9,0,0,0-.64,2.08,2.15,2.15,0,0,0,.57,1.53,1.46,1.46,0,0,0,1.07.44C139.84,37.74,140.23,36.28,140.23,35.17Z" style="fill: #211f20"/>
            <path d="M145.19,35.57a4,4,0,0,0-.06.85,2.76,2.76,0,0,0,2.53,3,2.42,2.42,0,0,0,2.16-1.2.16.16,0,0,1,.16-.09l.23.13c.06,0,.09.07,0,.26a3.19,3.19,0,0,1-2.83,1.92,3.28,3.28,0,0,1-2.8-1.25,4.17,4.17,0,0,1-.78-2.78,4,4,0,0,1,1.12-2.81,3.35,3.35,0,0,1,2.55-.93,2.64,2.64,0,0,1,2.62,2.59c0,.25-.22.28-.5.28ZM148,35c.34,0,.48-.08.48-.24,0-.41-.21-1.57-1.37-1.57-.78,0-1.53.51-1.87,1.81Zm-1.71-3.52a.07.07,0,0,1,0-.11L148,29.32a1,1,0,0,1,.75-.45c.48,0,.89.67.2,1.17l-2.34,1.66a.08.08,0,0,1-.11,0Z" style="fill: #211f20"/>
            <path d="M158.25,39.31c0,.28.16.37.39.37h.57c.16,0,.2,0,.2.16v.28c0,.12,0,.19-.14.19s-.68-.05-1.7-.05-1.48.05-1.6.05-.14-.05-.14-.19v-.28c0-.12,0-.16.23-.16h.52c.19,0,.34-.09.35-.41s0-1,0-1.48V35.47c0-.71,0-1.22-.52-1.59a2,2,0,0,0-1.3-.32,2.12,2.12,0,0,0-1.44.69,1.7,1.7,0,0,0-.41,1.2V39.1c0,.47,0,.58.42.58h.45c.14,0,.18,0,.18.18v.3c0,.1,0,.15-.13.15s-.6-.05-1.55-.05-1.48.05-1.58.05-.13-.05-.13-.15v-.32c0-.11,0-.16.18-.16h.52c.23,0,.35,0,.35-.35V35.2a1.08,1.08,0,0,0-.73-1l-.14-.07C151,34,151,34,151,33.93v-.08a.2.2,0,0,1,.16-.18l1.53-.85a.92.92,0,0,1,.32-.12c.09,0,.13.07.14.21l.13,1.08h0a3.55,3.55,0,0,1,2.44-1.29,2.79,2.79,0,0,1,1.51.39,2.53,2.53,0,0,1,1,1.67Z" style="fill: #211f20"/>
            <path d="M161.3,35.57a4.23,4.23,0,0,0-.05.85,2.76,2.76,0,0,0,2.53,3,2.4,2.4,0,0,0,2.15-1.2.16.16,0,0,1,.16-.09l.24.13s.08.07,0,.26a3.21,3.21,0,0,1-2.84,1.92,3.29,3.29,0,0,1-2.8-1.25,4.17,4.17,0,0,1-.78-2.78A4,4,0,0,1,161,33.63a3.35,3.35,0,0,1,2.55-.93,2.64,2.64,0,0,1,2.62,2.59c0,.25-.21.28-.5.28Zm2.83-.53c.34,0,.49-.08.49-.24,0-.41-.22-1.57-1.38-1.57-.78,0-1.53.51-1.87,1.81Zm-1.71-3.52a.08.08,0,0,1,0-.11l1.71-2.09a1,1,0,0,1,.75-.45c.48,0,.89.67.2,1.17l-2.34,1.66a.07.07,0,0,1-.1,0Z" style="fill: #211f20"/>
            <path d="M168.25,35.57c0-.9-.14-1.07-.64-1.34l-.34-.17c-.11,0-.14-.06-.14-.13v-.1c0-.07,0-.11.14-.16l1.77-.9a.53.53,0,0,1,.24-.07c.11,0,.13.11.13.21l.09,1.22h.07a3,3,0,0,1,2.14-1.54.81.81,0,0,1,.91.78.85.85,0,0,1-.75.86,1.17,1.17,0,0,1-.52-.14,1.12,1.12,0,0,0-.59-.14,1.27,1.27,0,0,0-1,.74,2.16,2.16,0,0,0-.18.57V39c0,.54.13.72.5.72h.84c.11,0,.13,0,.13.16v.32c0,.1,0,.15-.09.15s-.93-.05-1.89-.05c-1.11,0-1.86.05-2,.05s-.11,0-.11-.17v-.3c0-.12,0-.16.2-.16h.69c.27,0,.39-.11.39-.33,0-.59,0-1.2,0-2.12Z" style="fill: #211f20"/>
            <path d="M178.52,38c0,1,.17,1.35.5,1.36a.85.85,0,0,0,.64-.24c.07-.09.11-.13.18-.07l.18.15c0,.05.08.15,0,.32a1.49,1.49,0,0,1-1.44.82,1.34,1.34,0,0,1-1.24-1.23h0a3.81,3.81,0,0,1-1.82,1,3.41,3.41,0,0,1-1.07.07c-.43,0-1.07-.39-1-1.52,0-.82.44-1.52,1.88-2.09a12,12,0,0,0,2.08-1l0-1.14a2.14,2.14,0,0,0-.22-1,1.41,1.41,0,0,0-1.07-.43,2.07,2.07,0,0,0-1.18.34c-.26.22-.11.49-.12.82,0,.62-.25,1-1,1-.29,0-.43-.18-.42-.59A2.23,2.23,0,0,1,174.66,33a4,4,0,0,1,2.22-.55,1.89,1.89,0,0,1,1.43.53,1.61,1.61,0,0,1,.35,1.28l-.1,2.73Zm-1.25-1.84c-.67.46-2.45.75-2.5,2.23a.89.89,0,0,0,.91,1c.52,0,1.5-.58,1.51-1.06Z" style="fill: #211f20"/>
            <path d="M183.3,35c0,.92,0,3.58,0,4.12,0,.3.09.55.47.55h.8c.16,0,.19,0,.19.16v.3c0,.1,0,.17-.1.17s-.91-.05-2-.05-1.85.05-2,.05-.12-.07-.12-.17v-.3c0-.12,0-.16.23-.16h.85c.2,0,.38-.12.39-.44,0-.55,0-3.58,0-4.6V33.53c0-1.25,0-2.86,0-3.32a1.06,1.06,0,0,0-.89-1.05l-.36-.13c-.09,0-.11-.05-.11-.09V28.8c0-.05.06-.08.17-.12a16.55,16.55,0,0,0,2.08-1,.63.63,0,0,1,.37-.14c.13,0,.16.09.15.31,0,1-.07,4.64-.07,5.61Z" style="fill: #211f20"/>
            <path d="M191.12,35.48c0-.77-.14-.95-.87-1.23l-.18-.07c-.09,0-.11-.07-.11-.12V33.9s0-.09.14-.14a8.32,8.32,0,0,0,1.93-.94.52.52,0,0,1,.34-.12c.09,0,.14.12.1.3s-.07,1.39-.07,3v2.2a25,25,0,0,1-.25,3.9c-.39,2-1.67,3-3,3a.94.94,0,0,1-1-.83c0-.28.27-.74.64-.74a1.34,1.34,0,0,1,1,.54c.18.2.3.27.41.27.45,0,.8-.48.89-1.55s.09-2.52.09-3.77Z" style="fill: #211f20"/>
            <path d="M200.87,36.68c0,.85,0,1.71,0,2.08.05.55.25.62.46.62a2.78,2.78,0,0,0,.59-.05c.14,0,.2,0,.22.07l0,.23c0,.1,0,.14-.09.16l-1.87.61a1,1,0,0,1-.36.07c-.07,0-.14,0-.16-.21l-.14-1h0a3.25,3.25,0,0,1-2.42,1.23,1.87,1.87,0,0,1-1.68-.81c-.73-.93-.69-1.51-.69-3.45V34.16c0-.49-.27-.61-.68-.67s-.39,0-.39-.12v-.32c0-.1,0-.14.2-.14h1.58a1.42,1.42,0,0,0,.25,0l.2,0a.18.18,0,0,1,.19.21c0,.16-.07,1-.07,2v1.25a4.42,4.42,0,0,0,.39,2.64,1.5,1.5,0,0,0,1.43.67,2.47,2.47,0,0,0,1.53-.88,1,1,0,0,0,.18-.47v-4.2c0-.49-.32-.58-.77-.62-.3,0-.39,0-.39-.12v-.3c0-.14,0-.16.22-.16h1.65a2.32,2.32,0,0,0,.31,0l.21,0A.15.15,0,0,1,201,33a14.85,14.85,0,0,0-.11,2.35Z" style="fill: #211f20"/>
            <path d="M204.21,35.13c0-.6-.11-.91-1-1.06-.12,0-.16,0-.16-.12v-.16s0-.09.12-.12a14.65,14.65,0,0,0,1.93-.86.74.74,0,0,1,.34-.11c.09,0,.1.09.09.21,0,.3,0,1.41,0,2.87v1.93c0,.68,0,1.32,0,1.51,0,.34.09.46.28.46h.82c.15,0,.18,0,.18.16v.3c0,.12,0,.17-.16.17s-1-.05-1.71-.05c-1,0-1.73.05-1.92.05s-.15,0-.15-.14v-.35c0-.1.06-.14.18-.14h.88c.19,0,.26-.07.28-.35,0-.53,0-1.08,0-1.61Zm-.8-5.37a1,1,0,0,1,1.08-.92.88.88,0,0,1,.93.86,1,1,0,0,1-1,1A1,1,0,0,1,203.41,29.76Zm-12.95,0a1,1,0,0,1,1.08-.92.88.88,0,0,1,.93.86,1,1,0,0,1-1,1A1,1,0,0,1,190.46,29.76Z" style="fill: #211f20"/>
            <path d="M209,33.76h-1.23c-.09,0-.12,0-.09-.2l.07-.53c0-.1.07-.12.22-.12h1v-.33a5.28,5.28,0,0,1,1.19-3.67,3.87,3.87,0,0,1,2.93-1.39c.84,0,1.62.31,1.62,1a.84.84,0,0,1-.75.76,1.18,1.18,0,0,1-.5-.1,2.13,2.13,0,0,1-.43-.41,1,1,0,0,0-.82-.4,1.59,1.59,0,0,0-1.33.61c-.66.83-.63,2.36-.63,3.6v.35h2.16a.13.13,0,0,1,.12.18l-.08.58c0,.07-.09.09-.24.09h-2v1.57c0,2.08,0,3.7,0,3.89s.09.46.46.46h1c.16,0,.2,0,.2.14v.28c0,.14,0,.21-.13.21s-.76-.05-2.14-.05c-1,0-1.89.05-2,.05s-.14,0-.14-.12V39.8c0-.08,0-.12.18-.12h.85c.34,0,.41-.21.43-.62v-5.3Z" style="fill: #211f20"/>
          </g>
          <g>
            <path d="M79.11,54.74c0-.28,0-3.4,0-4.16,0-.39-.18-.6-.87-.6H77.4c-.07,0-.12,0-.12-.09v-.47c0-.09,0-.13.12-.13s.86.06,2.55.06c1.52,0,2.14-.06,2.41-.06.1,0,.14,0,.14.11v.44c0,.11,0,.14-.14.14h-.89c-.48,0-.64.14-.66.51s-.06,2.54-.06,4.67V56c0,2.23-.07,4-.07,4.37A5.29,5.29,0,0,1,80,63.29c-.73,1.25-2,2.4-3.31,2.4-.32,0-1.21-.25-1.21-1a.88.88,0,0,1,1-.85,1.49,1.49,0,0,1,1.39.94,1.67,1.67,0,0,0,1-1.12c.45-1.26.25-6.38.25-7.66Z" style="fill: #211f20"/>
            <path d="M83.93,57.14a4,4,0,0,0-.06.85,2.77,2.77,0,0,0,2.53,3,2.42,2.42,0,0,0,2.16-1.2c0-.07.11-.11.16-.09l.23.12c.06,0,.09.08,0,.27A3.22,3.22,0,0,1,86.12,62a3.28,3.28,0,0,1-2.8-1.25A4.18,4.18,0,0,1,82.54,58a3.91,3.91,0,0,1,1.12-2.8,3.31,3.31,0,0,1,2.55-.93,2.64,2.64,0,0,1,2.62,2.59c0,.24-.22.28-.5.28Zm2.83-.53c.34,0,.48-.09.48-.25,0-.4-.21-1.57-1.37-1.57-.79,0-1.53.52-1.87,1.82Z" style="fill: #211f20"/>
            <path d="M98.22,59.91h.07L99.74,56c.23-.62.08-1-.27-1h-.25c-.09,0-.11-.05-.11-.14v-.37a.12.12,0,0,1,.13-.13c.1,0,.64.06,1.37.06s1.09-.06,1.3-.06a.12.12,0,0,1,.13.13v.37c0,.09,0,.14-.13.14h-.45a.77.77,0,0,0-.57.3c-.21.33-2.47,5.94-2.71,6.5a.3.3,0,0,1-.33.23c-.13,0-.25-.12-.32-.33l-1.75-5h-.09L93.5,61.81a.4.4,0,0,1-.38.28c-.14,0-.23-.14-.3-.35l-2.34-6.2a.66.66,0,0,0-.74-.48h-.4c-.1,0-.12-.05-.12-.16v-.33c0-.09,0-.15.11-.15.25,0,.6.06,1.62.06.8,0,1.23-.06,1.5-.06.1,0,.14,0,.14.15v.35c0,.09,0,.14-.14.14h-.16c-.2,0-.33.16-.22.48l1.41,4.67h.07l1.82-4.3a1.08,1.08,0,0,0-.16-.57.54.54,0,0,0-.48-.18h-.27c-.09,0-.13,0-.13-.12v-.37c0-.1.06-.14.17-.14s.71,0,1.6,0,1.21,0,1.35,0,.16,0,.16.12V55c0,.09,0,.14-.12.14h-.38c-.17,0-.32.2-.24.46Z" style="fill: #211f20"/>
            <path d="M103.51,56.7c0-.6-.1-.92-1-1.06-.13,0-.17,0-.17-.12v-.16s0-.09.13-.13a14.65,14.65,0,0,0,1.93-.86.71.71,0,0,1,.33-.1c.09,0,.11.08.09.21,0,.3,0,1.41,0,2.87v1.92c0,.69,0,1.32,0,1.52s.09.46.29.46h.82c.14,0,.18,0,.18.16v.3c0,.12,0,.17-.16.17s-1-.05-1.71-.05c-1,0-1.73.05-1.93.05s-.14,0-.14-.14v-.35c0-.11,0-.14.18-.14h.87c.2,0,.27-.07.29-.36,0-.52,0-1.07,0-1.6Zm-.8-5.38a1,1,0,0,1,1.09-.92.89.89,0,0,1,.93.87,1,1,0,0,1-1,1A1,1,0,0,1,102.71,51.32Z" style="fill: #211f20"/>
            <path d="M107.39,61.53c-.09-.05-.09-.16-.11-.25l-.3-1.67a.1.1,0,0,1,.1-.14l.24-.06c.07,0,.12,0,.16.11l.44.86c.36.66.61,1.1,1.55,1.1a1.29,1.29,0,0,0,1.41-1.2c0-.8-.39-1.25-1.73-1.62-1.05-.3-2.1-.85-2.1-2.24a2.35,2.35,0,0,1,2.49-2.15,3.32,3.32,0,0,1,1.64.37c.27.12.31.21.32.31l.27,1.24a.16.16,0,0,1-.12.16l-.22.07c-.07,0-.1,0-.16-.09l-.6-.81a1.37,1.37,0,0,0-1.25-.69A1.24,1.24,0,0,0,108.05,56c0,1,.83,1.22,1.71,1.47,1.3.37,2.12.9,2.14,2.25A2.45,2.45,0,0,1,109.19,62,3.34,3.34,0,0,1,107.39,61.53Z" style="fill: #211f20"/>
            <path d="M113.93,52.22c0-1.07-.22-1.27-.86-1.48l-.3-.11c-.11,0-.13-.05-.13-.1v-.16c0-.07.06-.09.22-.18l1.85-1a1,1,0,0,1,.41-.14c.11,0,.18.14.14.44s-.05,3.88-.05,4.76v1.13h.09a3.41,3.41,0,0,1,2.44-1.14,2.38,2.38,0,0,1,1.77.7,3.09,3.09,0,0,1,.76,2.59v1c0,1,0,2.08,0,2.41s.28.27.66.27h.3c.14,0,.2,0,.2.16v.26c0,.14,0,.21-.15.21s-.69-.05-1.71-.05-1.51.05-1.67.05-.16-.05-.16-.19v-.3c0-.09,0-.14.12-.14h.41c.3,0,.66,0,.68-.34s0-1.18,0-1.74V57.74a2.74,2.74,0,0,0-.59-2.17,1.62,1.62,0,0,0-1.17-.49,2.17,2.17,0,0,0-1.66.74,1.5,1.5,0,0,0-.36.86v3.84c0,.57.05.73.39.73h.54c.12,0,.19,0,.19.14v.3c0,.12,0,.19-.14.19s-.87-.05-1.69-.05-1.57.05-1.73.05-.13-.05-.13-.17v-.32c0-.13.08-.14.27-.14h.38c.28,0,.55-.07.58-.29s.06-2.27.06-3.41Z" style="fill: #211f20"/>
            <path d="M137.24,57.93c0-.63-.19-.81-.73-.81h-.75c-.09,0-.12,0-.12-.1v-.44c0-.11,0-.15.1-.15.25,0,1.06.06,2.27.06s1.85-.06,2.1-.06.14.06.14.13V57c0,.07,0,.14-.12.14h-.7c-.32,0-.55.12-.55.67v2.33c0,.25.07.42.07.56s-.1.21-.28.28a10.1,10.1,0,0,1-4.87,1.13,6.89,6.89,0,0,1-5-2,6.78,6.78,0,0,1-1.64-4.85,6,6,0,0,1,2-4.47,7.37,7.37,0,0,1,5-1.68,6.36,6.36,0,0,1,3.52,1c.19.15.3.12.4,0l.27-.32c.07-.07.14-.16.25-.16s.16.09.16.21l.06,3.37c0,.09,0,.16-.09.16l-.32,0c-.08,0-.13-.05-.15-.14a5.77,5.77,0,0,0-1.07-2.08A4.18,4.18,0,0,0,134,49.72a4.32,4.32,0,0,0-3.41,1.43A5.87,5.87,0,0,0,129,55.2a6.76,6.76,0,0,0,1.69,4.94,4.49,4.49,0,0,0,3.14,1.25,5.79,5.79,0,0,0,2.92-.6c.41-.25.48-.64.48-1.55Z" style="fill: #211f20"/>
            <path d="M142.57,57.14a4.23,4.23,0,0,0,0,.85,2.76,2.76,0,0,0,2.53,3,2.42,2.42,0,0,0,2.15-1.2c0-.07.11-.11.16-.09l.24.12c.05,0,.09.08,0,.27A3.22,3.22,0,0,1,144.76,62a3.29,3.29,0,0,1-2.8-1.25,4.18,4.18,0,0,1-.78-2.79,4,4,0,0,1,1.12-2.8,3.31,3.31,0,0,1,2.55-.93,2.64,2.64,0,0,1,2.62,2.59c0,.24-.21.28-.5.28Zm2.83-.53c.34,0,.49-.09.49-.25,0-.4-.22-1.57-1.38-1.57-.78,0-1.53.52-1.87,1.82Z" style="fill: #211f20"/>
            <path d="M155.74,60.88c0,.28.16.37.39.37h.57c.16,0,.2,0,.2.16v.28c0,.12,0,.19-.14.19s-.68-.05-1.7-.05-1.48.05-1.6.05-.14-.05-.14-.19v-.28c0-.13.05-.16.23-.16h.52c.19,0,.33-.09.35-.41s0-1,0-1.48V57c0-.7,0-1.21-.52-1.58a2,2,0,0,0-1.3-.32,2.07,2.07,0,0,0-1.44.69,1.68,1.68,0,0,0-.41,1.2v3.64c0,.48.05.59.42.59h.45c.14,0,.18,0,.18.17v.3c0,.11,0,.16-.13.16s-.6-.05-1.55-.05-1.48.05-1.58.05-.13-.05-.13-.16v-.31c0-.11,0-.16.18-.16h.52c.23,0,.35-.06.35-.36V56.77a1.08,1.08,0,0,0-.73-1l-.14-.07c-.13,0-.14-.11-.14-.16v-.09c0-.09.07-.14.16-.18l1.53-.84a.92.92,0,0,1,.32-.12c.09,0,.13.07.14.21l.13,1.07h0a3.63,3.63,0,0,1,2.45-1.28,2.79,2.79,0,0,1,1.51.38,2.57,2.57,0,0,1,1,1.68Z" style="fill: #211f20"/>
            <path d="M158.84,57.14a5.17,5.17,0,0,0-.05.85,2.76,2.76,0,0,0,2.53,3,2.43,2.43,0,0,0,2.16-1.2.14.14,0,0,1,.16-.09l.23.12s.09.08,0,.27A3.22,3.22,0,0,1,161,62a3.27,3.27,0,0,1-2.79-1.25,4.14,4.14,0,0,1-.79-2.79,3.93,3.93,0,0,1,1.13-2.8,3.28,3.28,0,0,1,2.54-.93,2.64,2.64,0,0,1,2.62,2.59c0,.24-.21.28-.5.28Zm2.84-.53c.34,0,.48-.09.48-.25,0-.4-.22-1.57-1.38-1.57-.78,0-1.53.52-1.87,1.82Z" style="fill: #211f20"/>
            <path d="M165.67,57.14c0-.9-.14-1.08-.64-1.34l-.34-.18c-.11,0-.14,0-.14-.12v-.11c0-.07,0-.1.14-.16l1.76-.89a.48.48,0,0,1,.25-.07c.11,0,.13.1.13.21l.09,1.21H167a3,3,0,0,1,2.14-1.53.81.81,0,0,1,.91.78.85.85,0,0,1-.75.86,1.17,1.17,0,0,1-.52-.14,1.14,1.14,0,0,0-.59-.14,1.25,1.25,0,0,0-1.05.74,1.79,1.79,0,0,0-.18.56v3.7c0,.55.13.73.5.73h.84c.11,0,.12,0,.12.16v.31c0,.11,0,.16-.09.16s-.92-.05-1.89-.05-1.85.05-2,.05-.1,0-.1-.17v-.3c0-.13,0-.16.19-.16h.7c.27,0,.39-.11.39-.34,0-.58,0-1.2,0-2.11Z" style="fill: #211f20"/>
            <path d="M175.73,59.65c0,1,.19,1.34.51,1.35a.83.83,0,0,0,.64-.25c.07-.09.11-.12.18-.07l.18.15c0,.05.09.14,0,.32a1.5,1.5,0,0,1-1.43.84,1.35,1.35,0,0,1-1.25-1.23h0a4,4,0,0,1-1.82,1,3.4,3.4,0,0,1-1.07.08c-.43,0-1.07-.39-1-1.51,0-.82.42-1.53,1.86-2.11a12,12,0,0,0,2.07-1l0-1.14a2.08,2.08,0,0,0-.23-1,1.39,1.39,0,0,0-1.07-.43,2.07,2.07,0,0,0-1.18.35c-.26.22-.11.5-.12.82,0,.62-.24,1-1,1-.29,0-.43-.17-.42-.58a2.27,2.27,0,0,1,1.29-1.65,4,4,0,0,1,2.22-.56,1.87,1.87,0,0,1,1.43.51,1.59,1.59,0,0,1,.37,1.28l-.08,2.73Zm-1.26-1.84c-.67.47-2.45.78-2.48,2.26a.87.87,0,0,0,.91,1c.52,0,1.49-.58,1.51-1.06Z" style="fill: #211f20"/>
            <path d="M180.47,56.58c0,.91,0,3.57,0,4.12,0,.3.09.55.47.55h.8c.16,0,.19,0,.19.16v.3c0,.1,0,.17-.1.17s-.91-.05-2-.05-1.85.05-2,.05-.13-.07-.13-.17v-.3c0-.13,0-.16.23-.16h.86c.2,0,.37-.13.39-.44,0-.55,0-3.58,0-4.61V55.09c0-1.25,0-2.85-.05-3.31a1.08,1.08,0,0,0-.9-1.06l-.35-.12c-.09,0-.11-.05-.11-.09v-.14s.05-.09.16-.12a16.12,16.12,0,0,0,2.09-1,.71.71,0,0,1,.37-.14c.13,0,.16.09.14.32,0,1-.07,4.64-.07,5.61Z" style="fill: #211f20"/>
            <path d="M189,54.88c0-1.09,0-3.47,0-3.75,0-.9-.12-1.15-.78-1.15h-.84c-.09,0-.11,0-.11-.14v-.42a.12.12,0,0,1,.14-.13c.36,0,.93.06,2.5.06,1.39,0,2-.06,2.37-.06.13,0,.18,0,.18.09v.46c0,.11,0,.14-.14.14h-.91c-.61,0-.7.3-.7,1,0,.24,0,2.57,0,3.56v.3c0,.09.05.14.21.14h6.6c.26,0,.35,0,.35-.27v-.17c0-1,0-3.46,0-3.67,0-.56-.07-.9-.59-.9h-.93c-.09,0-.12,0-.12-.12V49.4c0-.07,0-.11.11-.11.37,0,1.14.06,2.35.06s1.94-.06,2.28-.06c.13,0,.14,0,.14.15v.42c0,.1,0,.12-.14.12H200c-.52,0-.57.3-.57.94,0,.24,0,3.22,0,3.87v.6c0,.57,0,3.92.06,4.92,0,.64.17.88.71.88H201c.13,0,.16,0,.16.13v.42c0,.11,0,.14-.14.14-.34,0-.94-.05-2.25-.05-1.55,0-2.12.05-2.65.05a.11.11,0,0,1-.11-.12v-.44c0-.09,0-.13.14-.13h1.13c.42,0,.48-.33.48-.81,0-.82,0-3.66,0-4.3v-.25c0-.19-.09-.21-.39-.21h-6.52c-.2,0-.25.06-.25.18v.37c0,.48,0,3.19,0,4.42,0,.43.2.6.57.6h.88c.1,0,.14,0,.14.13v.44c0,.09,0,.12-.14.12-.34,0-1-.05-2.25-.05-1.53,0-2.07.05-2.48.05-.09,0-.12,0-.12-.12V61.3a.11.11,0,0,1,.12-.11h1.05c.45,0,.5-.42.5-.84,0-.83.06-4.25.06-4.71Z" style="fill: #211f20"/>
            <path d="M202.5,60.82a3.91,3.91,0,0,1,.55-5.71,3.93,3.93,0,0,1,2.39-.84,3.81,3.81,0,0,1,2.5,1,3.9,3.9,0,0,1,1.21,2.87A4.05,4.05,0,0,1,205.21,62,3.6,3.6,0,0,1,202.5,60.82ZM207.65,58c0-2-1.44-3.2-2.35-3.2a1.73,1.73,0,0,0-1.37.57,3.42,3.42,0,0,0-1,2.77,3.76,3.76,0,0,0,.68,2.46,2,2,0,0,0,1.77.92C206.78,61.51,207.65,59.87,207.65,58Z" style="fill: #211f20"/>
            <path d="M210.7,61.53c-.09-.05-.09-.16-.11-.25l-.3-1.67c0-.09,0-.13.11-.14l.23-.06c.07,0,.12,0,.16.11l.45.86c.35.66.6,1.1,1.55,1.1a1.3,1.3,0,0,0,1.41-1.2c0-.8-.4-1.25-1.73-1.62-1.06-.3-2.11-.85-2.11-2.24a2.35,2.35,0,0,1,2.5-2.15,3.35,3.35,0,0,1,1.64.37c.27.12.3.21.32.31l.27,1.24c0,.07,0,.12-.13.16l-.21.07c-.07,0-.11,0-.16-.09l-.61-.81a1.35,1.35,0,0,0-1.25-.69A1.25,1.25,0,0,0,211.36,56c0,1,.84,1.22,1.71,1.47,1.3.37,2.12.9,2.14,2.25A2.45,2.45,0,0,1,212.5,62,3.37,3.37,0,0,1,210.7,61.53Z" style="fill: #211f20"/>
            <path d="M217.19,56.84c0-.42-.13-.67-.64-1l-.41-.23c-.13,0-.13-.11-.13-.16v-.14s0-.09.13-.13l1.71-.84a1,1,0,0,1,.41-.14c.09,0,.12.09.12.35l.07.85h.06a3.3,3.3,0,0,1,2.6-1.18,2.81,2.81,0,0,1,2,.86,3.38,3.38,0,0,1,1,2.75A3.94,3.94,0,0,1,220.26,62a5.09,5.09,0,0,1-1.79-.3v3.72c0,.49.13.58.39.58h.79c.14,0,.16.07.16.18v.3c0,.1,0,.16-.16.16s-.7-.06-1.84-.06-1.65.06-1.8.06-.16-.06-.16-.16V66.2c0-.09,0-.16.22-.16h.69c.3,0,.34-.17.37-.44s.06-1.34.06-3.07Zm1.28,3.23a1,1,0,0,0,.38.93,2.91,2.91,0,0,0,1.78.48c1,0,2.07-.76,2.07-2.95,0-2.47-1.13-3.45-2.32-3.45a2.28,2.28,0,0,0-1.91,1.12Z" style="fill: #211f20"/>
            <path d="M226.21,56.7c0-.6-.1-.92-1-1.06-.12,0-.16,0-.16-.12v-.16s0-.09.13-.13a14,14,0,0,0,1.92-.86.78.78,0,0,1,.34-.1c.09,0,.11.08.09.21,0,.3,0,1.41,0,2.87v1.92c0,.69,0,1.32,0,1.52s.09.46.29.46h.82c.14,0,.18,0,.18.16v.3c0,.12,0,.17-.16.17s-1-.05-1.71-.05c-1,0-1.73.05-1.93.05s-.14,0-.14-.14v-.35c0-.11,0-.14.18-.14h.87c.2,0,.27-.07.29-.36,0-.52,0-1.07,0-1.6Zm-.8-5.38a1,1,0,0,1,1.09-.92.88.88,0,0,1,.92.87,1,1,0,0,1-1,1A1,1,0,0,1,225.41,51.32Z" style="fill: #211f20"/>
            <path d="M231.61,59.63c0,1.32.61,1.55.93,1.55a2.54,2.54,0,0,0,1.17-.23.15.15,0,0,1,.22,0l.09.16c0,.07,0,.14,0,.2a3.07,3.07,0,0,1-2,.7,1.82,1.82,0,0,1-1.73-1.5c0-.72.06-2.27.06-2.52v-.39c0-.31,0-1.5,0-2.24h-1.09c-.16,0-.26-.07-.26-.21s.1-.19.32-.31a8,8,0,0,0,2-2.23.23.23,0,0,1,.25-.17c.14,0,.18.12.18.26l-.09,1.75h2.48c.1,0,.16.09.12.16l-.18.61a.14.14,0,0,1-.16.14h-2.3c0,.81,0,1.66,0,2.47Z" style="fill: #211f20"/>
            <path d="M240.09,59.65c0,1,.18,1.34.51,1.35a.82.82,0,0,0,.63-.25c.08-.09.12-.12.19-.07l.17.15c.06.05.09.14,0,.32a1.52,1.52,0,0,1-1.44.84,1.34,1.34,0,0,1-1.24-1.23h0a4,4,0,0,1-1.82,1,3.34,3.34,0,0,1-1.06.08c-.44,0-1.08-.39-1.05-1.51,0-.82.42-1.53,1.86-2.11a11.25,11.25,0,0,0,2.07-1l0-1.14a2.07,2.07,0,0,0-.22-1,1.41,1.41,0,0,0-1.08-.43,2.07,2.07,0,0,0-1.18.35c-.26.22-.1.5-.11.82,0,.62-.24,1-1,1-.28,0-.42-.17-.41-.58a2.25,2.25,0,0,1,1.29-1.65,4,4,0,0,1,2.21-.56,1.92,1.92,0,0,1,1.44.51,1.58,1.58,0,0,1,.36,1.28l-.07,2.73Zm-1.27-1.84c-.66.47-2.44.78-2.48,2.26a.87.87,0,0,0,.91,1c.53,0,1.5-.58,1.51-1.06Z" style="fill: #211f20"/>
            <path d="M244.83,56.58c0,.91,0,3.57,0,4.12,0,.3.09.55.47.55h.8c.16,0,.2,0,.2.16v.3c0,.1,0,.17-.11.17s-.91-.05-2-.05-1.86.05-2,.05-.12-.07-.12-.17v-.3c0-.13,0-.16.23-.16h.85c.2,0,.38-.13.4-.44,0-.55,0-3.58,0-4.61V55.09c0-1.25,0-2.85,0-3.31a1.06,1.06,0,0,0-.89-1.06l-.36-.12c-.09,0-.1-.05-.1-.09v-.14s.05-.09.16-.12a16.68,16.68,0,0,0,2.08-1,.71.71,0,0,1,.38-.14c.12,0,.16.09.14.32,0,1-.07,4.64-.07,5.61Z" style="fill: #211f20"/>
          </g>
          <g>
            <path d="M24.19,6.67s-5,12.45,8.25,21C32.44,27.71,38.15,11.87,24.19,6.67Z" style="fill: #f8cc46"/>
            <path d="M15,13.74s-3.53,12.92,10.57,20C25.54,33.75,29.43,17.37,15,13.74Z" style="fill: #ced951"/>
            <path d="M14.53,23.42s.39-7.48-8.17-9.72C6.36,13.7,6.18,23.12,14.53,23.42Z" style="fill: #8fc056"/>
            <path d="M19.87,33.11S15.72,20.38,0,22C0,22,5.74,37.85,19.87,33.11Z" style="fill: #00abe9"/>
            <path d="M45.24,6.67s4.95,12.45-8.26,21C37,27.71,31.27,11.87,45.24,6.67Z" style="fill: #acdaeb"/>
            <path d="M54.46,13.74s3.52,12.92-10.57,20C43.89,33.75,40,17.37,54.46,13.74Z" style="fill: #8fc056"/>
            <path d="M54.9,23.42s-.4-7.48,8.16-9.72C63.06,13.7,63.25,23.12,54.9,23.42Z" style="fill: #f8cc46"/>
            <path d="M34.85,13.59c1.07-1.21,5-6.23,1.79-11.13A10.4,10.4,0,0,0,34.78,0a11,11,0,0,0-1.11,1.18c-5,5.26-.4,11.1.76,12.41a2.54,2.54,0,0,1,.16.28l0,0,0,0C34.75,13.77,34.79,13.68,34.85,13.59Z" style="fill: #e57f3a"/>
            <path d="M49.56,33.36s4.15-12.74,19.86-11.11C69.42,22.25,63.69,38.09,49.56,33.36Z" style="fill: #e57f3a"/>
            <polygon points="31.11 43.31 14.47 37.99 14.47 28.08 13.77 28.08 13.77 33.93 9.16 29.11 8.65 29.58 13.77 34.95 13.77 38.5 30.39 43.81 30.39 46.8 30.39 46.53 31.09 46.53 31.09 46.67 31.09 43.42 31.08 43.42 31.11 43.31 31.11 43.31" style="fill: #211f20"/>
            <polygon points="45.38 37 45.38 30.41 50.49 25.81 50.02 25.29 45.38 29.47 45.38 25 44.67 25 44.67 36.48 35.04 39.25 35.04 27.35 39.81 22.15 39.29 21.68 39.29 21.68 35.04 26.31 35.04 19.01 34.33 19.01 34.33 26.23 29.74 21.83 29.25 22.33 34.33 27.2 34.33 39.31 24.5 36.48 24.5 25 23.8 25 23.8 29.06 20.16 25.46 19.66 25.96 23.8 30.05 23.8 37 34.33 40.04 34.33 46.63 35.04 46.63 35.04 39.98 45.38 37" style="fill: #211f20"/>
            <polygon points="55.41 35.17 60.87 30.23 60.39 29.72 55.41 34.23 55.41 28.08 54.7 28.08 54.7 37.99 38.23 43.46 38.23 43.48 38.16 43.48 38.16 46.53 38.87 46.53 38.87 43.99 55.41 38.49 55.41 35.17" style="fill: #211f20"/>
          </g>
        </g>
        <g>
          <path d="M33.57,52.17c0,1.43-.56,2.21-2.43,3.3,1.54.75,2.57,1.63,2.57,3.25,0,1.36-1.43,3.06-3.82,3.06-2.65,0-3.57-1.33-3.57-2.4,0-1.5.92-2.38,2.39-3.2-1.51-.88-2.5-1.63-2.5-3s1.36-3.26,4.12-3.26C32.17,49.91,33.57,51,33.57,52.17ZM27.83,59a2.07,2.07,0,0,0,2.09,2.11,1.78,1.78,0,0,0,1.92-2c0-1.15-.92-1.77-2.5-2.58A2.84,2.84,0,0,0,27.83,59ZM32,52.7a1.85,1.85,0,0,0-1.87-2,1.94,1.94,0,0,0-1.92,2.09c0,1,.67,1.53,2.25,2.38A3.06,3.06,0,0,0,32,52.7Z" style="fill: #211f20"/>
          <path d="M37.1,54.06a10.52,10.52,0,0,1,2.46.29,3.28,3.28,0,0,1,2.67,3.24c0,2.35-2.17,4.19-5,4.19-1.28,0-2.31-.48-2.31-1a.49.49,0,0,1,.47-.54,2.64,2.64,0,0,1,1,.37,3.08,3.08,0,0,0,1.32.29,2.57,2.57,0,0,0,2.69-2.44,2.35,2.35,0,0,0-1.49-2.3,6.42,6.42,0,0,0-2.26-.43h-.34c-.14,0-.2-.13-.18-.27l.66-5.06c0-.21.08-.27.3-.27h4.1c.66,0,.81-.28,1.14-.86,0-.1.11-.15.29-.06s.22.1.19.23l-.67,2.08c-.11.27-.22.34-.77.34h-4Z" style="fill: #211f20"/>
        </g>
      </g>
    </g>
  </g>
</svg>
