<?xml version="1.0" encoding="UTF-8" standalone="no"?>
<!-- Created with Inkscape (http://www.inkscape.org/) -->
<svg
   xmlns:dc="http://purl.org/dc/elements/1.1/"
   xmlns:cc="http://creativecommons.org/ns#"
   xmlns:rdf="http://www.w3.org/1999/02/22-rdf-syntax-ns#"
   xmlns:svg="http://www.w3.org/2000/svg"
   xmlns="http://www.w3.org/2000/svg"
   xmlns:sodipodi="http://sodipodi.sourceforge.net/DTD/sodipodi-0.dtd"
   xmlns:inkscape="http://www.inkscape.org/namespaces/inkscape"
   width="406"
   height="96"
   id="svg2776"
   sodipodi:version="0.32"
   inkscape:version="0.46"
   version="1.0"
   sodipodi:docname="Université McGill.svg"
   inkscape:output_extension="org.inkscape.output.svg.inkscape">
  <defs
     id="defs2778">
    <clipPath
       clipPathUnits="userSpaceOnUse"
       id="clipPath95">
      <path
         d="M 250.10001,619.01001 L 593.98001,619.01001 L 593.98001,532.8 L 250.10001,532.8 L 250.10001,619.01001 z"
         clip-rule="evenodd"
         id="path97" />
    </clipPath>
    <inkscape:perspective
       sodipodi:type="inkscape:persp3d"
       inkscape:vp_x="0 : 526.18109 : 1"
       inkscape:vp_y="0 : 1000 : 0"
       inkscape:vp_z="744.09448 : 526.18109 : 1"
       inkscape:persp3d-origin="372.04724 : 350.78739 : 1"
       id="perspective2784" />
  </defs>
  <sodipodi:namedview
     id="base"
     pagecolor="#ffffff"
     bordercolor="#666666"
     borderopacity="1.0"
     inkscape:pageopacity="0.0"
     inkscape:pageshadow="2"
     inkscape:zoom="2.2864187"
     inkscape:cx="202.93746"
     inkscape:cy="47.571873"
     inkscape:document-units="px"
     inkscape:current-layer="layer1"
     showgrid="false"
     inkscape:window-width="1024"
     inkscape:window-height="712"
     inkscape:window-x="-4"
     inkscape:window-y="-4" />
  <metadata
     id="metadata2781">
    <rdf:RDF>
      <cc:Work
         rdf:about="">
        <dc:format>image/svg+xml</dc:format>
        <dc:type
           rdf:resource="http://purl.org/dc/dcmitype/StillImage" />
      </cc:Work>
    </rdf:RDF>
  </metadata>
  <g
     inkscape:label="Calque 1"
     inkscape:groupmode="layer"
     id="layer1"
     transform="translate(-174.2054,-350.50463)">
    <g
       transform="matrix(1.25,0,0,-1.25,-139.03384,1123.5959)"
       id="g91">
      <g
         id="g93"
         clip-path="url(#clipPath95)">
        <path
           d="M 252.19402,583.47504 C 249.45502,593.23206 251.05701,602.26001 251.05701,613.17804 C 260.82001,618.03204 270.487,618.47302 280.96402,618.47302 C 290.02301,618.47302 302.87,617.30304 310.60703,613.19403 C 311.39999,602.901 311.85602,593.841 309.21301,582.14606 C 306.57001,570.45105 298.88101,554.29401 281.34802,542.35803 C 262.21402,554.90204 255.95801,570.06604 252.19402,583.47504"
           style="fill:#ef2c30;fill-opacity:1;fill-rule:evenodd;stroke:none"
           id="path99" />
      </g>
    </g>
    <path
       d="M 187.62994,376.38205 L 175.84494,389.19959 C 178.48867,401.48459 185.82742,427.23837 212.55869,444.61081 C 239.04992,426.3771 246.1487,401.38457 247.74991,388.91837 L 236.29617,376.35207 L 223.6112,389.20959 L 211.92742,376.46209 L 200.28367,389.0496 L 187.62994,376.38205"
       style="fill:#ffffff;fill-opacity:1;fill-rule:evenodd;stroke:none"
       id="path101" />
    <path
       d="M 243.10365,363.3821 C 242.98367,363.3821 242.68369,363.26209 243.10365,363.14207 C 243.34367,363.14207 243.94369,363.14207 244.60366,363.98207 C 244.90365,363.86206 245.56367,362.78212 246.2837,363.14207 C 246.2837,363.20212 243.94369,368.36332 243.70366,368.7834 C 242.68369,368.24332 236.68367,367.88336 237.28242,367.88336 C 237.76369,367.88336 231.82245,368.06334 230.92245,368.7834 C 230.62242,368.24332 228.28245,363.02206 228.28245,363.02206 C 229.00244,362.72207 229.78242,363.74205 230.02245,363.86206 C 230.62242,363.02206 231.22244,363.02206 231.34245,363.02206 C 231.94242,363.14207 231.58242,363.26209 231.52242,363.3821 C 228.64244,365.72211 232.84242,368.36332 233.74242,365.72211 C 237.46244,366.14211 236.44242,363.14207 235.54242,362.72207 C 234.82244,362.5421 235.30244,362.42209 235.54242,362.42209 C 235.84241,362.24211 236.32241,362.24211 236.32241,362.5421 C 236.32241,360.92086 236.44242,359.84084 237.28242,359.36087 C 238.18369,359.96085 238.30366,360.92086 238.18369,362.5421 C 238.30366,362.24211 238.72369,362.42209 239.08369,362.42209 C 239.20366,362.5421 239.80367,362.5421 239.20366,362.78212 C 238.18369,363.14207 237.28242,366.32209 240.9437,365.72211 C 241.78369,368.36332 246.22369,365.42212 243.10365,363.3821 z M 240.64366,366.50206 L 241.72369,367.76335 L 239.6237,367.46336 L 240.64366,366.50206 z M 237.28242,365.06209 L 238.60365,367.46336 L 236.02242,367.46336 L 237.28242,365.06209 z M 233.98244,366.50206 L 232.90242,367.76335 L 235.00241,367.46336 L 233.98244,366.50206"
       style="fill:#ffffff;fill-opacity:1;fill-rule:evenodd;stroke:none"
       id="path103" />
    <path
       d="M 232.48994,371.7108 C 232.06995,370.99081 231.58994,369.73082 231.34866,369.43084 C 232.36994,368.65081 236.14991,368.53087 237.52992,368.53087 C 239.56995,368.53087 242.39114,368.83086 243.29115,369.43084 C 243.29115,369.43084 242.87119,370.93085 242.51119,371.83081 C 240.88995,371.23084 238.72995,370.99081 237.28994,370.99081 C 235.66991,370.99081 233.74994,371.23084 232.48994,371.7108 z M 241.90991,369.67086 C 242.26991,369.67086 242.62994,370.03081 242.62994,370.33087 C 242.62994,370.69082 242.26991,371.05086 241.90991,371.05086 C 241.61119,371.05086 241.24994,370.69082 241.24994,370.33087 C 241.24994,370.03081 241.61119,369.67086 241.90991,369.67086 z M 239.68991,369.19081 C 240.04995,369.19081 240.40994,369.55085 240.40994,369.85084 C 240.40994,370.21086 240.04995,370.5709 239.68991,370.5709 C 239.38992,370.5709 239.02994,370.21086 239.02994,369.85084 C 239.02994,369.55085 239.38992,369.19081 239.68991,369.19081 z M 237.34995,369.01084 C 237.70994,369.01084 238.06992,369.37087 238.06992,369.67086 C 238.06992,370.03081 237.70994,370.39084 237.34995,370.39084 C 237.04991,370.39084 236.68992,370.03081 236.68992,369.67086 C 236.68992,369.37087 237.04991,369.01084 237.34995,369.01084 z M 235.00994,369.19081 C 235.36992,369.19081 235.72991,369.55085 235.72991,369.85084 C 235.72991,370.21086 235.36992,370.5709 235.00994,370.5709 C 234.70995,370.5709 234.34991,370.21086 234.34991,369.85084 C 234.34991,369.55085 234.70995,369.19081 235.00994,369.19081 z M 232.84994,369.67086 C 233.20992,369.67086 233.56992,370.03081 233.56992,370.33087 C 233.56992,370.69082 233.20992,371.05086 232.84994,371.05086 C 232.54995,371.05086 232.18991,370.69082 232.18991,370.33087 C 232.18991,370.03081 232.54995,369.67086 232.84994,369.67086"
       style="fill:#ffffff;fill-opacity:1;fill-rule:evenodd;stroke:none"
       id="path105" />
    <path
       d="M 237.27865,371.4733 C 239.91869,371.4733 242.36494,371.96211 242.36494,372.25585 C 242.36494,372.54957 240.21241,372.74459 237.47369,372.74459 C 234.83369,372.74459 232.58367,372.54957 232.58367,372.25585 C 232.58367,371.96211 234.63742,371.4733 237.27865,371.4733"
       style="fill:#ffffff;fill-opacity:1;fill-rule:evenodd;stroke:none"
       id="path107" />
    <path
       d="M 203.74994,355.70586 C 203.74994,355.70586 205.54869,356.45582 207.0487,355.85585 C 208.84866,355.10581 210.54869,354.65582 211.84869,355.2558 L 211.84869,370.60706 C 210.74869,370.20712 209.29869,370.35712 207.64867,370.75705 C 205.99866,371.15706 205.04991,371.20711 203.74994,370.9571 L 203.74994,355.70586 z M 208.79869,367.0571 C 208.79869,366.5071 209.14869,366.3571 209.39866,366.3571 C 209.59867,366.3571 209.94866,366.5071 209.94866,367.0571 C 209.94866,367.65707 209.59867,367.80707 209.39866,367.80707 C 209.14869,367.80707 208.79869,367.65707 208.79869,367.0571 z M 208.39867,367.0571 C 208.39867,368.05709 209.09867,368.15711 209.39866,368.15711 C 209.64867,368.15711 210.34867,368.05709 210.34867,367.0571 C 210.34867,366.10709 209.64867,366.00707 209.39866,366.00707 C 209.09867,366.00707 208.39867,366.10709 208.39867,367.0571 z M 207.54869,367.55706 L 207.54869,367.55706 L 206.74867,366.10709 L 206.24867,366.10709 L 206.24867,368.20707 L 206.69866,368.20707 L 206.69866,366.70706 L 207.49867,368.20707 L 207.94866,368.20707 L 207.94866,366.10709 L 207.54869,366.10709 L 207.54869,367.55706 z M 205.39995,368.35707 L 205.79996,368.35707 L 205.79996,366.30707 L 205.39995,366.30707 L 205.39995,368.35707 z M 210.69867,361.55707 L 210.04869,361.55707 L 209.69869,363.15711 L 209.34869,361.55707 L 208.69866,361.55707 L 208.69866,363.60587 L 209.09867,363.60587 L 209.09867,361.90581 L 209.49869,363.60587 L 209.8987,363.60587 L 210.29866,361.90581 L 210.29866,363.60587 L 210.69867,363.60587 L 210.69867,361.55707 z M 206.84869,362.7558 C 206.84869,362.20587 207.14867,362.0571 207.3987,362.0571 C 207.59866,362.0571 207.94866,362.20587 207.94866,362.7558 C 207.94866,363.35707 207.59866,363.50707 207.3987,363.50707 C 207.14867,363.50707 206.84869,363.35707 206.84869,362.7558 z M 206.39867,362.7558 C 206.39867,363.75709 207.09867,363.8571 207.3987,363.8571 C 207.64867,363.8571 208.39867,363.75709 208.39867,362.7558 C 208.39867,361.80586 207.64867,361.70585 207.3987,361.70585 C 207.09867,361.70585 206.39867,361.80586 206.39867,362.7558 z M 204.84995,362.30711 L 205.2487,362.30711 C 205.44866,362.30711 205.74869,362.35709 205.74869,362.95706 C 205.74869,363.3058 205.59991,363.65706 205.2487,363.65706 L 204.84995,363.65706 L 204.84995,362.30711 z M 204.39992,364.0071 L 205.29992,364.0071 C 205.99866,364.0071 206.14991,363.35707 206.14991,362.95706 C 206.14991,362.55706 205.99866,361.95707 205.34867,361.95707 L 204.39992,361.95707 L 204.39992,364.0071 z M 208.2987,359.05585 L 208.2987,359.05585 L 207.49867,357.65586 L 207.0487,357.65586 L 207.0487,359.65582 L 207.44866,359.65582 L 207.44866,358.25584 L 208.24869,359.65582 L 208.69866,359.65582 L 208.69866,357.65586 L 208.2987,357.65586 L 208.2987,359.05585 z M 206.04994,359.7071 L 206.44995,359.7071 L 206.44995,357.70709 L 206.04994,357.70709 L 206.04994,359.7071 z"
       style="fill:#ffffff;fill-opacity:1;fill-rule:evenodd;stroke:none"
       id="path109" />
    <path
       d="M 203.22119,355.71837 L 201.77117,356.86835 L 201.77117,372.26957 L 203.22119,370.91956 L 203.22119,355.71837"
       style="fill:#ffffff;fill-opacity:1;fill-rule:evenodd;stroke:none"
       id="path111" />
    <path
       d="M 202.22116,372.5196 L 203.67116,371.36961 C 204.7212,371.6696 206.97119,371.21962 208.01992,371.06955 C 209.76991,370.81961 210.51992,370.46957 211.76992,371.06955 C 211.06992,371.36961 210.61994,371.96959 210.61994,372.5196 L 202.22116,372.5196"
       style="fill:#ffffff;fill-opacity:1;fill-rule:evenodd;stroke:none"
       id="path113" />
    <path
       d="M 221.76992,372.5196 L 220.36992,371.36961 C 219.16994,371.6696 217.11991,371.21962 216.01991,371.06955 C 214.11992,370.81961 213.51991,370.46957 212.41994,371.06955 C 212.96995,371.36961 213.36991,371.96959 213.26994,372.5196 L 221.76992,372.5196"
       style="fill:#ffffff;fill-opacity:1;fill-rule:evenodd;stroke:none"
       id="path115" />
    <path
       d="M 220.76994,355.5683 L 222.11991,356.86835 L 222.11991,372.11959 L 220.76994,370.81961 L 220.76994,355.5683"
       style="fill:#ffffff;fill-opacity:1;fill-rule:evenodd;stroke:none"
       id="path117" />
    <path
       d="M 220.24244,355.70586 C 220.24244,355.70586 218.44244,356.45582 216.94242,355.85585 C 215.04244,355.10581 213.49245,354.65582 212.39244,355.2558 L 212.39244,370.60706 C 213.34241,370.20712 214.59241,370.35712 216.29244,370.75705 C 217.99241,371.15706 218.89241,371.20711 220.24244,370.9571 L 220.24244,355.70586 z M 214.04241,368.10706 L 214.94241,368.10706 C 215.64245,368.10706 215.79244,367.45711 215.79244,367.00705 C 215.79244,366.60712 215.64245,366.05711 214.94241,366.05711 L 214.04241,366.05711 L 214.04241,368.10706 z M 214.49242,366.40707 L 214.89244,366.40707 C 215.09245,366.40707 215.34242,366.45712 215.34242,367.0571 C 215.34242,367.40706 215.24244,367.7571 214.89244,367.7571 L 214.49242,367.7571 L 214.49242,366.40707 z M 216.34245,367.35709 C 216.34245,368.35707 217.04244,368.4571 217.34242,368.4571 C 217.59245,368.4571 218.34241,368.35707 218.34241,367.35709 C 218.34241,366.40707 217.59245,366.30706 217.34242,366.30706 C 217.04244,366.30706 216.34245,366.40707 216.34245,367.35709 z M 216.79242,367.35709 C 216.79242,366.80709 217.09241,366.65709 217.34242,366.65709 C 217.54244,366.65709 217.89244,366.80709 217.89244,367.35709 C 217.89244,367.95706 217.54244,368.10706 217.34242,368.10706 C 217.09241,368.10706 216.79242,367.95706 216.79242,367.35709 z M 215.19242,363.20707 L 216.09242,363.20707 L 216.09242,362.80707 L 215.19242,362.80707 L 215.19242,362.35709 L 216.24242,362.35709 L 216.24242,362.00584 L 214.74245,362.00584 L 214.74245,364.05707 L 215.19242,364.05707 L 215.19242,363.20707 z M 216.74241,364.10712 L 217.19241,364.10712 L 217.19241,362.05712 L 216.74241,362.05712 L 216.74241,364.10712 z M 214.84242,358.35585 C 214.79241,358.05586 214.54244,357.65586 213.94242,357.65586 C 213.39242,357.65586 212.99241,358.00711 212.99241,358.70581 C 212.99241,359.45586 213.39242,359.80711 213.94242,359.80711 C 214.44242,359.80711 214.74245,359.50705 214.84242,359.05585 L 214.39245,359.05585 C 214.34244,359.30586 214.19244,359.45586 213.94242,359.45586 C 213.54241,359.45586 213.44244,359.10582 213.44244,358.70581 C 213.44244,358.15581 213.74242,358.00711 213.94242,358.00711 C 214.29242,358.00711 214.34244,358.25584 214.39245,358.35585 L 214.84242,358.35585 z M 215.19242,358.95705 C 215.19242,359.95581 215.89242,360.05706 216.19241,360.05706 C 216.44242,360.05706 217.19244,359.95581 217.19244,358.95705 C 217.19244,358.00711 216.44242,357.90709 216.19241,357.90709 C 215.89242,357.90709 215.19242,358.00711 215.19242,358.95705 z M 215.64245,358.95705 C 215.64245,358.40712 215.94244,358.25584 216.19241,358.25584 C 216.39241,358.25584 216.74241,358.40712 216.74241,358.95705 C 216.74241,359.5558 216.39241,359.7071 216.19241,359.7071 C 215.94244,359.7071 215.64245,359.5558 215.64245,358.95705 z M 218.74242,359.40711 L 218.74242,359.40711 L 217.94244,357.95585 L 217.49242,357.95585 L 217.49242,360.00586 L 217.89244,360.00586 L 217.89244,358.55582 L 218.74242,360.00586 L 219.19244,360.00586 L 219.19244,357.95585 L 218.74242,357.95585 L 218.74242,359.40711"
       style="fill:#ffffff;fill-opacity:1;fill-rule:evenodd;stroke:none"
       id="path119" />
    <path
       d="M 212.06995,371.36961 C 211.51994,371.96959 211.21991,371.96959 211.36995,372.5196 L 212.61995,372.5196 C 212.76994,371.96959 212.61995,371.6696 212.06995,371.36961"
       style="fill:#ffffff;fill-opacity:1;fill-rule:evenodd;stroke:none"
       id="path121" />
    <path
       d="M 186.03116,399.88211 C 186.20992,399.46334 186.61241,398.26712 186.83866,397.84712 C 186.61241,397.46085 186.20992,397.0571 185.86991,397.0571 C 186.03116,396.66831 186.70991,396.1521 186.61241,395.81336 C 186.41992,395.47331 186.16117,395.52206 185.46617,395.13457 C 185.69242,394.66582 186.20992,394.37582 186.54866,394.32707 C 186.95241,394.24712 186.95241,393.69711 187.56616,393.35837 C 188.27619,393.01962 189.00244,393.01962 189.80992,392.93837 C 190.90867,393.06709 193.86369,393.8584 193.07241,397.46085 C 194.84869,401.06207 201.11367,396.26456 203.30991,396.26456 C 202.88991,397.0571 202.34117,397.84712 201.92117,398.65584 C 202.50364,399.07462 203.30991,398.65584 203.93991,398.65584 C 203.30991,400.6584 202.09992,401.44957 201.11367,402.25707 C 202.09992,405.47087 205.81369,404.2108 209.12366,403.87206 C 208.73616,404.95337 207.37992,405.05087 206.74992,405.85837 C 207.87992,407.08586 209.12366,408.66835 209.9312,410.2671 C 208.44491,409.29831 205.36119,408.26461 204.32745,407.87711 C 202.34117,407.08586 198.27241,407.08586 196.28617,407.87711 C 196.67367,408.66835 197.46492,409.0721 198.10995,409.4596 C 197.07742,411.47834 195.05869,410.2671 193.86369,409.8796 C 192.84616,410.68709 190.95742,410.73585 190.43992,410.2671 C 190.43992,410.2671 190.43992,409.75081 191.06992,409.3621 C 191.45742,408.78081 189.85867,408.66835 189.42242,407.87711 C 189.42242,407.13461 190.21367,407.87711 190.64992,407.08586 C 189.63242,405.05087 185.46617,404.6633 186.03116,399.88211 z M 188.90619,394.14961 C 189.13244,394.14961 189.29369,394.32707 189.29369,394.53711 C 189.29369,394.76332 189.13244,394.94086 188.90619,394.94086 C 188.66369,394.94086 188.48619,394.76332 188.48619,394.53711 C 188.48619,394.32707 188.66369,394.14961 188.90619,394.14961"
       style="fill:#ef2c30;fill-opacity:1;fill-rule:evenodd;stroke:none"
       id="path123" />
    <path
       d="M 214.52741,400.45462 C 214.70495,400.06712 215.09245,398.85581 215.33495,398.46831 C 215.09245,398.04831 214.70495,397.66081 214.36494,397.66081 C 214.52741,397.24081 215.20494,396.73956 215.09245,396.38457 C 214.91495,396.0459 214.6562,396.09336 213.94616,395.70586 C 214.18745,395.25459 214.70495,394.96336 215.04369,394.91461 C 215.46369,394.86586 215.46369,394.26832 216.06119,393.92959 C 216.77117,393.59084 217.49742,393.59084 218.30491,393.54209 C 219.40366,393.63837 222.37492,394.44586 221.56744,398.04831 C 223.34367,401.64961 229.62617,396.85332 231.80494,396.85332 C 231.40119,397.66081 230.8362,398.46831 230.41616,399.25955 C 231.01491,399.64705 231.80494,399.25955 232.43494,399.25955 C 231.80494,401.26212 230.59491,402.06961 229.62617,402.86086 C 230.59491,406.05841 234.30867,404.8146 237.61869,404.47585 C 237.23119,405.54206 235.87491,405.67091 235.24491,406.46209 C 236.39116,407.65707 237.61869,409.27206 238.42619,410.87089 C 236.94116,409.9021 233.85617,408.85207 232.83869,408.46457 C 230.8362,407.65707 226.76744,407.65707 224.78116,408.46457 C 225.16866,409.27206 225.9762,409.65956 226.60619,410.06331 C 225.57245,412.06587 223.55367,410.87089 222.37492,410.46706 C 221.34119,411.25837 219.45241,411.33956 218.93491,410.87089 C 218.93491,410.87089 218.93491,410.37085 219.56495,409.95085 C 219.95245,409.3846 218.35366,409.27206 217.91867,408.46457 C 217.91867,407.70582 218.70866,408.46457 219.16116,407.65707 C 218.12864,405.67091 213.94616,405.25084 214.52741,400.45462 z M 217.33617,394.73707 C 217.57867,394.73707 217.73992,394.91461 217.73992,395.15707 C 217.73992,395.36711 217.57867,395.54457 217.33617,395.54457 C 217.11119,395.54457 216.93242,395.36711 216.93242,395.15707 C 216.93242,394.91461 217.11119,394.73707 217.33617,394.73707"
       style="fill:#ef2c30;fill-opacity:1;fill-rule:evenodd;stroke:none"
       id="path125" />
    <path
       d="M 200.89116,420.54206 C 201.05241,420.15456 201.45616,418.94331 201.69866,418.55582 C 201.45616,418.16832 201.05241,417.74832 200.71366,417.74832 C 200.89116,417.36082 201.56991,416.82707 201.45616,416.48832 C 201.27992,416.14959 200.98867,416.21336 200.30992,415.80962 C 200.55242,415.34209 201.05241,415.06712 201.40866,415.00212 C 201.79616,414.95337 201.79616,414.37209 202.42616,414.03342 C 203.10365,413.67835 203.86244,413.67835 204.65364,413.6296 C 205.73617,413.75837 208.72369,414.5346 207.91616,418.16832 C 209.69244,421.76962 215.97367,416.94082 218.13741,416.94082 C 217.74991,417.74832 217.16867,418.55582 216.78117,419.36331 C 217.34616,419.75081 218.13741,419.36331 218.7837,419.36331 C 218.13741,421.34962 216.95867,422.15712 215.97367,422.96462 C 216.95867,426.17835 220.67369,424.9021 223.98366,424.56336 C 223.59616,425.62956 222.20742,425.75842 221.57742,426.56585 C 222.72367,427.76084 223.98366,429.35957 224.79116,430.95839 C 223.30491,429.98961 220.20494,428.97207 219.18745,428.55209 C 217.16867,427.76084 213.13241,427.76084 211.11367,428.55209 C 211.51742,429.35957 212.32492,429.77957 212.95491,430.16707 C 211.92117,432.15331 209.91869,430.95839 208.72369,430.55457 C 207.6737,431.36206 205.80117,431.42706 205.29992,430.95839 C 205.29992,430.95839 205.29992,430.45836 205.89742,430.03836 C 206.31742,429.48959 204.70242,429.35957 204.24992,428.55209 C 204.24992,427.82584 205.05742,428.55209 205.50992,427.76084 C 204.49242,425.75842 200.30992,425.37085 200.89116,420.54206 z M 203.73369,414.82459 C 203.91119,414.82459 204.07244,415.00212 204.07244,415.24459 C 204.07244,415.40587 203.91119,415.58462 203.73369,415.58462 C 203.52369,415.58462 203.34619,415.40587 203.34619,415.24459 C 203.34619,415.00212 203.52369,414.82459 203.73369,414.82459"
       style="fill:#ef2c30;fill-opacity:1;fill-rule:evenodd;stroke:none"
       id="path127" />
    <path
       d="M 193.05364,363.3821 C 192.93367,363.3821 192.63367,363.26209 193.05364,363.14207 C 193.29366,363.14207 193.89367,363.14207 194.55366,363.98207 C 194.85365,363.86206 195.51366,362.78212 196.23369,363.14207 C 196.23369,363.20212 193.89367,368.36332 193.65365,368.7834 C 192.63367,368.24332 186.63244,367.88336 187.23241,367.88336 C 187.71241,367.88336 181.77244,368.06334 180.87244,368.7834 C 180.57242,368.24332 178.23244,363.02206 178.23244,363.02206 C 178.95242,362.72207 179.73244,363.74205 179.97244,363.86206 C 180.57242,363.02206 181.17242,363.02206 181.29244,363.02206 C 181.89241,363.14207 181.53241,363.26209 181.47241,363.3821 C 178.59242,365.72211 182.79241,368.36332 183.69241,365.72211 C 187.41242,366.14211 186.39241,363.14207 185.49241,362.72207 C 184.77242,362.5421 185.25244,362.42209 185.49241,362.42209 C 185.79244,362.24211 186.27245,362.24211 186.27245,362.5421 C 186.27245,360.92086 186.39241,359.84084 187.23241,359.36087 C 188.13241,359.96085 188.25242,360.92086 188.13241,362.5421 C 188.25242,362.24211 188.67369,362.42209 189.03367,362.42209 C 189.15242,362.5421 189.75366,362.5421 189.15242,362.78212 C 188.13241,363.14207 187.23241,366.32209 190.89369,365.72211 C 191.73367,368.36332 196.17369,365.42212 193.05364,363.3821 z M 190.5937,366.50206 L 191.67367,367.76335 L 189.57369,367.46336 L 190.5937,366.50206 z M 187.23241,365.06209 L 188.55241,367.46336 L 185.97241,367.46336 L 187.23241,365.06209 z M 183.93244,366.50206 L 182.85241,367.76335 L 184.95245,367.46336 L 183.93244,366.50206"
       style="fill:#ffffff;fill-opacity:1;fill-rule:evenodd;stroke:none"
       id="path129" />
    <path
       d="M 182.43867,371.7108 C 182.01867,370.99081 181.53867,369.73082 181.29869,369.43084 C 182.31992,368.65081 186.09995,368.53087 187.47991,368.53087 C 189.51994,368.53087 192.33991,368.83086 193.23991,369.43084 C 193.23991,369.43084 192.81991,370.93085 192.45992,371.83081 C 190.83994,371.23084 188.67994,370.99081 187.23992,370.99081 C 185.61994,370.99081 183.69866,371.23084 182.43867,371.7108 z M 191.85995,369.67086 C 192.21994,369.67086 192.57994,370.03081 192.57994,370.33087 C 192.57994,370.69082 192.21994,371.05086 191.85995,371.05086 C 191.55992,371.05086 191.19992,370.69082 191.19992,370.33087 C 191.19992,370.03081 191.55992,369.67086 191.85995,369.67086 z M 189.63995,369.19081 C 189.99994,369.19081 190.35992,369.55085 190.35992,369.85084 C 190.35992,370.21086 189.99994,370.5709 189.63995,370.5709 C 189.33992,370.5709 188.97992,370.21086 188.97992,369.85084 C 188.97992,369.55085 189.33992,369.19081 189.63995,369.19081 z M 187.29994,369.01084 C 187.65992,369.01084 188.01992,369.37087 188.01992,369.67086 C 188.01992,370.03081 187.65992,370.39084 187.29994,370.39084 C 186.99995,370.39084 186.63991,370.03081 186.63991,369.67086 C 186.63991,369.37087 186.99995,369.01084 187.29994,369.01084 z M 184.95992,369.19081 C 185.31991,369.19081 185.67995,369.55085 185.67995,369.85084 C 185.67995,370.21086 185.31991,370.5709 184.95992,370.5709 C 184.65994,370.5709 184.29994,370.21086 184.29994,369.85084 C 184.29994,369.55085 184.65994,369.19081 184.95992,369.19081 z M 182.79866,369.67086 C 183.15866,369.67086 183.51991,370.03081 183.51991,370.33087 C 183.51991,370.69082 183.15866,371.05086 182.79866,371.05086 C 182.49994,371.05086 182.13995,370.69082 182.13995,370.33087 C 182.13995,370.03081 182.49994,369.67086 182.79866,369.67086"
       style="fill:#ffffff;fill-opacity:1;fill-rule:evenodd;stroke:none"
       id="path131" />
    <path
       d="M 187.22864,371.4733 C 189.86867,371.4733 192.31492,371.96211 192.31492,372.25585 C 192.31492,372.54957 190.16245,372.74459 187.42369,372.74459 C 184.78242,372.74459 182.53366,372.54957 182.53366,372.25585 C 182.53366,371.96211 184.58741,371.4733 187.22864,371.4733"
       style="fill:#ffffff;fill-opacity:1;fill-rule:evenodd;stroke:none"
       id="path133" />
    <path
       d="M 505.40746,359.42961 C 508.56619,359.42961 511.21617,362.02834 511.21617,365.23832 C 511.21617,368.44832 508.56619,371.09831 505.40746,371.09831 C 502.24866,371.09831 499.64994,368.44832 499.64994,365.23832 C 499.64994,362.02834 502.24866,359.42961 505.40746,359.42961 z M 560.48367,421.08459 C 560.22862,423.63211 559.05744,425.31332 554.26747,426.63832 C 550.49741,427.86086 550.95616,429.84831 554.77742,430.00212 C 565.06871,428.52461 568.27864,428.77837 577.49997,429.79835 C 581.11867,429.74707 580.50619,427.40332 578.26497,426.33337 C 572.86367,424.2433 571.99742,424.19211 570.92862,418.84207 L 570.51992,364.83085 C 570.51992,361.7221 571.69247,358.10461 568.38117,358.91959 C 562.21616,361.3658 561.70621,361.56959 556.10242,363.50585 C 553.14749,364.77957 554.26747,366.20581 556.40745,366.91962 C 559.41374,368.14207 559.66871,369.9771 559.82122,372.16834 L 560.48367,421.08459 z M 528.79369,420.77834 C 528.53871,423.32709 527.36616,425.00837 522.57741,426.33337 C 518.80742,427.55584 519.26496,429.54337 523.08744,429.69587 C 533.37865,428.21837 536.58872,428.47335 545.80991,429.4921 C 549.42746,429.44082 548.81612,427.09707 546.57491,426.02706 C 541.17369,423.93836 540.30744,423.88709 539.23741,418.53712 L 538.82994,364.5246 C 538.82994,361.41585 540.00241,357.79837 536.68996,358.61456 C 530.52495,361.05956 530.01615,361.26334 524.41121,363.1996 C 521.4562,364.47334 522.57741,365.90086 524.71746,366.61337 C 527.72367,367.83705 527.97742,369.67086 528.13124,371.8621 L 528.79369,420.77834 z M 499.90495,399.53086 C 499.64994,396.77962 499.29369,394.63957 496.13492,393.72206 C 493.89245,393.51836 492.82369,391.47956 496.03242,390.2571 C 502.45245,388.16832 503.36995,387.81081 508.31121,383.83711 C 509.83991,383.02092 511.62366,383.68339 510.75742,386.43584 C 510.4012,388.52461 510.45117,389.4921 510.29866,391.73461 L 510.34994,419.86212 C 510.60491,424.44709 514.1712,425.21209 516.46367,426.1296 C 518.75615,427.04589 518.95994,429.74707 516.25997,429.79835 C 506.2737,428.42207 504.08246,428.26956 494.45364,430.20582 C 491.24369,430.2571 490.52995,427.81081 494.50494,426.38457 C 498.47864,424.95711 499.80364,424.29457 500.00745,420.88087 L 499.90495,399.53086 z M 411.50869,394.33341 C 413.74994,370.33339 429.13617,360.29586 450.78992,358.5121 C 473.61494,358.66461 476.8762,360.19331 476.56995,372.93211 C 476.72369,377.51837 473.66616,378.58832 471.5262,373.39087 C 469.0812,368.70337 467.04244,366.00211 461.23495,363.60709 C 441.5687,359.17456 426.99742,371.81082 426.12992,393.31457 C 424.75496,423.63211 458.68745,432.49831 465.71745,421.18712 C 467.19617,418.23081 467.19617,410.38459 466.99114,403.91334 C 465.76867,399.6321 461.6937,400.0408 457.71867,399.88707 C 453.4387,400.19331 451.91117,395.35209 457.6687,395.40335 C 463.22119,395.40335 473.92117,395.9133 487.67744,394.63957 C 491.75245,394.79209 492.05869,398.5121 487.06612,399.0721 C 484.9262,399.47959 480.39114,399.42831 479.77995,402.9959 C 479.26996,421.44087 483.54994,423.22462 469.64116,428.26956 C 451.91117,432.44711 432.80492,430.51085 422.00365,420.06582 C 417.16367,415.78581 411.1012,405.95084 411.50869,394.33341 z M 365.70494,406.66457 C 367.69116,386.6896 384.24992,382.0021 392.75869,381.95082 C 402.8462,382.25707 406.05619,385.5683 406.15869,388.9321 C 406.25994,392.2946 403.86614,394.07836 401.26745,393.36585 C 395.7137,391.93831 396.78369,386.07832 389.39619,385.61957 C 381.04116,386.84332 375.99619,396.21832 377.42242,407.42835 C 378.84992,418.63837 389.70242,426.99591 402.9487,420.16707 C 406.15869,419.45456 406.4137,422.10334 403.81494,423.93836 C 379.46119,438.91837 364.68617,417.56835 365.70494,406.66457 z M 290.50366,373.13582 C 289.99494,366.25709 287.85494,368.34586 282.60744,366.25709 C 278.37744,365.44211 278.02117,362.38455 282.19869,362.23212 C 289.73992,362.79211 293.50991,362.89457 299.77616,361.92587 C 302.62994,362.38455 303.85244,363.55711 304.92242,366.30842 C 310.16992,377.41706 317.81244,394.07836 323.0612,405.18706 C 323.97745,407.17337 324.48744,407.58207 325.6587,405.0334 L 341.14744,365.44211 C 342.87992,362.07831 344.76495,361.26334 350.16492,361.77336 C 359.48869,361.92587 361.78117,361.6709 366.36742,361.1621 C 370.34116,361.31461 370.08619,364.37209 366.16369,365.44211 C 360.15119,365.4933 356.99242,367.53081 356.07617,372.01461 L 356.94116,417.4671 C 357.90994,424.2433 361.42491,424.44709 367.74244,426.07832 C 370.59617,427.35205 369.98495,429.33959 367.5387,430.00212 C 354.3437,428.47335 349.75744,428.57459 336.66367,429.84831 C 332.89369,430.20582 332.63867,426.94457 336.71495,426.07832 C 341.55492,425.00837 342.77742,424.14206 343.84744,421.59461 L 342.87992,377.77335 C 342.72745,376.04086 341.6562,376.04086 340.99492,378.07837 L 322.49994,424.29457 C 320.76741,428.21837 320.00364,428.21837 318.11869,425.16081 L 296.26119,377.82462 C 295.59869,376.1933 294.78369,376.70332 294.68119,377.72207 L 294.88619,419.50461 C 295.49745,424.34585 298.85991,424.65086 305.68742,426.79206 C 307.62242,427.40332 307.72492,429.03342 306.14492,430.0521 C 292.79619,428.9321 290.65617,428.9321 278.27619,430.51085 C 276.33992,430.51085 275.42241,427.65707 278.42866,427.24959 C 285.0012,425.3646 286.78495,425.26335 287.75244,421.49207 L 290.50366,373.13582"
       style="fill:#ef2c30;fill-opacity:1;fill-rule:evenodd;stroke:none"
       id="path135" />
  </g>
</svg>
