<?xml version="1.0" encoding="UTF-8"?>
<svg width="184px" height="54px" viewBox="0 0 184 54" version="1.1" xmlns="http://www.w3.org/2000/svg" xmlns:xlink="http://www.w3.org/1999/xlink">
    <!-- Generator: Sketch 59.1 (86144) - https://sketch.com -->
    <title>Logo_MSSSQ</title>
    <desc>Created with Sketch.</desc>
    <g id="🛠-Components" stroke="none" stroke-width="1" fill="none" fill-rule="evenodd">
        <g id="Footer" transform="translate(-699.000000, -1303.000000)">
            <g id="Logo_MSSSQ" transform="translate(699.000000, 1303.000000)">
                <g id="g2846" transform="translate(67.093921, 41.630283) scale(-1, 1) rotate(-180.000000) translate(-67.093921, -41.630283) translate(59.093921, 33.630283)" fill="#231F20" fill-rule="nonzero">
                    <path d="M14.5507779,4.0863704 L14.5507779,15.626754 L14.4618564,15.626754 C14.0528179,15.246817 12.5363035,15.2193322 11.8928358,15.2193322 L10.7788929,15.2193322 L10.7788929,15.1239438 C12.0658284,14.3349683 11.8896023,13.164439 11.8896023,11.7093612 L11.8928358,6.82838365 C11.8928358,4.38708647 9.49357418,2.67332819 7.56155423,2.67332819 C5.01355135,2.67332819 3.95619483,4.48409166 3.95619483,7.40071425 L3.95619483,15.626754 L3.86889016,15.626754 C3.45823487,15.246817 1.9336367,15.2193322 1.29016897,15.2193322 L0.184309853,15.2193322 L0.184309853,15.1239438 C1.47286207,14.3349683 1.29663598,13.164439 1.29663598,11.7093612 L1.29663598,6.84293443 C1.29663598,2.39201315 3.22865593,0.272449846 6.68204055,0.272449846 C8.73046672,0.272449846 10.8354792,0.999988739 11.8928358,2.73638156 L11.8928358,0.631369033 L15.6614872,0.631369033 L15.6614872,0.725140712 C14.372935,1.45591311 14.5507779,2.62805911 14.5507779,4.0863704" id="path2848"></path>
                </g>
                <g id="g2850" transform="translate(83.170015, 41.927766) scale(-1, 1) rotate(-180.000000) translate(-83.170015, -41.927766) translate(76.170015, 33.927766)" fill="#231F20" fill-rule="nonzero">
                    <path d="M3.32248151,10.5533828 C3.67493368,12.5371388 5.13809524,13.7965895 7.09921674,13.7965895 C9.20907953,13.7965895 10.5558349,12.7570173 10.8775687,10.5533828 L3.32248151,10.5533828 Z M13.9526331,8.71513451 C14.0706561,12.7877356 11.3448104,15.8595664 7.36436425,15.8595664 C3.00074764,15.8595664 0.0453229845,12.6955806 0.0453229845,8.30447923 C0.0453229845,3.87780925 3.46798929,0.508495798 8.44758882,0.508495798 C9.82667921,0.508495798 11.2300209,0.728374219 12.4894716,1.28938754 L13.9526331,4.26097973 L13.8637117,4.26097973 C12.5169564,3.11631854 10.8225991,2.57470625 9.06357175,2.57470625 C5.75407817,2.57470625 3.26266165,4.83331033 3.20445853,8.71513451 L13.9526331,8.71513451 L13.9526331,8.71513451 Z" id="path2852"></path>
                </g>
                <g id="g2854" transform="translate(98.789116, 37.978298) scale(-1, 1) rotate(-180.000000) translate(-98.789116, -37.978298) translate(91.289116, 26.478298)" fill="#231F20" fill-rule="nonzero">
                    <path d="M1.15841976,22.17621 C1.86009061,22.17621 3.29253385,22.2198623 3.72259017,22.6466852 L3.80989484,22.6466852 L3.80989484,2.66200014 C4.5972536,2.44373847 5.41209716,2.28529667 6.22694072,2.28529667 C9.42487834,2.28529667 11.2598931,4.5212662 11.2598931,7.64321643 C11.2598931,10.7004965 9.83391687,13.0641896 6.8962765,13.0641896 C5.96664347,13.0641896 5.23748782,12.8135928 4.45174582,12.3722192 L6.02161307,15.0592629 C6.69094886,15.3147099 7.38938619,15.4084815 8.08944028,15.4084815 C11.4070176,15.4084815 14.226635,12.5290443 14.226635,8.21069677 C14.226635,3.26343229 10.8815729,0.0606444104 5.58508974,0.0606444104 C3.6078007,0.0606444104 1.70811582,0.409863079 0.272439066,0.632975006 L0.272439066,0.728363439 C1.24249092,1.17458729 1.15195275,2.21900979 1.15195275,3.26343229 L1.15195275,17.7899589 C1.15195275,19.2450366 1.32817884,21.2869958 0.0687281759,22.0792048 L0.0687281759,22.17621 L1.15841976,22.17621" id="path2856"></path>
                </g>
                <g id="g2858" transform="translate(114.394365, 41.927766) scale(-1, 1) rotate(-180.000000) translate(-114.394365, -41.927766) translate(107.394365, 33.927766)" fill="#231F20" fill-rule="nonzero">
                    <path d="M3.32248151,10.5533828 C3.67493368,12.5371388 5.13809524,13.7965895 7.09921674,13.7965895 C9.20907953,13.7965895 10.5558349,12.7570173 10.8775687,10.5533828 L3.32248151,10.5533828 Z M13.9526331,8.71513451 C14.0706561,12.7877356 11.3480439,15.8595664 7.3627475,15.8595664 C3.00074764,15.8595664 0.0420894783,12.6955806 0.0420894783,8.30447923 C0.0420894783,3.87780925 3.46798929,0.508495798 8.44758882,0.508495798 C9.82344571,0.508495798 11.2300209,0.728374219 12.4878548,1.28938754 L13.9526331,4.26097973 L13.8653284,4.26097973 C12.5185731,3.11631854 10.8193656,2.57470625 9.061955,2.57470625 C5.75084466,2.57470625 3.26266165,4.83331033 3.20445853,8.71513451 L13.9526331,8.71513451 L13.9526331,8.71513451 Z" id="path2860"></path>
                </g>
                <g id="g2862" transform="translate(129.775796, 41.858246) scale(-1, 1) rotate(-180.000000) translate(-129.775796, -41.858246) translate(122.275796, 33.858246)" fill="#231F20" fill-rule="nonzero">
                    <path d="M12.1701359,12.1701359 L12.0828312,12.1701359 C11.2340358,13.2210254 9.82746064,13.7270691 8.50980687,13.7270691 C5.67078843,13.7270691 3.62074551,11.5703205 3.62074551,8.55669271 C3.62074551,4.91253123 6.4613807,2.50518587 9.71105442,2.50518587 C11.2049343,2.50518587 12.8443219,3.13895308 13.9873664,4.0588856 L14.0762878,4.0588856 L12.5549231,1.06304211 C11.3213405,0.565082156 9.97458517,0.438975414 8.6844162,0.438975414 C4.17529182,0.438975414 0.65077007,3.61266174 0.65077007,7.73376538 C0.65077007,13.1854568 4.58756386,15.7900461 9.00776682,15.7900461 C10.0635066,15.7900461 11.1467312,15.6655561 12.1701359,15.4165761 L12.1701359,12.1701359" id="path2864"></path>
                </g>
                <g id="g2866" transform="translate(84.031167, 30.923527) scale(-1, 1) rotate(-180.000000) translate(-84.031167, -30.923527) translate(81.531167, 27.923527)" fill="#231F20">
                    <path d="M4.93923461,2.4696173 C4.93923461,3.94571288 4.93923461,5.64168688 4.93923461,5.64168688 C3.02014868,4.78157423 1.23848677,3.1729049 0.0485564907,1.60950466 L0.0485564907,0.372688537 C2.89727545,2.29339122 4.93923461,2.38392939 4.93923461,2.4696173" id="path2868"></path>
                </g>
                <g id="g2870" transform="translate(49.409681, 40.558147) scale(-1, 1) rotate(-180.000000) translate(-49.409681, -40.558147) translate(35.909681, 26.558147)" fill="#231F20" fill-rule="nonzero">
                    <path d="M11.3172717,7.31987659 C6.8938352,7.31987659 3.81877081,12.3059431 3.81877081,16.5450698 C3.81877081,16.5903388 3.81877081,16.9815931 3.81877081,17.0236287 C3.87374042,21.1285648 6.53329926,24.9796707 11.1717639,24.9796707 C16.0527415,24.9796707 18.5700261,20.3654573 18.6104449,15.9889067 C18.6104449,15.9517214 18.6104449,15.5685509 18.6104449,15.5313656 C18.6104449,10.8670329 15.7132233,7.31987659 11.3172717,7.31987659 Z M26.4759487,2.46800055 C23.2117242,1.93608878 20.0719897,2.962727 16.736628,6.7782643 C19.958817,8.39663415 21.94904,12.4255829 21.94904,16.1683663 C21.94904,16.2055516 21.94904,16.5919556 21.94904,16.6323744 C21.8908369,23.0347167 17.0826132,27.2641428 11.3463732,27.2641428 C5.60043272,27.2641428 0.523828003,22.8633409 0.480175669,16.4092625 C0.480175669,16.3785442 0.480175669,16.0018407 0.480175669,15.9759727 C0.480175669,9.69488689 5.13642459,5.03540447 10.8484133,5.03540447 C11.6697238,5.03540447 12.4603161,5.16312796 13.2492916,5.35228807 C16.992075,1.84878411 20.3258199,0.354904253 23.2068739,0.704122922 C24.5730303,0.869031738 26.0167908,1.41064403 26.8849872,2.53590418 L26.4759487,2.46800055 L26.4759487,2.46800055 Z" id="path2872"></path>
                </g>
                <g id="g2874" transform="translate(4.354830, 5.234861) scale(-1, 1) rotate(-180.000000) translate(-4.354830, -5.234861) translate(0.354830, 0.234861)" fill="#231F20" fill-rule="nonzero">
                    <path d="M7.31987659,7.31987659 C6.68772613,7.60442514 6.0442584,7.7402324 5.37492262,7.7402324 C4.3207996,7.7402324 3.78888783,7.41849853 3.78888783,6.86071871 C3.78888783,6.2544363 4.38385297,6.19299968 5.28761795,5.7580931 C6.53898484,5.15181069 7.13394998,4.63121619 7.13394998,3.47847123 C7.13394998,1.66932452 5.68372246,0.393706328 3.13086932,0.393706328 C2.11554837,0.393706328 1.16166405,0.542447613 0.256282315,0.864181479 L0.752625515,2.63614287 C1.44621259,2.28854096 2.11554837,2.10261435 2.78488416,2.10261435 C3.99906573,2.10261435 4.67971878,2.53590418 4.67971878,3.18098866 C4.67971878,3.92469509 3.98613171,4.06050235 2.80913545,4.55684555 C1.8423171,4.96588408 1.35890793,5.62228584 1.35890793,6.57617017 C1.35890793,8.18645625 2.75901611,9.37638653 4.97720135,9.37638653 C6.20431695,9.37638653 7.18406933,9.24057927 7.85340511,8.99321604 L7.31987659,7.31987659" id="path2876"></path>
                </g>
                <g id="g2878" transform="translate(11.734104, 6.501625) scale(-1, 1) rotate(-180.000000) translate(-11.734104, -6.501625) translate(8.234104, 2.501625)" fill="#231F20" fill-rule="nonzero">
                    <path d="M6.46701238,2.4696173 C6.36839044,2.01045942 6.25683448,1.47854766 6.20671513,0.859331219 L4.3603831,0.859331219 L4.48487309,1.82453282 C3.98852989,1.09376042 3.23188944,0.721907206 2.27800511,0.721907206 C0.965201598,0.721907206 0.147124532,1.49148168 0.147124532,2.61835859 C0.147124532,4.04271807 1.4615448,4.93516577 3.90122522,4.93516577 C4.22457584,4.93516577 4.570561,4.91091448 4.92948019,4.87372916 C4.94241421,4.9480998 4.94241421,5.02247044 4.94241421,5.08390706 C4.94241421,5.72899154 4.52205841,6.07497671 3.71529861,6.07497671 C2.97320894,6.07497671 2.27800511,5.91491815 1.63453738,5.59156753 L1.89483463,7.07898038 C2.58842171,7.3263436 3.28200878,7.45083359 4.01278118,7.45083359 C5.93348386,7.45083359 6.97467286,6.64569055 6.97467286,5.41857495 C6.97467286,5.12109238 6.92455351,4.72498787 6.8388656,4.27876402 L6.46701238,2.4696173 Z M4.03864923,3.79535484 C2.84871895,3.79535484 2.22950252,3.44775293 2.22950252,2.80428519 C2.22950252,2.38231264 2.55123639,2.08483007 3.04596283,2.08483007 C3.81553731,2.08483007 4.50912438,2.70566325 4.66918294,3.77110354 C4.44607101,3.79535484 4.23589311,3.79535484 4.03864923,3.79535484 L4.03864923,3.79535484 Z" id="path2880"></path>
                </g>
                <g id="g2882" transform="translate(19.811410, 6.143911) scale(-1, 1) rotate(-180.000000) translate(-19.811410, -6.143911) translate(15.311410, 2.643911)" fill="#231F20" fill-rule="nonzero">
                    <path d="M7.31987659,0 L5.10169134,0 L5.77102712,3.19793762 C5.82114647,3.43236682 5.84539777,3.64254472 5.84539777,3.82847133 C5.84539777,4.43637049 5.53498117,4.77103839 5.04025473,4.77103839 C4.16074104,4.77103839 3.57709317,4.07745131 3.2796106,2.6886604 L2.71051351,0 L0.479394242,0 L1.8423171,6.43144382 L3.83739042,6.43144382 L3.5900272,5.29163288 C4.30948233,6.10970995 5.12594264,6.53006575 6.01839035,6.53006575 C7.33281062,6.53006575 8.10076834,5.72492271 8.10076834,4.30056323 C8.10076834,3.8915247 8.02639769,3.30787683 7.86472238,2.53991911 L7.31987659,0" id="path2884"></path>
                </g>
                <g id="g2886" transform="translate(27.121101, 5.329891) scale(-1, 1) rotate(-180.000000) translate(-27.121101, -5.329891) translate(24.121101, 0.829891)" fill="#231F20" fill-rule="nonzero">
                    <path d="M4.0863704,6.5559877 L5.65947116,6.5559877 L5.33773729,5.03138953 L3.76463653,5.03138953 L3.29416138,2.81320428 C3.23110801,2.54158976 3.20685671,2.35566316 3.20685671,2.25542447 C3.20685671,1.79788334 3.40410059,1.59902271 3.90044379,1.59902271 C4.07505313,1.59902271 4.32241635,1.63620803 4.63121619,1.7235127 L4.30948233,0.198914529 C3.80182185,0.111609861 3.39278332,0.0631072685 3.08236673,0.0631072685 C1.75662919,0.0631072685 1.00160549,0.769628371 1.00160549,1.99512722 C1.00160549,2.21823915 1.02585679,2.4300338 1.06304211,2.62727768 L1.57070258,5.03138953 L0.269216339,5.03138953 L0.592566959,6.5559877 L1.89243645,6.5559877 L2.21578707,8.06765185 L4.54552828,8.68686828 L4.0863704,6.5559877" id="path2888"></path>
                </g>
                <g id="g2890" transform="translate(33.454768, 5.263127) scale(-1, 1) rotate(-180.000000) translate(-33.454768, -5.263127) translate(29.454768, 0.263127)" fill="#231F20" fill-rule="nonzero">
                    <path d="M2.4696173,3.23350619 C2.55692197,2.29255589 3.07751647,1.85764931 4.10577144,1.85764931 C4.78642449,1.85764931 5.54306494,2.01932462 6.27383734,2.34105848 L6.02647411,0.767957721 C5.27145042,0.531911769 4.47762465,0.409038533 3.67248161,0.409038533 C1.66447426,0.409038533 0.474543983,1.58603479 0.474543983,3.3951815 C0.474543983,4.43475374 0.920767837,5.51312806 1.61435492,6.19539786 C2.2836907,6.85179962 3.25050905,7.19940154 4.4517566,7.19940154 C6.22533474,7.19940154 7.19053634,6.19539786 7.19053634,4.44768777 C7.19053634,4.08876858 7.14203375,3.67973005 7.04179506,3.23350619 L2.4696173,3.23350619 Z M5.37007236,4.75810436 C5.37007236,5.46462546 4.93516577,5.91084932 4.25451272,5.91084932 C3.57224291,5.91084932 3.00314582,5.3773208 2.7557826,4.46062179 L5.34420431,4.46062179 C5.35713833,4.55924373 5.37007236,4.65948242 5.37007236,4.75810436 Z M4.41618803,9.65201598 L6.73299522,9.65201598 L6.73299522,9.38040146 L4.68780255,7.86873732 L3.22625775,7.86873732 L3.22625775,8.0174786 L4.41618803,9.65201598 L4.41618803,9.65201598 Z" id="path2892"></path>
                </g>
                <g id="g2894" transform="translate(4.547221, 18.653923) scale(-1, 1) rotate(-180.000000) translate(-4.547221, -18.653923) translate(0.547221, 14.653923)" fill="#231F20" fill-rule="nonzero">
                    <path d="M2.4696173,3.23350619 C2.55530522,2.29255589 3.07589971,1.85764931 4.10577144,1.85764931 C4.78642449,1.85764931 5.54144818,2.01932462 6.27383734,2.34105848 L6.02485736,0.767957721 C5.26983366,0.531911769 4.47600789,0.409038533 3.67086485,0.409038533 C1.66447426,0.409038533 0.474543983,1.58603479 0.474543983,3.3951815 C0.474543983,4.43475374 0.920767837,5.51312806 1.61435492,6.19539786 C2.2836907,6.85179962 3.25050905,7.19940154 4.4517566,7.19940154 C6.22371799,7.19940154 7.19053634,6.19539786 7.19053634,4.44768777 C7.19053634,4.08876858 7.140417,3.67973005 7.04179506,3.23350619 L2.4696173,3.23350619 Z M5.3684556,4.75810436 C5.3684556,5.46462546 4.93516577,5.91084932 4.25451272,5.91084932 C3.57224291,5.91084932 3.00152907,5.3773208 2.75416585,4.46062179 L5.34420431,4.46062179 C5.35713833,4.55924373 5.3684556,4.65786567 5.3684556,4.75810436 L5.3684556,4.75810436 Z" id="path2896"></path>
                </g>
                <g id="g2898" transform="translate(11.260751, 17.722304) scale(-1, 1) rotate(-180.000000) translate(-11.260751, -17.722304) translate(8.260751, 13.222304)" fill="#231F20" fill-rule="nonzero">
                    <path d="M4.0863704,6.5559877 L5.66108791,6.5559877 L5.33773729,5.03138953 L3.76463653,5.03138953 L3.29416138,2.81320428 C3.23110801,2.54158976 3.20685671,2.35566316 3.20685671,2.25542447 C3.20685671,1.79788334 3.40410059,1.59902271 3.90044379,1.59902271 C4.07505313,1.59902271 4.32241635,1.63620803 4.63283295,1.7235127 L4.30948233,0.198914529 C3.80182185,0.111609861 3.39278332,0.0631072685 3.08236673,0.0631072685 C1.75662919,0.0631072685 1.00160549,0.769628371 1.00160549,1.99512722 C1.00160549,2.21823915 1.02585679,2.4300338 1.06304211,2.62727768 L1.57070258,5.03138953 L0.269216339,5.03138953 L0.592566959,6.5559877 L1.89243645,6.5559877 L2.21578707,8.06765185 L4.54552828,8.68686828 L4.0863704,6.5559877" id="path2900"></path>
                </g>
                <g id="g2902" transform="translate(21.220795, 17.625657) scale(-1, 1) rotate(-180.000000) translate(-21.220795, -17.625657) translate(17.220795, 12.625657)" fill="#231F20" fill-rule="nonzero">
                    <path d="M7.31987659,7.31987659 C6.68772613,7.60442514 6.04264164,7.7402324 5.37492262,7.7402324 C4.3207996,7.7402324 3.78727108,7.41849853 3.78727108,6.86071871 C3.78727108,6.2544363 4.38223622,6.19138293 5.28761795,5.7580931 C6.53898484,5.15181069 7.13394998,4.63121619 7.13394998,3.47847123 C7.13394998,1.66932452 5.68372246,0.393706328 3.13086932,0.393706328 C2.11554837,0.393706328 1.16166405,0.542447613 0.256282315,0.864181479 L0.752625515,2.63614287 C1.44621259,2.28854096 2.11554837,2.10261435 2.78488416,2.10261435 C3.99906573,2.10261435 4.67971878,2.53590418 4.67971878,3.18098866 C4.67971878,3.92469509 3.98613171,4.06050235 2.80913545,4.55684555 C1.8423171,4.96588408 1.35890793,5.62228584 1.35890793,6.57617017 C1.35890793,8.18645625 2.75901611,9.37638653 4.97720135,9.37638653 C6.20431695,9.37638653 7.18406933,9.24057927 7.85340511,8.99321604 L7.31987659,7.31987659" id="path2904"></path>
                </g>
                <g id="g2906" transform="translate(28.956959, 18.653923) scale(-1, 1) rotate(-180.000000) translate(-28.956959, -18.653923) translate(24.956959, 14.653923)" fill="#231F20" fill-rule="nonzero">
                    <path d="M2.4696173,3.23350619 C2.55692197,2.29255589 3.07589971,1.85764931 4.10577144,1.85764931 C4.78642449,1.85764931 5.54306494,2.01932462 6.27383734,2.34105848 L6.02647411,0.767957721 C5.26983366,0.531911769 4.47762465,0.409038533 3.67086485,0.409038533 C1.66447426,0.409038533 0.474543983,1.58603479 0.474543983,3.3951815 C0.474543983,4.43475374 0.920767837,5.51312806 1.61435492,6.19539786 C2.2836907,6.85179962 3.25050905,7.19940154 4.4517566,7.19940154 C6.22371799,7.19940154 7.19053634,6.19539786 7.19053634,4.44768777 C7.19053634,4.08876858 7.140417,3.67973005 7.04179506,3.23350619 L2.4696173,3.23350619 Z M5.3684556,4.75810436 C5.3684556,5.46462546 4.93516577,5.91084932 4.25451272,5.91084932 C3.57224291,5.91084932 3.00314582,5.3773208 2.75416585,4.46062179 L5.34420431,4.46062179 C5.35713833,4.55924373 5.3684556,4.65786567 5.3684556,4.75810436 L5.3684556,4.75810436 Z" id="path2908"></path>
                </g>
                <g id="g2910" transform="translate(36.065401, 18.837039) scale(-1, 1) rotate(-180.000000) translate(-36.065401, -18.837039) translate(32.565401, 15.337039)" fill="#231F20" fill-rule="nonzero">
                    <path d="M5.70312349,4.85025929 C5.30701899,4.96181525 4.98528512,5.02325187 4.7379219,5.02325187 C3.7209842,5.02325187 3.27476034,4.39110141 2.9902118,3.0540466 L2.39524666,0.302332829 L0.164127388,0.302332829 L1.46561363,6.69659132 L3.48493825,6.69659132 L3.25050905,5.53252909 C3.86972548,6.42336005 4.48894192,6.84533261 5.35713833,6.84533261 C5.62875285,6.84533261 5.90198413,6.79521326 6.19946669,6.70952535 L5.70312349,4.85025929" id="path2912"></path>
                </g>
                <g id="g2914" transform="translate(42.946727, 18.633328) scale(-1, 1) rotate(-180.000000) translate(-42.946727, -18.633328) translate(38.946727, 15.133328)" fill="#231F20" fill-rule="nonzero">
                    <polyline id="path2916" points="2.4696173 6.46701238 2.96434375 1.8819006 5.23264834 6.46701238 7.56238955 6.46701238 3.81960614 0.0970051858 1.32980637 0.0970051858 0.26436608 6.46701238 2.4696173 6.46701238"></polyline>
                </g>
                <g id="g2918" transform="translate(48.368046, 17.620394) scale(-1, 1) rotate(-180.000000) translate(-48.368046, -17.620394) translate(45.868046, 13.120394)" fill="#231F20" fill-rule="nonzero">
                    <path d="M4.0863704,6.46701238 L2.69757949,0.0856879141 L0.529513588,0.0856879141 L1.9183045,6.46701238 L4.0863704,6.46701238 Z M4.54552828,8.68519763 L4.3207996,7.5453867 L2.1527337,7.5453867 L2.3629116,8.68519763 L4.54552828,8.68519763 L4.54552828,8.68519763 Z" id="path2920"></path>
                </g>
                <g id="g2922" transform="translate(53.983874, 18.788537) scale(-1, 1) rotate(-180.000000) translate(-53.983874, -18.788537) translate(50.483874, 15.288537)" fill="#231F20" fill-rule="nonzero">
                    <path d="M5.70312349,4.85025929 C5.23264834,5.07337121 4.77349046,5.18492718 4.34020063,5.18492718 C3.15027036,5.18492718 2.36937861,4.44122075 2.36937861,3.35152917 C2.36937861,2.39764484 3.00152907,1.78974568 4.01846677,1.78974568 C4.4275053,1.78974568 4.83492708,1.88836762 5.28276769,2.08722825 L5.02085369,0.400954768 C4.35313466,0.227962187 3.75816952,0.140657519 3.2003897,0.140657519 C1.2425017,0.140657519 0.0396373997,1.34352182 0.0396373997,3.10254919 C0.0396373997,5.25929782 1.58848687,6.80814729 4.07990339,6.80814729 C4.79935851,6.80814729 5.50587962,6.67234003 6.21078397,6.38617473 L5.70312349,4.85025929" id="path2924"></path>
                </g>
                <g id="g2926" transform="translate(60.554785, 18.653923) scale(-1, 1) rotate(-180.000000) translate(-60.554785, -18.653923) translate(56.554785, 14.653923)" fill="#231F20" fill-rule="nonzero">
                    <path d="M2.4696173,3.23350619 C2.55692197,2.29255589 3.07751647,1.85764931 4.10577144,1.85764931 C4.78642449,1.85764931 5.54306494,2.01932462 6.27383734,2.34105848 L6.02647411,0.767957721 C5.26983366,0.531911769 4.47762465,0.409038533 3.67086485,0.409038533 C1.66447426,0.409038533 0.474543983,1.58603479 0.474543983,3.3951815 C0.474543983,4.43475374 0.920767837,5.51312806 1.61435492,6.19539786 C2.2836907,6.85179962 3.25050905,7.19940154 4.4517566,7.19940154 C6.22371799,7.19940154 7.19053634,6.19539786 7.19053634,4.44768777 C7.19053634,4.08876858 7.140417,3.67973005 7.04179506,3.23350619 L2.4696173,3.23350619 Z M5.37007236,4.75810436 C5.37007236,5.46462546 4.93516577,5.91084932 4.25451272,5.91084932 C3.57224291,5.91084932 3.00314582,5.3773208 2.75416585,4.46062179 L5.34420431,4.46062179 C5.35713833,4.55924373 5.37007236,4.65786567 5.37007236,4.75810436 L5.37007236,4.75810436 Z" id="path2928"></path>
                </g>
                <g id="g2930" transform="translate(67.590471, 18.966791) scale(-1, 1) rotate(-180.000000) translate(-67.590471, -18.966791) translate(64.090471, 14.966791)" fill="#231F20" fill-rule="nonzero">
                    <path d="M5.70312349,5.70312349 C5.07097303,5.9133014 4.53906127,6.06204268 4.01846677,6.06204268 C3.37338228,6.06204268 3.02739712,5.82761348 3.02739712,5.48001157 C3.02739712,5.03378771 3.53505759,4.98366837 4.34020063,4.65061723 C5.23264834,4.27876402 5.64168688,3.80667211 5.64168688,3.07589971 C5.64168688,1.72591088 4.52612724,0.759092527 2.62967586,0.759092527 C1.7630962,0.759092527 0.920767837,0.883582516 0.0897567457,1.16813106 L0.548914625,2.7040465 C1.15519704,2.40656393 1.73722815,2.27075667 2.33219329,2.27075667 C3.06296569,2.27075667 3.44775293,2.48093457 3.44775293,2.83985376 C3.44775293,3.28607762 3.07589971,3.37338228 2.5181199,3.59649421 C1.4769309,4.01685002 0.920767837,4.41457128 0.920767837,5.3927069 C0.920767837,6.54545186 2.02339345,7.48801891 3.94409613,7.48801891 C4.65061723,7.48801891 5.3927069,7.3505949 6.18653267,7.10323168 L5.70312349,5.70312349" id="path2932"></path>
                </g>
                <g id="g2934" transform="translate(77.603019, 18.966791) scale(-1, 1) rotate(-180.000000) translate(-77.603019, -18.966791) translate(74.103019, 14.966791)" fill="#231F20" fill-rule="nonzero">
                    <path d="M5.70312349,5.70312349 C5.07097303,5.9133014 4.53744451,6.06204268 4.01846677,6.06204268 C3.37338228,6.06204268 3.02578037,5.82761348 3.02578037,5.48001157 C3.02578037,5.03378771 3.53505759,4.98366837 4.34020063,4.65061723 C5.23264834,4.27876402 5.64168688,3.80667211 5.64168688,3.07589971 C5.64168688,1.72591088 4.52612724,0.759092527 2.62967586,0.759092527 C1.7630962,0.759092527 0.919151084,0.883582516 0.0897567457,1.16813106 L0.548914625,2.7040465 C1.15519704,2.40656393 1.73722815,2.27075667 2.33219329,2.27075667 C3.06296569,2.27075667 3.44775293,2.48093457 3.44775293,2.83985376 C3.44775293,3.28607762 3.07589971,3.37338228 2.5181199,3.59649421 C1.4769309,4.01685002 0.919151084,4.41457128 0.919151084,5.3927069 C0.919151084,6.54545186 2.02339345,7.48801891 3.94409613,7.48801891 C4.65061723,7.48801891 5.3927069,7.3505949 6.18653267,7.10323168 L5.70312349,5.70312349" id="path2936"></path>
                </g>
                <g id="g2938" transform="translate(84.623027, 18.577154) scale(-1, 1) rotate(-180.000000) translate(-84.623027, -18.577154) translate(80.123027, 14.577154)" fill="#231F20" fill-rule="nonzero">
                    <path d="M8.08376548,4.0863704 C8.08376548,1.90537047 6.49773069,0.356521007 3.95781158,0.356521007 C1.91261891,0.356521007 0.685503313,1.48501467 0.685503313,3.26829333 C0.685503313,5.54953195 2.22303551,7.08544739 4.77427189,7.08544739 C6.84371585,7.08544739 8.08376548,5.94563646 8.08376548,4.0863704 Z M4.65139866,5.62228584 C3.75895095,5.62228584 2.94087388,4.65708424 2.94087388,3.29416138 C2.94087388,2.45021627 3.44853435,1.85686788 4.16798948,1.85686788 C5.06043719,1.85686788 5.84132894,2.82206948 5.84132894,4.18499234 C5.84132894,5.07744005 5.35791976,5.62228584 4.65139866,5.62228584 L4.65139866,5.62228584 Z" id="path2940"></path>
                </g>
                <g id="g2942" transform="translate(92.448046, 18.788537) scale(-1, 1) rotate(-180.000000) translate(-92.448046, -18.788537) translate(88.948046, 15.288537)" fill="#231F20" fill-rule="nonzero">
                    <path d="M5.70312349,4.85025929 C5.23264834,5.07337121 4.77349046,5.18492718 4.34020063,5.18492718 C3.15027036,5.18492718 2.36937861,4.44122075 2.36937861,3.35152917 C2.36937861,2.39764484 3.00152907,1.78974568 4.01685002,1.78974568 C4.42588855,1.78974568 4.83492708,1.88836762 5.28276769,2.08722825 L5.02085369,0.400954768 C4.35151791,0.227962187 3.75655277,0.140657519 3.19877295,0.140657519 C1.24088495,0.140657519 0.0396373997,1.34352182 0.0396373997,3.10254919 C0.0396373997,5.25929782 1.58848687,6.80814729 4.07990339,6.80814729 C4.79774176,6.80814729 5.50426286,6.67234003 6.21078397,6.38617473 L5.70312349,4.85025929" id="path2944"></path>
                </g>
                <g id="g2946" transform="translate(97.289377, 17.620394) scale(-1, 1) rotate(-180.000000) translate(-97.289377, -17.620394) translate(94.789377, 13.120394)" fill="#231F20" fill-rule="nonzero">
                    <path d="M4.0863704,6.46701238 L2.69757949,0.0856879141 L0.529513588,0.0856879141 L1.9183045,6.46701238 L4.0863704,6.46701238 Z M4.54552828,8.68519763 L4.32241635,7.5453867 L2.1527337,7.5453867 L2.36452835,8.68519763 L4.54552828,8.68519763 L4.54552828,8.68519763 Z" id="path2948"></path>
                </g>
                <g id="g2950" transform="translate(102.699098, 18.894037) scale(-1, 1) rotate(-180.000000) translate(-102.699098, -18.894037) translate(99.199098, 14.894037)" fill="#231F20" fill-rule="nonzero">
                    <path d="M6.46701238,2.4696173 C6.36839044,2.01045942 6.25683448,1.47854766 6.20671513,0.859331219 L4.3603831,0.859331219 L4.48487309,1.82453282 C3.98852989,1.09376042 3.23350619,0.721907206 2.27962187,0.721907206 C0.965201598,0.721907206 0.147124532,1.49148168 0.147124532,2.61835859 C0.147124532,4.04271807 1.4615448,4.93516577 3.90122522,4.93516577 C4.22457584,4.93516577 4.570561,4.91091448 4.93109694,4.87372916 C4.94241421,4.9480998 4.94241421,5.02247044 4.94241421,5.08390706 C4.94241421,5.72899154 4.52205841,6.07497671 3.71529861,6.07497671 C2.97320894,6.07497671 2.27962187,5.91491815 1.63453738,5.59156753 L1.89321788,7.07898038 C2.58842171,7.3263436 3.28200878,7.45083359 4.01278118,7.45083359 C5.93348386,7.45083359 6.97467286,6.64569055 6.97467286,5.41857495 C6.97467286,5.12109238 6.92455351,4.72498787 6.8388656,4.27876402 L6.46701238,2.4696173 Z M4.03864923,3.79535484 C2.84871895,3.79535484 2.22950252,3.44936968 2.22950252,2.80428519 C2.22950252,2.38231264 2.55123639,2.08483007 3.04757959,2.08483007 C3.81553731,2.08483007 4.50912438,2.70566325 4.66918294,3.77110354 C4.44768777,3.79535484 4.23750986,3.79535484 4.03864923,3.79535484 L4.03864923,3.79535484 Z" id="path2952"></path>
                </g>
                <g id="g2954" transform="translate(110.991848, 18.722304) scale(-1, 1) rotate(-180.000000) translate(-110.991848, -18.722304) translate(106.991848, 15.222304)" fill="#231F20" fill-rule="nonzero">
                    <path d="M3.23350619,6.5559877 L2.56417041,3.35805008 C2.51566782,3.1365549 2.49141652,2.92476025 2.49141652,2.72589962 C2.49141652,2.10668318 2.78889909,1.77201529 3.33374488,1.77201529 C4.13888793,1.77201529 4.75810436,2.47853639 5.05558693,3.8673273 L5.62630077,6.5559877 L7.85580329,6.5559877 L6.49288043,0.185980504 L4.49942387,0.185980504 L4.74678709,1.26435482 C4.02733196,0.446277752 3.2092549,0.0259219473 2.31680719,0.0259219473 C1.00400367,0.0259219473 0.236045952,0.818130964 0.236045952,2.24410719 C0.236045952,2.664463 0.310416594,3.25942814 0.470475151,4.01606859 L1.00400367,6.5559877 L3.23350619,6.5559877" id="path2956"></path>
                </g>
                <g id="g2958" transform="translate(118.695264, 18.633328) scale(-1, 1) rotate(-180.000000) translate(-118.695264, -18.633328) translate(114.195264, 15.133328)" fill="#231F20" fill-rule="nonzero">
                    <polyline id="path2960" points="4.0863704 6.46701238 4.76864021 4.5948123 6.18006566 6.46701238 8.71998477 6.46701238 6.0442584 3.40649877 7.49448592 0.0970051858 5.14049342 0.0970051858 4.38385297 2.10501253 2.92230817 0.0970051858 0.270833092 0.0970051858 3.08236673 3.49218669 1.71944387 6.46701238 4.0863704 6.46701238"></polyline>
                </g>
                <polygon id="path2962" fill="#006CB7" fill-rule="nonzero" points="143.273404 32.9364724 161.020502 32.9364724 161.020502 22.0579876 143.273404 22.0579876"></polygon>
                <g id="g2964" transform="translate(152.295885, 27.679821) scale(-1, 1) rotate(-180.000000) translate(-152.295885, -27.679821) translate(147.295885, 22.179821)" fill="#FFFFFF">
                    <path d="M4.85025929,10.5533828 C4.72253579,10.3108698 4.43152024,9.97135167 3.9432608,9.35536874 C3.37739722,8.65046439 3.47601916,7.71113084 3.74601692,7.15335102 C4.05158326,6.50988329 4.23104285,5.97473801 4.37008362,5.46707754 C4.56571074,4.73307164 4.43637049,3.75008575 4.45092127,3.84062393 L3.95781158,3.84062393 C3.95781158,5.04025473 3.58434161,6.16874839 2.67895988,6.6715586 C1.39040766,7.38292996 0.122873235,6.14449709 0.523828003,4.86079513 C0.737239412,4.18822584 1.11879314,3.96026366 1.22388209,3.96026366 C1.22388209,3.96026366 1.04765601,4.70235333 1.58603479,5.08067355 C2.09046175,5.43797599 2.71291169,5.22133107 3.0023105,4.79935851 C3.27554177,4.39355349 3.31919411,3.84062393 3.31919411,3.84062393 L2.39279458,3.84062393 L2.39279458,3.15512062 L4.25529415,3.15512062 C4.25529415,3.15512062 4.20355805,2.18991902 3.1850036,2.28207394 C3.1850036,2.28207394 3.31272709,1.52219999 4.25529415,1.921538 C4.25529415,1.921538 4.20355805,1.12286197 4.85025929,0.723523959 C5.49696053,1.12286197 5.44845793,1.921538 5.44845793,1.921538 C6.39102499,1.52219999 6.51713173,2.28207394 6.51713173,2.28207394 C5.49696053,2.18991902 5.44845793,3.15512062 5.44845793,3.15512062 L7.30610724,3.15512062 L7.30610724,3.84062393 L6.38132447,3.84062393 C6.38132447,3.84062393 6.42659356,4.39355349 6.69820808,4.79935851 C6.98760688,5.22133107 7.61329033,5.43797599 8.11771729,5.08067355 C8.65286257,4.70235333 8.47986999,3.96026366 8.47986999,3.96026366 C8.58495894,3.96026366 8.96166241,4.18822584 9.17830733,4.86079513 C9.58087885,6.14449709 8.31011091,7.38292996 7.0215587,6.6715586 C6.11941047,6.16874839 5.74432375,5.04025473 5.74432375,3.84062393 L5.25283081,3.84062393 C5.26414808,3.75008575 5.13642459,4.73307164 5.33205171,5.46707754 C5.46947572,5.97473801 5.65055207,6.50988329 5.95773516,7.15335102 C6.22773293,7.71113084 6.32635486,8.65046439 5.75887453,9.35536874 C5.27223185,9.97135167 4.98121629,10.3108698 4.85025929,10.5533828" id="path2966"></path>
                </g>
                <polygon id="path2968" fill="#006CB7" fill-rule="nonzero" points="166.190879 32.9364724 183.944444 32.9364724 183.944444 22.0579876 166.190879 22.0579876"></polygon>
                <g id="g2970" transform="translate(175.213360, 27.679821) scale(-1, 1) rotate(-180.000000) translate(-175.213360, -27.679821) translate(170.213360, 22.179821)" fill="#FFFFFF">
                    <path d="M4.85025929,10.5533828 C4.72091904,10.3108698 4.43152024,9.97135167 3.9432608,9.35536874 C3.37416371,8.65046439 3.4744024,7.71113084 3.74440017,7.15335102 C4.05320001,6.50988329 4.22780935,5.97473801 4.36685011,5.46707754 C4.56409399,4.73307164 4.43637049,3.75008575 4.45092127,3.84062393 L3.95781158,3.84062393 C3.95781158,5.04025473 3.58595837,6.16874839 2.67895988,6.6715586 C1.39040766,7.38292996 0.122873235,6.14449709 0.523828003,4.86079513 C0.738856165,4.18822584 1.11555964,3.96026366 1.22388209,3.96026366 C1.22388209,3.96026366 1.04765601,4.70235333 1.58603479,5.08067355 C2.08722825,5.43797599 2.71129494,5.22133107 2.99907699,4.79935851 C3.27554177,4.39355349 3.31919411,3.84062393 3.31919411,3.84062393 L2.39441133,3.84062393 L2.39441133,3.15512062 L4.25206064,3.15512062 C4.25206064,3.15512062 4.20355805,2.18991902 3.1850036,2.28207394 C3.1850036,2.28207394 3.30949359,1.52219999 4.25206064,1.921538 C4.25206064,1.921538 4.20355805,1.12286197 4.85025929,0.723523959 C5.49372702,1.12286197 5.44360767,1.921538 5.44360767,1.921538 C6.38940823,1.52219999 6.51551498,2.28207394 6.51551498,2.28207394 C5.49372702,2.18991902 5.44360767,3.15512062 5.44360767,3.15512062 L7.30772399,3.15512062 L7.30772399,3.84062393 L6.37970772,3.84062393 C6.37970772,3.84062393 6.42821031,4.39355349 6.69659132,4.79935851 C6.98922363,5.22133107 7.61167358,5.43797599 8.11771729,5.08067355 C8.64962906,4.70235333 8.47986999,3.96026366 8.47986999,3.96026366 C8.58495894,3.96026366 8.96166241,4.18822584 9.17184031,4.86079513 C9.57441183,6.14449709 8.3036439,7.38292996 7.01994194,6.6715586 C6.11941047,6.16874839 5.742707,5.04025473 5.742707,3.84062393 L5.25283081,3.84062393 C5.26576483,3.75008575 5.13480783,4.73307164 5.33366846,5.46707754 C5.46947572,5.97473801 5.64893532,6.50988329 5.95450165,7.15335102 C6.22288267,7.71113084 6.32312136,8.65046439 5.75725777,9.35536874 C5.27223185,9.97135167 4.97798278,10.3108698 4.85025929,10.5533828" id="path2972"></path>
                </g>
                <polygon id="path2974" fill="#006CB7" fill-rule="nonzero" points="143.273404 48.9908308 161.020502 48.9908308 161.020502 38.1154177 143.273404 38.1154177"></polygon>
                <g id="g2976" transform="translate(152.295885, 43.737412) scale(-1, 1) rotate(-180.000000) translate(-152.295885, -43.737412) translate(147.295885, 38.237412)" fill="#FFFFFF">
                    <path d="M4.85025929,10.5533828 C4.72253579,10.3141033 4.43152024,9.97135167 3.9432608,9.35860224 C3.37739722,8.65369789 3.47601916,7.71274759 3.74601692,7.15335102 C4.05158326,6.50826654 4.23104285,5.97797152 4.37008362,5.4686943 C4.56571074,4.73630514 4.43637049,3.75170251 4.45092127,3.83900717 L3.95781158,3.83900717 C3.95781158,5.03863797 3.58434161,6.17198189 2.67895988,6.66994185 C1.39040766,7.38778022 0.122873235,6.1477306 0.523828003,4.86402864 C0.737239412,4.19145935 1.11879314,3.96349716 1.22388209,3.96349716 C1.22388209,3.96349716 1.04765601,4.70558683 1.58603479,5.08552381 C2.09046175,5.44120949 2.71291169,5.22456458 3.0023105,4.80259202 C3.27554177,4.39678699 3.31919411,3.83900717 3.31919411,3.83900717 L2.39279458,3.83900717 L2.39279458,3.15512062 L4.25529415,3.15835412 C4.25529415,3.15835412 4.20355805,2.19315252 3.1850036,2.28530745 C3.1850036,2.28530745 3.31272709,1.52381674 4.25529415,1.92477151 C4.25529415,1.92477151 4.20355805,1.12447873 4.85025929,0.726757465 C5.49696053,1.12447873 5.44845793,1.92477151 5.44845793,1.92477151 C6.39102499,1.52381674 6.51713173,2.28530745 6.51713173,2.28530745 C5.49696053,2.19315252 5.44845793,3.15835412 5.44845793,3.15835412 L7.30610724,3.15512062 L7.30610724,3.83900717 L6.38132447,3.83900717 C6.38132447,3.83900717 6.42659356,4.39678699 6.69820808,4.80259202 C6.98760688,5.22456458 7.61329033,5.44120949 8.11771729,5.08552381 C8.65286257,4.70558683 8.47986999,3.96349716 8.47986999,3.96349716 C8.58495894,3.96349716 8.96166241,4.19145935 9.17830733,4.86402864 C9.58087885,6.1477306 8.31011091,7.38778022 7.0215587,6.66994185 C6.11941047,6.17198189 5.74432375,5.03863797 5.74432375,3.83900717 L5.25283081,3.83900717 C5.26414808,3.75170251 5.13642459,4.73630514 5.33205171,5.4686943 C5.46947572,5.97797152 5.65055207,6.50826654 5.95773516,7.15335102 C6.22773293,7.71274759 6.32635486,8.65369789 5.75887453,9.35860224 C5.27223185,9.97135167 4.98121629,10.3141033 4.85025929,10.5533828" id="path2978"></path>
                </g>
                <polygon id="path2980" fill="#006CB7" fill-rule="nonzero" points="166.190879 48.9908308 183.944444 48.9908308 183.944444 38.1154177 166.190879 38.1154177"></polygon>
                <g id="g2982" transform="translate(175.213360, 43.737412) scale(-1, 1) rotate(-180.000000) translate(-175.213360, -43.737412) translate(170.213360, 38.237412)" fill="#FFFFFF">
                    <path d="M4.85025929,10.5533828 C4.72091904,10.3141033 4.43152024,9.97135167 3.9432608,9.35860224 C3.37416371,8.65369789 3.4744024,7.71274759 3.74440017,7.15335102 C4.05320001,6.50826654 4.22780935,5.97797152 4.36685011,5.4686943 C4.56409399,4.73630514 4.43637049,3.75170251 4.45092127,3.83900717 L3.95781158,3.83900717 C3.95781158,5.03863797 3.58595837,6.17198189 2.67895988,6.66994185 C1.39040766,7.38778022 0.122873235,6.1477306 0.523828003,4.86402864 C0.738856165,4.19145935 1.11555964,3.96349716 1.22388209,3.96349716 C1.22388209,3.96349716 1.04765601,4.70558683 1.58603479,5.08552381 C2.08722825,5.44120949 2.71129494,5.22456458 2.99907699,4.80259202 C3.27554177,4.39678699 3.31919411,3.83900717 3.31919411,3.83900717 L2.39441133,3.83900717 L2.39441133,3.15512062 L4.25206064,3.15835412 C4.25206064,3.15835412 4.20355805,2.19315252 3.1850036,2.28530745 C3.1850036,2.28530745 3.30949359,1.52381674 4.25206064,1.92477151 C4.25206064,1.92477151 4.20355805,1.12447873 4.85025929,0.726757465 C5.49372702,1.12447873 5.44360767,1.92477151 5.44360767,1.92477151 C6.38940823,1.52381674 6.51551498,2.28530745 6.51551498,2.28530745 C5.49372702,2.19315252 5.44360767,3.15835412 5.44360767,3.15835412 L7.30772399,3.15512062 L7.30772399,3.83900717 L6.37970772,3.83900717 C6.37970772,3.83900717 6.42821031,4.39678699 6.69659132,4.80259202 C6.98922363,5.22456458 7.61167358,5.44120949 8.11771729,5.08552381 C8.64962906,4.70558683 8.47986999,3.96349716 8.47986999,3.96349716 C8.58495894,3.96349716 8.96166241,4.19145935 9.17184031,4.86402864 C9.57441183,6.1477306 8.3036439,7.38778022 7.01994194,6.66994185 C6.11941047,6.17198189 5.742707,5.03863797 5.742707,3.83900717 L5.25283081,3.83900717 C5.26576483,3.75170251 5.13480783,4.73630514 5.33366846,5.4686943 C5.46947572,5.97797152 5.64893532,6.50826654 5.95450165,7.15335102 C6.22288267,7.71274759 6.32312136,8.65369789 5.75725777,9.35860224 C5.27223185,9.97135167 4.97798278,10.3141033 4.85025929,10.5533828" id="path2984"></path>
                </g>
            </g>
        </g>
    </g>
</svg>